<svg xmlns="http://www.w3.org/2000/svg" xmlns:xlink="http://www.w3.org/1999/xlink" width="1440" height="810" viewBox="0 0 1440 810">
<rect width="1440" height="810" fill="#fffefa"/>
<style>text{font-family:Arial,Helvetica,sans-serif}</style>
<defs>
  <marker id="arrowSim" markerWidth="9" markerHeight="9" refX="8" refY="4.5" orient="auto"><path d="M0 0L9 4.5 0 9Z" fill="#4477aa"/></marker>
  <marker id="arrowWeight" markerWidth="9" markerHeight="9" refX="8" refY="4.5" orient="auto"><path d="M0 0L9 4.5 0 9Z" fill="#ee8b2d"/></marker>
  <marker id="arrowTruth" markerWidth="9" markerHeight="9" refX="8" refY="4.5" orient="auto"><path d="M0 0L9 4.5 0 9Z" fill="#745fc2"/></marker>
  <marker id="arrowValid" markerWidth="9" markerHeight="9" refX="8" refY="4.5" orient="auto"><path d="M0 0L9 4.5 0 9Z" fill="#238f83"/></marker>
</defs><text x="70" y="58" font-size="13" fill="#745fc2" font-weight="800" text-anchor="start" >WHAT “BIN AT THE END” BUYS</text><text x="70" y="105" font-size="39" fill="#15212b" font-weight="730" text-anchor="start" >The result is not one histogram</text><rect x="1234" y="43" width="136" height="34" rx="17" fill="#f1efe9" fill-opacity="1" stroke="none" stroke-width="0"></rect><text x="1302" y="66" font-size="14" fill="#66727e" font-weight="750" text-anchor="middle" >CONCEPTUAL TOY</text><rect x="62" y="728" width="1316" height="54" rx="12" fill="#f1efe9" fill-opacity="1" stroke="none" stroke-width="0"></rect><circle cx="91" cy="755" r="6" fill="#ee8b2d" fill-opacity="1" stroke="none" stroke-width="0"></circle><text x="112" y="763" font-size="22" fill="#15212b" font-weight="680" text-anchor="start" >For the reproduction, histogram those events in the published (pT,p∥) bins.</text><rect x="85" y="178" width="650" height="390" rx="12" fill="#fffefa" fill-opacity="1" stroke="#d8d5cd" stroke-width="1"></rect><text x="139.16666666666666" y="212" font-size="13" fill="#ee8b2d" font-weight="760" text-anchor="middle" >event weight</text><text x="247.5" y="212" font-size="13" fill="#66727e" font-weight="760" text-anchor="middle" >pT truth</text><text x="355.8333333333333" y="212" font-size="13" fill="#66727e" font-weight="760" text-anchor="middle" >p∥ truth</text><text x="464.16666666666663" y="212" font-size="13" fill="#66727e" font-weight="760" text-anchor="middle" >Eavail truth</text><text x="572.5" y="212" font-size="13" fill="#66727e" font-weight="760" text-anchor="middle" >q3 truth</text><text x="680.8333333333333" y="212" font-size="13" fill="#66727e" font-weight="760" text-anchor="middle" >W truth</text><line x1="99" y1="231" x2="721" y2="231" stroke="#d8d5cd" stroke-width="0.8"  ></line><text x="139.16666666666666" y="256" font-size="14" fill="#ee8b2d" font-weight="760" text-anchor="middle" >0.70</text><text x="247.5" y="256" font-size="14" fill="#15212b" font-weight="570" text-anchor="middle" >0.08</text><text x="355.8333333333333" y="256" font-size="14" fill="#15212b" font-weight="570" text-anchor="middle" >2.0</text><text x="464.16666666666663" y="256" font-size="14" fill="#15212b" font-weight="570" text-anchor="middle" >0.05</text><text x="572.5" y="256" font-size="14" fill="#15212b" font-weight="570" text-anchor="middle" >0.25</text><text x="680.8333333333333" y="256" font-size="14" fill="#15212b" font-weight="570" text-anchor="middle" >0.90</text><line x1="99" y1="269" x2="721" y2="269" stroke="#d8d5cd" stroke-width="0.8"  ></line><text x="139.16666666666666" y="294" font-size="14" fill="#ee8b2d" font-weight="760" text-anchor="middle" >0.92</text><text x="247.5" y="294" font-size="14" fill="#15212b" font-weight="570" text-anchor="middle" >0.19</text><text x="355.8333333333333" y="294" font-size="14" fill="#15212b" font-weight="570" text-anchor="middle" >2.6</text><text x="464.16666666666663" y="294" font-size="14" fill="#15212b" font-weight="570" text-anchor="middle" >0.21</text><text x="572.5" y="294" font-size="14" fill="#15212b" font-weight="570" text-anchor="middle" >0.42</text><text x="680.8333333333333" y="294" font-size="14" fill="#15212b" font-weight="570" text-anchor="middle" >1.18</text><line x1="99" y1="307" x2="721" y2="307" stroke="#d8d5cd" stroke-width="0.8"  ></line><text x="139.16666666666666" y="332" font-size="14" fill="#ee8b2d" font-weight="760" text-anchor="middle" >1.14</text><text x="247.5" y="332" font-size="14" fill="#15212b" font-weight="570" text-anchor="middle" >0.30</text><text x="355.8333333333333" y="332" font-size="14" fill="#15212b" font-weight="570" text-anchor="middle" >3.2</text><text x="464.16666666666663" y="332" font-size="14" fill="#15212b" font-weight="570" text-anchor="middle" >0.37</text><text x="572.5" y="332" font-size="14" fill="#15212b" font-weight="570" text-anchor="middle" >0.59</text><text x="680.8333333333333" y="332" font-size="14" fill="#15212b" font-weight="570" text-anchor="middle" >1.46</text><line x1="99" y1="345" x2="721" y2="345" stroke="#d8d5cd" stroke-width="0.8"  ></line><text x="139.16666666666666" y="370" font-size="14" fill="#ee8b2d" font-weight="760" text-anchor="middle" >1.36</text><text x="247.5" y="370" font-size="14" fill="#15212b" font-weight="570" text-anchor="middle" >0.41</text><text x="355.8333333333333" y="370" font-size="14" fill="#15212b" font-weight="570" text-anchor="middle" >3.9</text><text x="464.16666666666663" y="370" font-size="14" fill="#15212b" font-weight="570" text-anchor="middle" >0.53</text><text x="572.5" y="370" font-size="14" fill="#15212b" font-weight="570" text-anchor="middle" >0.76</text><text x="680.8333333333333" y="370" font-size="14" fill="#15212b" font-weight="570" text-anchor="middle" >1.74</text><line x1="99" y1="383" x2="721" y2="383" stroke="#d8d5cd" stroke-width="0.8"  ></line><text x="139.16666666666666" y="408" font-size="14" fill="#ee8b2d" font-weight="760" text-anchor="middle" >1.58</text><text x="247.5" y="408" font-size="14" fill="#15212b" font-weight="570" text-anchor="middle" >0.52</text><text x="355.8333333333333" y="408" font-size="14" fill="#15212b" font-weight="570" text-anchor="middle" >4.5</text><text x="464.16666666666663" y="408" font-size="14" fill="#15212b" font-weight="570" text-anchor="middle" >0.05</text><text x="572.5" y="408" font-size="14" fill="#15212b" font-weight="570" text-anchor="middle" >0.93</text><text x="680.8333333333333" y="408" font-size="14" fill="#15212b" font-weight="570" text-anchor="middle" >2.02</text><line x1="99" y1="421" x2="721" y2="421" stroke="#d8d5cd" stroke-width="0.8"  ></line><text x="139.16666666666666" y="446" font-size="14" fill="#ee8b2d" font-weight="760" text-anchor="middle" >0.70</text><text x="247.5" y="446" font-size="14" fill="#15212b" font-weight="570" text-anchor="middle" >0.63</text><text x="355.8333333333333" y="446" font-size="14" fill="#15212b" font-weight="570" text-anchor="middle" >5.1</text><text x="464.16666666666663" y="446" font-size="14" fill="#15212b" font-weight="570" text-anchor="middle" >0.21</text><text x="572.5" y="446" font-size="14" fill="#15212b" font-weight="570" text-anchor="middle" >1.10</text><text x="680.8333333333333" y="446" font-size="14" fill="#15212b" font-weight="570" text-anchor="middle" >0.90</text><line x1="99" y1="459" x2="721" y2="459" stroke="#d8d5cd" stroke-width="0.8"  ></line><text x="139.16666666666666" y="484" font-size="14" fill="#ee8b2d" font-weight="760" text-anchor="middle" >0.92</text><text x="247.5" y="484" font-size="14" fill="#15212b" font-weight="570" text-anchor="middle" >0.74</text><text x="355.8333333333333" y="484" font-size="14" fill="#15212b" font-weight="570" text-anchor="middle" >5.7</text><text x="464.16666666666663" y="484" font-size="14" fill="#15212b" font-weight="570" text-anchor="middle" >0.37</text><text x="572.5" y="484" font-size="14" fill="#15212b" font-weight="570" text-anchor="middle" >0.25</text><text x="680.8333333333333" y="484" font-size="14" fill="#15212b" font-weight="570" text-anchor="middle" >1.18</text><line x1="99" y1="497" x2="721" y2="497" stroke="#d8d5cd" stroke-width="0.8"  ></line><text x="139.16666666666666" y="522" font-size="14" fill="#ee8b2d" font-weight="760" text-anchor="middle" >1.14</text><text x="247.5" y="522" font-size="14" fill="#15212b" font-weight="570" text-anchor="middle" >0.85</text><text x="355.8333333333333" y="522" font-size="14" fill="#15212b" font-weight="570" text-anchor="middle" >6.3</text><text x="464.16666666666663" y="522" font-size="14" fill="#15212b" font-weight="570" text-anchor="middle" >0.53</text><text x="572.5" y="522" font-size="14" fill="#15212b" font-weight="570" text-anchor="middle" >0.42</text><text x="680.8333333333333" y="522" font-size="14" fill="#15212b" font-weight="570" text-anchor="middle" >1.46</text><path d="M765 365 C830 365 835 365 875 365" fill="none" stroke="#ee8b2d" stroke-width="4" stroke-linecap="round" stroke-linejoin="round" opacity="1"  marker-end="url(#arrowWeight)"></path><rect x="925" y="205" width="350" height="320" rx="2" fill="#f1efe9" fill-opacity="1" stroke="#15212b" stroke-width="1.5"></rect><rect x="925" y="205" width="43.75" height="53.333333333333336" rx="0" fill="#ee8b2d" fill-opacity="0.08" stroke="#fffefa" stroke-width="0.5"></rect><rect x="925" y="258.3333333333333" width="43.75" height="53.333333333333336" rx="0" fill="#ee8b2d" fill-opacity="0.4676923076923077" stroke="#fffefa" stroke-width="0.5"></rect><rect x="925" y="311.6666666666667" width="43.75" height="53.333333333333336" rx="0" fill="#ee8b2d" fill-opacity="0.13538461538461538" stroke="#fffefa" stroke-width="0.5"></rect><rect x="925" y="365" width="43.75" height="53.333333333333336" rx="0" fill="#ee8b2d" fill-opacity="0.5230769230769231" stroke="#fffefa" stroke-width="0.5"></rect><rect x="925" y="418.33333333333337" width="43.75" height="53.333333333333336" rx="0" fill="#ee8b2d" fill-opacity="0.19076923076923077" stroke="#fffefa" stroke-width="0.5"></rect><rect x="925" y="471.6666666666667" width="43.75" height="53.333333333333336" rx="0" fill="#ee8b2d" fill-opacity="0.5784615384615385" stroke="#fffefa" stroke-width="0.5"></rect><rect x="968.75" y="205" width="43.75" height="53.333333333333336" rx="0" fill="#ee8b2d" fill-opacity="0.35692307692307695" stroke="#fffefa" stroke-width="0.5"></rect><rect x="968.75" y="258.3333333333333" width="43.75" height="53.333333333333336" rx="0" fill="#ee8b2d" fill-opacity="0.7446153846153846" stroke="#fffefa" stroke-width="0.5"></rect><rect x="968.75" y="311.6666666666667" width="43.75" height="53.333333333333336" rx="0" fill="#ee8b2d" fill-opacity="0.4123076923076923" stroke="#fffefa" stroke-width="0.5"></rect><rect x="968.75" y="365" width="43.75" height="53.333333333333336" rx="0" fill="#ee8b2d" fill-opacity="0.08" stroke="#fffefa" stroke-width="0.5"></rect><rect x="968.75" y="418.33333333333337" width="43.75" height="53.333333333333336" rx="0" fill="#ee8b2d" fill-opacity="0.4676923076923077" stroke="#fffefa" stroke-width="0.5"></rect><rect x="968.75" y="471.6666666666667" width="43.75" height="53.333333333333336" rx="0" fill="#ee8b2d" fill-opacity="0.13538461538461538" stroke="#fffefa" stroke-width="0.5"></rect><rect x="1012.5" y="205" width="43.75" height="53.333333333333336" rx="0" fill="#ee8b2d" fill-opacity="0.6338461538461538" stroke="#fffefa" stroke-width="0.5"></rect><rect x="1012.5" y="258.3333333333333" width="43.75" height="53.333333333333336" rx="0" fill="#ee8b2d" fill-opacity="0.30153846153846153" stroke="#fffefa" stroke-width="0.5"></rect><rect x="1012.5" y="311.6666666666667" width="43.75" height="53.333333333333336" rx="0" fill="#ee8b2d" fill-opacity="0.6892307692307692" stroke="#fffefa" stroke-width="0.5"></rect><rect x="1012.5" y="365" width="43.75" height="53.333333333333336" rx="0" fill="#ee8b2d" fill-opacity="0.35692307692307695" stroke="#fffefa" stroke-width="0.5"></rect><rect x="1012.5" y="418.33333333333337" width="43.75" height="53.333333333333336" rx="0" fill="#ee8b2d" fill-opacity="0.7446153846153846" stroke="#fffefa" stroke-width="0.5"></rect><rect x="1012.5" y="471.6666666666667" width="43.75" height="53.333333333333336" rx="0" fill="#ee8b2d" fill-opacity="0.4123076923076923" stroke="#fffefa" stroke-width="0.5"></rect><rect x="1056.25" y="205" width="43.75" height="53.333333333333336" rx="0" fill="#ee8b2d" fill-opacity="0.19076923076923077" stroke="#fffefa" stroke-width="0.5"></rect><rect x="1056.25" y="258.3333333333333" width="43.75" height="53.333333333333336" rx="0" fill="#ee8b2d" fill-opacity="0.5784615384615385" stroke="#fffefa" stroke-width="0.5"></rect><rect x="1056.25" y="311.6666666666667" width="43.75" height="53.333333333333336" rx="0" fill="#ee8b2d" fill-opacity="0.24615384615384617" stroke="#fffefa" stroke-width="0.5"></rect><rect x="1056.25" y="365" width="43.75" height="53.333333333333336" rx="0" fill="#ee8b2d" fill-opacity="0.6338461538461538" stroke="#fffefa" stroke-width="0.5"></rect><rect x="1056.25" y="418.33333333333337" width="43.75" height="53.333333333333336" rx="0" fill="#ee8b2d" fill-opacity="0.30153846153846153" stroke="#fffefa" stroke-width="0.5"></rect><rect x="1056.25" y="471.6666666666667" width="43.75" height="53.333333333333336" rx="0" fill="#ee8b2d" fill-opacity="0.6892307692307692" stroke="#fffefa" stroke-width="0.5"></rect><rect x="1100" y="205" width="43.75" height="53.333333333333336" rx="0" fill="#ee8b2d" fill-opacity="0.4676923076923077" stroke="#fffefa" stroke-width="0.5"></rect><rect x="1100" y="258.3333333333333" width="43.75" height="53.333333333333336" rx="0" fill="#ee8b2d" fill-opacity="0.13538461538461538" stroke="#fffefa" stroke-width="0.5"></rect><rect x="1100" y="311.6666666666667" width="43.75" height="53.333333333333336" rx="0" fill="#ee8b2d" fill-opacity="0.5230769230769231" stroke="#fffefa" stroke-width="0.5"></rect><rect x="1100" y="365" width="43.75" height="53.333333333333336" rx="0" fill="#ee8b2d" fill-opacity="0.19076923076923077" stroke="#fffefa" stroke-width="0.5"></rect><rect x="1100" y="418.33333333333337" width="43.75" height="53.333333333333336" rx="0" fill="#ee8b2d" fill-opacity="0.5784615384615385" stroke="#fffefa" stroke-width="0.5"></rect><rect x="1100" y="471.6666666666667" width="43.75" height="53.333333333333336" rx="0" fill="#ee8b2d" fill-opacity="0.24615384615384617" stroke="#fffefa" stroke-width="0.5"></rect><rect x="1143.75" y="205" width="43.75" height="53.333333333333336" rx="0" fill="#ee8b2d" fill-opacity="0.7446153846153846" stroke="#fffefa" stroke-width="0.5"></rect><rect x="1143.75" y="258.3333333333333" width="43.75" height="53.333333333333336" rx="0" fill="#ee8b2d" fill-opacity="0.4123076923076923" stroke="#fffefa" stroke-width="0.5"></rect><rect x="1143.75" y="311.6666666666667" width="43.75" height="53.333333333333336" rx="0" fill="#ee8b2d" fill-opacity="0.08" stroke="#fffefa" stroke-width="0.5"></rect><rect x="1143.75" y="365" width="43.75" height="53.333333333333336" rx="0" fill="#ee8b2d" fill-opacity="0.4676923076923077" stroke="#fffefa" stroke-width="0.5"></rect><rect x="1143.75" y="418.33333333333337" width="43.75" height="53.333333333333336" rx="0" fill="#ee8b2d" fill-opacity="0.13538461538461538" stroke="#fffefa" stroke-width="0.5"></rect><rect x="1143.75" y="471.6666666666667" width="43.75" height="53.333333333333336" rx="0" fill="#ee8b2d" fill-opacity="0.5230769230769231" stroke="#fffefa" stroke-width="0.5"></rect><rect x="1187.5" y="205" width="43.75" height="53.333333333333336" rx="0" fill="#ee8b2d" fill-opacity="0.30153846153846153" stroke="#fffefa" stroke-width="0.5"></rect><rect x="1187.5" y="258.3333333333333" width="43.75" height="53.333333333333336" rx="0" fill="#ee8b2d" fill-opacity="0.6892307692307692" stroke="#fffefa" stroke-width="0.5"></rect><rect x="1187.5" y="311.6666666666667" width="43.75" height="53.333333333333336" rx="0" fill="#ee8b2d" fill-opacity="0.35692307692307695" stroke="#fffefa" stroke-width="0.5"></rect><rect x="1187.5" y="365" width="43.75" height="53.333333333333336" rx="0" fill="#ee8b2d" fill-opacity="0.7446153846153846" stroke="#fffefa" stroke-width="0.5"></rect><rect x="1187.5" y="418.33333333333337" width="43.75" height="53.333333333333336" rx="0" fill="#ee8b2d" fill-opacity="0.4123076923076923" stroke="#fffefa" stroke-width="0.5"></rect><rect x="1187.5" y="471.6666666666667" width="43.75" height="53.333333333333336" rx="0" fill="#ee8b2d" fill-opacity="0.08" stroke="#fffefa" stroke-width="0.5"></rect><rect x="1231.25" y="205" width="43.75" height="53.333333333333336" rx="0" fill="#ee8b2d" fill-opacity="0.5784615384615385" stroke="#fffefa" stroke-width="0.5"></rect><rect x="1231.25" y="258.3333333333333" width="43.75" height="53.333333333333336" rx="0" fill="#ee8b2d" fill-opacity="0.24615384615384617" stroke="#fffefa" stroke-width="0.5"></rect><rect x="1231.25" y="311.6666666666667" width="43.75" height="53.333333333333336" rx="0" fill="#ee8b2d" fill-opacity="0.6338461538461538" stroke="#fffefa" stroke-width="0.5"></rect><rect x="1231.25" y="365" width="43.75" height="53.333333333333336" rx="0" fill="#ee8b2d" fill-opacity="0.30153846153846153" stroke="#fffefa" stroke-width="0.5"></rect><rect x="1231.25" y="418.33333333333337" width="43.75" height="53.333333333333336" rx="0" fill="#ee8b2d" fill-opacity="0.6892307692307692" stroke="#fffefa" stroke-width="0.5"></rect><rect x="1231.25" y="471.6666666666667" width="43.75" height="53.333333333333336" rx="0" fill="#ee8b2d" fill-opacity="0.35692307692307695" stroke="#fffefa" stroke-width="0.5"></rect><text x="1100" y="565" font-size="18" fill="#15212b" font-weight="700" text-anchor="middle" >published (pT, p∥) binning</text><rect x="995" y="604" width="210" height="34" rx="17" fill="#238f83" fill-opacity="1" stroke="none" stroke-width="0"></rect><text x="1100" y="627" font-size="14" fill="#fffefa" font-weight="750" text-anchor="middle" >TRUST CHECK</text>
</svg>
