<svg xmlns="http://www.w3.org/2000/svg" xmlns:xlink="http://www.w3.org/1999/xlink" width="1440" height="810" viewBox="0 0 1440 810">
<rect width="1440" height="810" fill="#fffefa"/>
<style>text{font-family:Arial,Helvetica,sans-serif}</style>
<defs>
  <marker id="arrowSim" markerWidth="9" markerHeight="9" refX="8" refY="4.5" orient="auto"><path d="M0 0L9 4.5 0 9Z" fill="#4477aa"/></marker>
  <marker id="arrowWeight" markerWidth="9" markerHeight="9" refX="8" refY="4.5" orient="auto"><path d="M0 0L9 4.5 0 9Z" fill="#ee8b2d"/></marker>
  <marker id="arrowTruth" markerWidth="9" markerHeight="9" refX="8" refY="4.5" orient="auto"><path d="M0 0L9 4.5 0 9Z" fill="#745fc2"/></marker>
  <marker id="arrowValid" markerWidth="9" markerHeight="9" refX="8" refY="4.5" orient="auto"><path d="M0 0L9 4.5 0 9Z" fill="#238f83"/></marker>
</defs><text x="70" y="58" font-size="13" fill="#745fc2" font-weight="800" text-anchor="start" >WHAT “BIN AT THE END” BUYS</text><text x="70" y="105" font-size="39" fill="#15212b" font-weight="730" text-anchor="start" >The result is not one histogram</text><rect x="1234" y="43" width="136" height="34" rx="17" fill="#f1efe9" fill-opacity="1" stroke="none" stroke-width="0"></rect><text x="1302" y="66" font-size="14" fill="#66727e" font-weight="750" text-anchor="middle" >CONCEPTUAL TOY</text><rect x="62" y="728" width="1316" height="54" rx="12" fill="#f1efe9" fill-opacity="1" stroke="none" stroke-width="0"></rect><circle cx="91" cy="755" r="6" fill="#ee8b2d" fill-opacity="1" stroke="none" stroke-width="0"></circle><text x="112" y="763" font-size="22" fill="#15212b" font-weight="680" text-anchor="start" >Alternative binnings and several projections come from the same unfolded ensemble.</text><rect x="95" y="175" width="390" height="410" rx="16" fill="#f1efe9" fill-opacity="1" stroke="none" stroke-width="0"></rect><text x="290" y="215" font-size="17" fill="#ee8b2d" font-weight="760" text-anchor="middle" >weighted truth events</text><circle cx="155" cy="265" r="8.1" fill="#ee8b2d" fill-opacity="0.68" stroke="none" stroke-width="0"></circle><circle cx="244" cy="318" r="8.76" fill="#ee8b2d" fill-opacity="0.68" stroke="none" stroke-width="0"></circle><circle cx="333" cy="371" r="9.42" fill="#ee8b2d" fill-opacity="0.68" stroke="none" stroke-width="0"></circle><circle cx="422" cy="424" r="10.08" fill="#ee8b2d" fill-opacity="0.68" stroke="none" stroke-width="0"></circle><circle cx="241" cy="477" r="10.74" fill="#ee8b2d" fill-opacity="0.68" stroke="none" stroke-width="0"></circle><circle cx="330" cy="270" r="8.1" fill="#ee8b2d" fill-opacity="0.68" stroke="none" stroke-width="0"></circle><circle cx="419" cy="323" r="8.76" fill="#ee8b2d" fill-opacity="0.68" stroke="none" stroke-width="0"></circle><circle cx="238" cy="376" r="9.42" fill="#ee8b2d" fill-opacity="0.68" stroke="none" stroke-width="0"></circle><path d="M510 375 C570 375 590 245 635 245" fill="none" stroke="#ee8b2d" stroke-width="3" stroke-linecap="round" stroke-linejoin="round" opacity="1"  marker-end="url(#arrowWeight)"></path><path d="M510 375 C570 375 590 390 635 390" fill="none" stroke="#238f83" stroke-width="3" stroke-linecap="round" stroke-linejoin="round" opacity="1"  marker-end="url(#arrowValid)"></path><path d="M510 375 C570 375 590 535 635 535" fill="none" stroke="#745fc2" stroke-width="3" stroke-linecap="round" stroke-linejoin="round" opacity="1"  marker-end="url(#arrowTruth)"></path><rect x="660" y="158" width="650" height="170" rx="12" fill="#fffefa" fill-opacity="1" stroke="#d8d5cd" stroke-width="1"></rect><rect x="695" y="185" width="190" height="115" rx="2" fill="#f1efe9" fill-opacity="1" stroke="#15212b" stroke-width="1.5"></rect><rect x="695" y="185" width="23.75" height="19.166666666666668" rx="0" fill="#ee8b2d" fill-opacity="0.08" stroke="#fffefa" stroke-width="0.5"></rect><rect x="695" y="204.16666666666666" width="23.75" height="19.166666666666668" rx="0" fill="#ee8b2d" fill-opacity="0.4676923076923077" stroke="#fffefa" stroke-width="0.5"></rect><rect x="695" y="223.33333333333334" width="23.75" height="19.166666666666668" rx="0" fill="#ee8b2d" fill-opacity="0.13538461538461538" stroke="#fffefa" stroke-width="0.5"></rect><rect x="695" y="242.5" width="23.75" height="19.166666666666668" rx="0" fill="#ee8b2d" fill-opacity="0.5230769230769231" stroke="#fffefa" stroke-width="0.5"></rect><rect x="695" y="261.6666666666667" width="23.75" height="19.166666666666668" rx="0" fill="#ee8b2d" fill-opacity="0.19076923076923077" stroke="#fffefa" stroke-width="0.5"></rect><rect x="695" y="280.8333333333333" width="23.75" height="19.166666666666668" rx="0" fill="#ee8b2d" fill-opacity="0.5784615384615385" stroke="#fffefa" stroke-width="0.5"></rect><rect x="718.75" y="185" width="23.75" height="19.166666666666668" rx="0" fill="#ee8b2d" fill-opacity="0.35692307692307695" stroke="#fffefa" stroke-width="0.5"></rect><rect x="718.75" y="204.16666666666666" width="23.75" height="19.166666666666668" rx="0" fill="#ee8b2d" fill-opacity="0.7446153846153846" stroke="#fffefa" stroke-width="0.5"></rect><rect x="718.75" y="223.33333333333334" width="23.75" height="19.166666666666668" rx="0" fill="#ee8b2d" fill-opacity="0.4123076923076923" stroke="#fffefa" stroke-width="0.5"></rect><rect x="718.75" y="242.5" width="23.75" height="19.166666666666668" rx="0" fill="#ee8b2d" fill-opacity="0.08" stroke="#fffefa" stroke-width="0.5"></rect><rect x="718.75" y="261.6666666666667" width="23.75" height="19.166666666666668" rx="0" fill="#ee8b2d" fill-opacity="0.4676923076923077" stroke="#fffefa" stroke-width="0.5"></rect><rect x="718.75" y="280.8333333333333" width="23.75" height="19.166666666666668" rx="0" fill="#ee8b2d" fill-opacity="0.13538461538461538" stroke="#fffefa" stroke-width="0.5"></rect><rect x="742.5" y="185" width="23.75" height="19.166666666666668" rx="0" fill="#ee8b2d" fill-opacity="0.6338461538461538" stroke="#fffefa" stroke-width="0.5"></rect><rect x="742.5" y="204.16666666666666" width="23.75" height="19.166666666666668" rx="0" fill="#ee8b2d" fill-opacity="0.30153846153846153" stroke="#fffefa" stroke-width="0.5"></rect><rect x="742.5" y="223.33333333333334" width="23.75" height="19.166666666666668" rx="0" fill="#ee8b2d" fill-opacity="0.6892307692307692" stroke="#fffefa" stroke-width="0.5"></rect><rect x="742.5" y="242.5" width="23.75" height="19.166666666666668" rx="0" fill="#ee8b2d" fill-opacity="0.35692307692307695" stroke="#fffefa" stroke-width="0.5"></rect><rect x="742.5" y="261.6666666666667" width="23.75" height="19.166666666666668" rx="0" fill="#ee8b2d" fill-opacity="0.7446153846153846" stroke="#fffefa" stroke-width="0.5"></rect><rect x="742.5" y="280.8333333333333" width="23.75" height="19.166666666666668" rx="0" fill="#ee8b2d" fill-opacity="0.4123076923076923" stroke="#fffefa" stroke-width="0.5"></rect><rect x="766.25" y="185" width="23.75" height="19.166666666666668" rx="0" fill="#ee8b2d" fill-opacity="0.19076923076923077" stroke="#fffefa" stroke-width="0.5"></rect><rect x="766.25" y="204.16666666666666" width="23.75" height="19.166666666666668" rx="0" fill="#ee8b2d" fill-opacity="0.5784615384615385" stroke="#fffefa" stroke-width="0.5"></rect><rect x="766.25" y="223.33333333333334" width="23.75" height="19.166666666666668" rx="0" fill="#ee8b2d" fill-opacity="0.24615384615384617" stroke="#fffefa" stroke-width="0.5"></rect><rect x="766.25" y="242.5" width="23.75" height="19.166666666666668" rx="0" fill="#ee8b2d" fill-opacity="0.6338461538461538" stroke="#fffefa" stroke-width="0.5"></rect><rect x="766.25" y="261.6666666666667" width="23.75" height="19.166666666666668" rx="0" fill="#ee8b2d" fill-opacity="0.30153846153846153" stroke="#fffefa" stroke-width="0.5"></rect><rect x="766.25" y="280.8333333333333" width="23.75" height="19.166666666666668" rx="0" fill="#ee8b2d" fill-opacity="0.6892307692307692" stroke="#fffefa" stroke-width="0.5"></rect><rect x="790" y="185" width="23.75" height="19.166666666666668" rx="0" fill="#ee8b2d" fill-opacity="0.4676923076923077" stroke="#fffefa" stroke-width="0.5"></rect><rect x="790" y="204.16666666666666" width="23.75" height="19.166666666666668" rx="0" fill="#ee8b2d" fill-opacity="0.13538461538461538" stroke="#fffefa" stroke-width="0.5"></rect><rect x="790" y="223.33333333333334" width="23.75" height="19.166666666666668" rx="0" fill="#ee8b2d" fill-opacity="0.5230769230769231" stroke="#fffefa" stroke-width="0.5"></rect><rect x="790" y="242.5" width="23.75" height="19.166666666666668" rx="0" fill="#ee8b2d" fill-opacity="0.19076923076923077" stroke="#fffefa" stroke-width="0.5"></rect><rect x="790" y="261.6666666666667" width="23.75" height="19.166666666666668" rx="0" fill="#ee8b2d" fill-opacity="0.5784615384615385" stroke="#fffefa" stroke-width="0.5"></rect><rect x="790" y="280.8333333333333" width="23.75" height="19.166666666666668" rx="0" fill="#ee8b2d" fill-opacity="0.24615384615384617" stroke="#fffefa" stroke-width="0.5"></rect><rect x="813.75" y="185" width="23.75" height="19.166666666666668" rx="0" fill="#ee8b2d" fill-opacity="0.7446153846153846" stroke="#fffefa" stroke-width="0.5"></rect><rect x="813.75" y="204.16666666666666" width="23.75" height="19.166666666666668" rx="0" fill="#ee8b2d" fill-opacity="0.4123076923076923" stroke="#fffefa" stroke-width="0.5"></rect><rect x="813.75" y="223.33333333333334" width="23.75" height="19.166666666666668" rx="0" fill="#ee8b2d" fill-opacity="0.08" stroke="#fffefa" stroke-width="0.5"></rect><rect x="813.75" y="242.5" width="23.75" height="19.166666666666668" rx="0" fill="#ee8b2d" fill-opacity="0.4676923076923077" stroke="#fffefa" stroke-width="0.5"></rect><rect x="813.75" y="261.6666666666667" width="23.75" height="19.166666666666668" rx="0" fill="#ee8b2d" fill-opacity="0.13538461538461538" stroke="#fffefa" stroke-width="0.5"></rect><rect x="813.75" y="280.8333333333333" width="23.75" height="19.166666666666668" rx="0" fill="#ee8b2d" fill-opacity="0.5230769230769231" stroke="#fffefa" stroke-width="0.5"></rect><rect x="837.5" y="185" width="23.75" height="19.166666666666668" rx="0" fill="#ee8b2d" fill-opacity="0.30153846153846153" stroke="#fffefa" stroke-width="0.5"></rect><rect x="837.5" y="204.16666666666666" width="23.75" height="19.166666666666668" rx="0" fill="#ee8b2d" fill-opacity="0.6892307692307692" stroke="#fffefa" stroke-width="0.5"></rect><rect x="837.5" y="223.33333333333334" width="23.75" height="19.166666666666668" rx="0" fill="#ee8b2d" fill-opacity="0.35692307692307695" stroke="#fffefa" stroke-width="0.5"></rect><rect x="837.5" y="242.5" width="23.75" height="19.166666666666668" rx="0" fill="#ee8b2d" fill-opacity="0.7446153846153846" stroke="#fffefa" stroke-width="0.5"></rect><rect x="837.5" y="261.6666666666667" width="23.75" height="19.166666666666668" rx="0" fill="#ee8b2d" fill-opacity="0.4123076923076923" stroke="#fffefa" stroke-width="0.5"></rect><rect x="837.5" y="280.8333333333333" width="23.75" height="19.166666666666668" rx="0" fill="#ee8b2d" fill-opacity="0.08" stroke="#fffefa" stroke-width="0.5"></rect><rect x="861.25" y="185" width="23.75" height="19.166666666666668" rx="0" fill="#ee8b2d" fill-opacity="0.5784615384615385" stroke="#fffefa" stroke-width="0.5"></rect><rect x="861.25" y="204.16666666666666" width="23.75" height="19.166666666666668" rx="0" fill="#ee8b2d" fill-opacity="0.24615384615384617" stroke="#fffefa" stroke-width="0.5"></rect><rect x="861.25" y="223.33333333333334" width="23.75" height="19.166666666666668" rx="0" fill="#ee8b2d" fill-opacity="0.6338461538461538" stroke="#fffefa" stroke-width="0.5"></rect><rect x="861.25" y="242.5" width="23.75" height="19.166666666666668" rx="0" fill="#ee8b2d" fill-opacity="0.30153846153846153" stroke="#fffefa" stroke-width="0.5"></rect><rect x="861.25" y="261.6666666666667" width="23.75" height="19.166666666666668" rx="0" fill="#ee8b2d" fill-opacity="0.6892307692307692" stroke="#fffefa" stroke-width="0.5"></rect><rect x="861.25" y="280.8333333333333" width="23.75" height="19.166666666666668" rx="0" fill="#ee8b2d" fill-opacity="0.35692307692307695" stroke="#fffefa" stroke-width="0.5"></rect><text x="1065" y="235" font-size="18" fill="#15212b" font-weight="700" text-anchor="middle" >published 2D bins</text><rect x="660" y="343" width="650" height="135" rx="12" fill="#fffefa" fill-opacity="1" stroke="#d8d5cd" stroke-width="1"></rect><line x1="700" y1="445" x2="970" y2="445" stroke="#15212b" stroke-width="1.5"  ></line><line x1="700" y1="445" x2="700" y2="370" stroke="#15212b" stroke-width="1.5"  ></line><rect x="704" y="422.1737176187844" width="31.57142857142857" height="22.8262823812156" rx="3" fill="#238f83" fill-opacity="0.72" stroke="none" stroke-width="0"></rect><rect x="742.5714285714286" y="389.87495869027566" width="31.57142857142857" height="55.12504130972437" rx="3" fill="#238f83" fill-opacity="0.72" stroke="none" stroke-width="0"></rect><rect x="781.1428571428571" y="396.06653196783265" width="31.57142857142857" height="48.93346803216737" rx="3" fill="#238f83" fill-opacity="0.72" stroke="none" stroke-width="0"></rect><rect x="819.7142857142857" y="404.8085983253002" width="31.57142857142857" height="40.19140167469981" rx="3" fill="#238f83" fill-opacity="0.72" stroke="none" stroke-width="0"></rect><rect x="858.2857142857142" y="380" width="31.57142857142857" height="65" rx="3" fill="#238f83" fill-opacity="0.72" stroke="none" stroke-width="0"></rect><rect x="896.8571428571429" y="402.17986700927236" width="31.57142857142857" height="42.82013299072767" rx="3" fill="#238f83" fill-opacity="0.72" stroke="none" stroke-width="0"></rect><rect x="935.4285714285714" y="425.32347661470135" width="31.57142857142857" height="19.67652338529866" rx="3" fill="#238f83" fill-opacity="0.72" stroke="none" stroke-width="0"></rect><text x="1110" y="415" font-size="18" fill="#15212b" font-weight="700" text-anchor="middle" >coarser / finer binning</text><rect x="660" y="493" width="650" height="135" rx="12" fill="#fffefa" fill-opacity="1" stroke="#d8d5cd" stroke-width="1"></rect><line x1="700" y1="595" x2="970" y2="595" stroke="#15212b" stroke-width="1.5"  ></line><line x1="700" y1="595" x2="700" y2="520" stroke="#15212b" stroke-width="1.5"  ></line><rect x="704" y="574.441566501119" width="20" height="20.558433498880902" rx="3" fill="#745fc2" fill-opacity="0.72" stroke="none" stroke-width="0"></rect><rect x="731" y="545.2579923203926" width="20" height="49.742007679607305" rx="3" fill="#745fc2" fill-opacity="0.72" stroke="none" stroke-width="0"></rect><rect x="758" y="554.4502747331555" width="20" height="40.54972526684445" rx="3" fill="#745fc2" fill-opacity="0.72" stroke="none" stroke-width="0"></rect><rect x="785" y="562.0400161062057" width="20" height="32.95998389379434" rx="3" fill="#745fc2" fill-opacity="0.72" stroke="none" stroke-width="0"></rect><rect x="812" y="530" width="20" height="65" rx="3" fill="#745fc2" fill-opacity="0.72" stroke="none" stroke-width="0"></rect><rect x="839" y="543.1730752526103" width="20" height="51.82692474738978" rx="3" fill="#745fc2" fill-opacity="0.72" stroke="none" stroke-width="0"></rect><rect x="866" y="561.7384839300952" width="20" height="33.261516069904815" rx="3" fill="#745fc2" fill-opacity="0.72" stroke="none" stroke-width="0"></rect><rect x="893" y="542.7302507209386" width="20" height="52.26974927906142" rx="3" fill="#745fc2" fill-opacity="0.72" stroke="none" stroke-width="0"></rect><rect x="920" y="564.4145884609485" width="20" height="30.585411539051552" rx="3" fill="#745fc2" fill-opacity="0.72" stroke="none" stroke-width="0"></rect><rect x="947" y="583.9214598667663" width="20" height="11.078540133233679" rx="3" fill="#745fc2" fill-opacity="0.72" stroke="none" stroke-width="0"></rect><text x="1110" y="565" font-size="18" fill="#15212b" font-weight="700" text-anchor="middle" >another stored projection</text>
</svg>
