<svg xmlns="http://www.w3.org/2000/svg" xmlns:xlink="http://www.w3.org/1999/xlink" width="1440" height="810" viewBox="0 0 1440 810">
<rect width="1440" height="810" fill="#fffefa"/>
<style>text{font-family:Arial,Helvetica,sans-serif}</style>
<defs>
  <marker id="arrowSim" markerWidth="9" markerHeight="9" refX="8" refY="4.5" orient="auto"><path d="M0 0L9 4.5 0 9Z" fill="#4477aa"/></marker>
  <marker id="arrowWeight" markerWidth="9" markerHeight="9" refX="8" refY="4.5" orient="auto"><path d="M0 0L9 4.5 0 9Z" fill="#ee8b2d"/></marker>
  <marker id="arrowTruth" markerWidth="9" markerHeight="9" refX="8" refY="4.5" orient="auto"><path d="M0 0L9 4.5 0 9Z" fill="#745fc2"/></marker>
  <marker id="arrowValid" markerWidth="9" markerHeight="9" refX="8" refY="4.5" orient="auto"><path d="M0 0L9 4.5 0 9Z" fill="#238f83"/></marker>
</defs><text x="70" y="58" font-size="13" fill="#745fc2" font-weight="800" text-anchor="start" >REMOVE THE ML MYSTERY</text><text x="70" y="105" font-size="39" fill="#15212b" font-weight="730" text-anchor="start" >A classifier is a local density-ratio meter</text><rect x="1234" y="43" width="136" height="34" rx="17" fill="#f1efe9" fill-opacity="1" stroke="none" stroke-width="0"></rect><text x="1302" y="66" font-size="14" fill="#66727e" font-weight="750" text-anchor="middle" >CONCEPTUAL TOY</text><rect x="62" y="728" width="1316" height="54" rx="12" fill="#f1efe9" fill-opacity="1" stroke="none" stroke-width="0"></rect><circle cx="91" cy="755" r="6" fill="#ee8b2d" fill-opacity="1" stroke="none" stroke-width="0"></circle><text x="112" y="763" font-size="22" fill="#15212b" font-weight="680" text-anchor="start" >The classifier sees ordinary reconstructed observables.</text><line x1="120" y1="640" x2="940" y2="640" stroke="#15212b" stroke-width="2"  ></line><line x1="120" y1="640" x2="120" y2="170" stroke="#15212b" stroke-width="2"  ></line><text x="530" y="682" font-size="16" fill="#66727e" font-weight="650" text-anchor="middle" >reconstructed feature 1</text><text x="72" y="405" font-size="16" fill="#66727e" font-weight="650" text-anchor="middle" transform="rotate(-90 72 405)">feature 2</text><circle cx="180" cy="205" r="5" fill="#4477aa" fill-opacity="0.58" stroke="none" stroke-width="0"></circle><circle cx="259" cy="269" r="5" fill="#4477aa" fill-opacity="0.58" stroke="none" stroke-width="0"></circle><circle cx="338" cy="333" r="5" fill="#4477aa" fill-opacity="0.58" stroke="none" stroke-width="0"></circle><circle cx="417" cy="397" r="5" fill="#4477aa" fill-opacity="0.58" stroke="none" stroke-width="0"></circle><circle cx="496" cy="393" r="5" fill="#4477aa" fill-opacity="0.58" stroke="none" stroke-width="0"></circle><circle cx="575" cy="457" r="5" fill="#4477aa" fill-opacity="0.58" stroke="none" stroke-width="0"></circle><circle cx="654" cy="521" r="5" fill="#4477aa" fill-opacity="0.58" stroke="none" stroke-width="0"></circle><circle cx="733" cy="585" r="5" fill="#4477aa" fill-opacity="0.58" stroke="none" stroke-width="0"></circle><circle cx="812" cy="581" r="5" fill="#4477aa" fill-opacity="0.58" stroke="none" stroke-width="0"></circle><circle cx="211" cy="255" r="5" fill="#4477aa" fill-opacity="0.58" stroke="none" stroke-width="0"></circle><circle cx="290" cy="319" r="5" fill="#4477aa" fill-opacity="0.58" stroke="none" stroke-width="0"></circle><circle cx="369" cy="383" r="5" fill="#4477aa" fill-opacity="0.58" stroke="none" stroke-width="0"></circle><circle cx="448" cy="379" r="5" fill="#4477aa" fill-opacity="0.58" stroke="none" stroke-width="0"></circle><circle cx="527" cy="443" r="5" fill="#4477aa" fill-opacity="0.58" stroke="none" stroke-width="0"></circle><circle cx="606" cy="507" r="5" fill="#4477aa" fill-opacity="0.58" stroke="none" stroke-width="0"></circle><circle cx="685" cy="571" r="5" fill="#4477aa" fill-opacity="0.58" stroke="none" stroke-width="0"></circle><circle cx="764" cy="567" r="5" fill="#4477aa" fill-opacity="0.58" stroke="none" stroke-width="0"></circle><circle cx="843" cy="241" r="5" fill="#4477aa" fill-opacity="0.58" stroke="none" stroke-width="0"></circle><circle cx="242" cy="305" r="5" fill="#4477aa" fill-opacity="0.58" stroke="none" stroke-width="0"></circle><circle cx="321" cy="369" r="5" fill="#4477aa" fill-opacity="0.58" stroke="none" stroke-width="0"></circle><circle cx="400" cy="365" r="5" fill="#4477aa" fill-opacity="0.58" stroke="none" stroke-width="0"></circle><circle cx="479" cy="429" r="5" fill="#4477aa" fill-opacity="0.58" stroke="none" stroke-width="0"></circle><circle cx="558" cy="493" r="5" fill="#4477aa" fill-opacity="0.58" stroke="none" stroke-width="0"></circle><circle cx="637" cy="557" r="5" fill="#4477aa" fill-opacity="0.58" stroke="none" stroke-width="0"></circle><circle cx="716" cy="553" r="5" fill="#4477aa" fill-opacity="0.58" stroke="none" stroke-width="0"></circle><circle cx="795" cy="227" r="5" fill="#4477aa" fill-opacity="0.58" stroke="none" stroke-width="0"></circle><circle cx="194" cy="291" r="5" fill="#4477aa" fill-opacity="0.58" stroke="none" stroke-width="0"></circle><circle cx="273" cy="355" r="5" fill="#4477aa" fill-opacity="0.58" stroke="none" stroke-width="0"></circle><circle cx="352" cy="351" r="5" fill="#4477aa" fill-opacity="0.58" stroke="none" stroke-width="0"></circle><circle cx="431" cy="415" r="5" fill="#4477aa" fill-opacity="0.58" stroke="none" stroke-width="0"></circle><circle cx="510" cy="479" r="5" fill="#4477aa" fill-opacity="0.58" stroke="none" stroke-width="0"></circle><circle cx="589" cy="543" r="5" fill="#4477aa" fill-opacity="0.58" stroke="none" stroke-width="0"></circle><circle cx="668" cy="539" r="5" fill="#4477aa" fill-opacity="0.58" stroke="none" stroke-width="0"></circle><circle cx="747" cy="213" r="5" fill="#4477aa" fill-opacity="0.58" stroke="none" stroke-width="0"></circle><circle cx="826" cy="277" r="5" fill="#4477aa" fill-opacity="0.58" stroke="none" stroke-width="0"></circle><circle cx="225" cy="341" r="5" fill="#4477aa" fill-opacity="0.58" stroke="none" stroke-width="0"></circle><circle cx="304" cy="337" r="5" fill="#4477aa" fill-opacity="0.58" stroke="none" stroke-width="0"></circle><circle cx="383" cy="401" r="5" fill="#4477aa" fill-opacity="0.58" stroke="none" stroke-width="0"></circle><circle cx="462" cy="465" r="5" fill="#4477aa" fill-opacity="0.58" stroke="none" stroke-width="0"></circle><circle cx="541" cy="529" r="5" fill="#4477aa" fill-opacity="0.58" stroke="none" stroke-width="0"></circle><circle cx="620" cy="525" r="5" fill="#4477aa" fill-opacity="0.58" stroke="none" stroke-width="0"></circle><circle cx="699" cy="589" r="5" fill="#4477aa" fill-opacity="0.58" stroke="none" stroke-width="0"></circle><circle cx="778" cy="263" r="5" fill="#4477aa" fill-opacity="0.58" stroke="none" stroke-width="0"></circle><circle cx="857" cy="327" r="5" fill="#4477aa" fill-opacity="0.58" stroke="none" stroke-width="0"></circle><circle cx="256" cy="323" r="5" fill="#4477aa" fill-opacity="0.58" stroke="none" stroke-width="0"></circle><circle cx="195" cy="210" r="3.5" fill="#15212b" fill-opacity="0.86" stroke="none" stroke-width="0"></circle><circle cx="333" cy="286" r="3.5" fill="#15212b" fill-opacity="0.86" stroke="none" stroke-width="0"></circle><circle cx="471" cy="362" r="3.5" fill="#15212b" fill-opacity="0.86" stroke="none" stroke-width="0"></circle><circle cx="444" cy="438" r="3.5" fill="#15212b" fill-opacity="0.86" stroke="none" stroke-width="0"></circle><circle cx="582" cy="514" r="3.5" fill="#15212b" fill-opacity="0.86" stroke="none" stroke-width="0"></circle><circle cx="720" cy="475" r="3.5" fill="#15212b" fill-opacity="0.86" stroke="none" stroke-width="0"></circle><circle cx="693" cy="551" r="3.5" fill="#15212b" fill-opacity="0.86" stroke="none" stroke-width="0"></circle><circle cx="831" cy="242" r="3.5" fill="#15212b" fill-opacity="0.86" stroke="none" stroke-width="0"></circle><circle cx="304" cy="318" r="3.5" fill="#15212b" fill-opacity="0.86" stroke="none" stroke-width="0"></circle><circle cx="277" cy="394" r="3.5" fill="#15212b" fill-opacity="0.86" stroke="none" stroke-width="0"></circle><circle cx="415" cy="355" r="3.5" fill="#15212b" fill-opacity="0.86" stroke="none" stroke-width="0"></circle><circle cx="553" cy="431" r="3.5" fill="#15212b" fill-opacity="0.86" stroke="none" stroke-width="0"></circle><circle cx="526" cy="507" r="3.5" fill="#15212b" fill-opacity="0.86" stroke="none" stroke-width="0"></circle><circle cx="664" cy="583" r="3.5" fill="#15212b" fill-opacity="0.86" stroke="none" stroke-width="0"></circle><circle cx="802" cy="274" r="3.5" fill="#15212b" fill-opacity="0.86" stroke="none" stroke-width="0"></circle><circle cx="775" cy="235" r="3.5" fill="#15212b" fill-opacity="0.86" stroke="none" stroke-width="0"></circle><circle cx="248" cy="311" r="3.5" fill="#15212b" fill-opacity="0.86" stroke="none" stroke-width="0"></circle><circle cx="386" cy="387" r="3.5" fill="#15212b" fill-opacity="0.86" stroke="none" stroke-width="0"></circle><circle cx="359" cy="463" r="3.5" fill="#15212b" fill-opacity="0.86" stroke="none" stroke-width="0"></circle><circle cx="497" cy="539" r="3.5" fill="#15212b" fill-opacity="0.86" stroke="none" stroke-width="0"></circle><circle cx="635" cy="500" r="3.5" fill="#15212b" fill-opacity="0.86" stroke="none" stroke-width="0"></circle><circle cx="608" cy="576" r="3.5" fill="#15212b" fill-opacity="0.86" stroke="none" stroke-width="0"></circle><circle cx="746" cy="267" r="3.5" fill="#15212b" fill-opacity="0.86" stroke="none" stroke-width="0"></circle><circle cx="219" cy="343" r="3.5" fill="#15212b" fill-opacity="0.86" stroke="none" stroke-width="0"></circle><circle cx="857" cy="419" r="3.5" fill="#15212b" fill-opacity="0.86" stroke="none" stroke-width="0"></circle><circle cx="330" cy="380" r="3.5" fill="#15212b" fill-opacity="0.86" stroke="none" stroke-width="0"></circle><circle cx="468" cy="456" r="3.5" fill="#15212b" fill-opacity="0.86" stroke="none" stroke-width="0"></circle><circle cx="441" cy="532" r="3.5" fill="#15212b" fill-opacity="0.86" stroke="none" stroke-width="0"></circle><circle cx="579" cy="223" r="3.5" fill="#15212b" fill-opacity="0.86" stroke="none" stroke-width="0"></circle><circle cx="717" cy="299" r="3.5" fill="#15212b" fill-opacity="0.86" stroke="none" stroke-width="0"></circle><circle cx="690" cy="260" r="3.5" fill="#15212b" fill-opacity="0.86" stroke="none" stroke-width="0"></circle><circle cx="828" cy="336" r="3.5" fill="#15212b" fill-opacity="0.86" stroke="none" stroke-width="0"></circle><circle cx="301" cy="412" r="3.5" fill="#15212b" fill-opacity="0.86" stroke="none" stroke-width="0"></circle><circle cx="274" cy="488" r="3.5" fill="#15212b" fill-opacity="0.86" stroke="none" stroke-width="0"></circle><circle cx="412" cy="564" r="3.5" fill="#15212b" fill-opacity="0.86" stroke="none" stroke-width="0"></circle><circle cx="550" cy="525" r="3.5" fill="#15212b" fill-opacity="0.86" stroke="none" stroke-width="0"></circle><circle cx="523" cy="216" r="3.5" fill="#15212b" fill-opacity="0.86" stroke="none" stroke-width="0"></circle><circle cx="661" cy="292" r="3.5" fill="#15212b" fill-opacity="0.86" stroke="none" stroke-width="0"></circle><circle cx="799" cy="368" r="3.5" fill="#15212b" fill-opacity="0.86" stroke="none" stroke-width="0"></circle><circle cx="772" cy="444" r="3.5" fill="#15212b" fill-opacity="0.86" stroke="none" stroke-width="0"></circle><circle cx="245" cy="405" r="3.5" fill="#15212b" fill-opacity="0.86" stroke="none" stroke-width="0"></circle><circle cx="383" cy="481" r="3.5" fill="#15212b" fill-opacity="0.86" stroke="none" stroke-width="0"></circle><circle cx="356" cy="557" r="3.5" fill="#15212b" fill-opacity="0.86" stroke="none" stroke-width="0"></circle><rect x="1000" y="190" width="330" height="390" rx="16" fill="#f1efe9" fill-opacity="1" stroke="none" stroke-width="0"></rect><text x="1165" y="260" font-size="16" fill="#66727e" font-weight="750" text-anchor="middle" >Input</text><circle cx="1090" cy="310" r="6" fill="#15212b" fill-opacity="1" stroke="none" stroke-width="0"></circle><text x="1110" y="317" font-size="18" fill="#15212b" font-weight="650" text-anchor="start" >measured data</text><circle cx="1090" cy="356" r="7" fill="#4477aa" fill-opacity="0.75" stroke="none" stroke-width="0"></circle><text x="1110" y="363" font-size="18" fill="#15212b" font-weight="650" text-anchor="start" >reco simulation</text><text x="1165" y="452" font-size="20" fill="#15212b" font-weight="720" text-anchor="middle" >No truth labels</text><text x="1165" y="482" font-size="20" fill="#15212b" font-weight="720" text-anchor="middle" >are used here.</text>
</svg>
