<svg xmlns="http://www.w3.org/2000/svg" xmlns:xlink="http://www.w3.org/1999/xlink" width="1440" height="810" viewBox="0 0 1440 810">
<rect width="1440" height="810" fill="#fffefa"/>
<style>text{font-family:Arial,Helvetica,sans-serif}</style>
<defs>
  <marker id="arrowSim" markerWidth="9" markerHeight="9" refX="8" refY="4.5" orient="auto"><path d="M0 0L9 4.5 0 9Z" fill="#4477aa"/></marker>
  <marker id="arrowWeight" markerWidth="9" markerHeight="9" refX="8" refY="4.5" orient="auto"><path d="M0 0L9 4.5 0 9Z" fill="#ee8b2d"/></marker>
  <marker id="arrowTruth" markerWidth="9" markerHeight="9" refX="8" refY="4.5" orient="auto"><path d="M0 0L9 4.5 0 9Z" fill="#745fc2"/></marker>
  <marker id="arrowValid" markerWidth="9" markerHeight="9" refX="8" refY="4.5" orient="auto"><path d="M0 0L9 4.5 0 9Z" fill="#238f83"/></marker>
</defs><text x="70" y="58" font-size="13" fill="#745fc2" font-weight="800" text-anchor="start" >START FROM D’AGOSTINI IBU</text><text x="70" y="105" font-size="39" fill="#15212b" font-weight="730" text-anchor="start" >Why response matrices stop scaling</text><rect x="1234" y="43" width="136" height="34" rx="17" fill="#f1efe9" fill-opacity="1" stroke="none" stroke-width="0"></rect><text x="1302" y="66" font-size="14" fill="#66727e" font-weight="750" text-anchor="middle" >CONCEPTUAL TOY</text><rect x="62" y="728" width="1316" height="54" rx="12" fill="#f1efe9" fill-opacity="1" stroke="none" stroke-width="0"></rect><circle cx="91" cy="755" r="6" fill="#ee8b2d" fill-opacity="1" stroke="none" stroke-width="0"></circle><text x="112" y="763" font-size="22" fill="#15212b" font-weight="680" text-anchor="start" >A response matrix scales with truth states × reconstructed states.</text><text x="84" y="158" font-size="20" fill="#66727e" font-weight="700" text-anchor="start" >1 observable</text><rect x="125" y="195" width="60" height="60" rx="0" fill="#4477aa" fill-opacity="0.86" stroke="#fffefa" stroke-width="0.5"></rect><rect x="185" y="195" width="60" height="60" rx="0" fill="#4477aa" fill-opacity="0.5530939145758541" stroke="#fffefa" stroke-width="0.5"></rect><rect x="245" y="195" width="60" height="60" rx="0" fill="#4477aa" fill-opacity="0.1855615209245579" stroke="#fffefa" stroke-width="0.5"></rect><rect x="305" y="195" width="60" height="60" rx="0" fill="#4477aa" fill-opacity="0.08866501729982901" stroke="#fffefa" stroke-width="0.5"></rect><rect x="365" y="195" width="60" height="60" rx="0" fill="#4477aa" fill-opacity="0.08026166084976397" stroke="#fffefa" stroke-width="0.5"></rect><rect x="425" y="195" width="60" height="60" rx="0" fill="#4477aa" fill-opacity="0.08000290678947422" stroke="#fffefa" stroke-width="0.5"></rect><rect x="485" y="195" width="60" height="60" rx="0" fill="#4477aa" fill-opacity="0.0800000118793842" stroke="#fffefa" stroke-width="0.5"></rect><rect x="125" y="255" width="60" height="60" rx="0" fill="#4477aa" fill-opacity="0.5530939145758541" stroke="#fffefa" stroke-width="0.5"></rect><rect x="185" y="255" width="60" height="60" rx="0" fill="#4477aa" fill-opacity="0.86" stroke="#fffefa" stroke-width="0.5"></rect><rect x="245" y="255" width="60" height="60" rx="0" fill="#4477aa" fill-opacity="0.5530939145758541" stroke="#fffefa" stroke-width="0.5"></rect><rect x="305" y="255" width="60" height="60" rx="0" fill="#4477aa" fill-opacity="0.1855615209245579" stroke="#fffefa" stroke-width="0.5"></rect><rect x="365" y="255" width="60" height="60" rx="0" fill="#4477aa" fill-opacity="0.08866501729982901" stroke="#fffefa" stroke-width="0.5"></rect><rect x="425" y="255" width="60" height="60" rx="0" fill="#4477aa" fill-opacity="0.08026166084976397" stroke="#fffefa" stroke-width="0.5"></rect><rect x="485" y="255" width="60" height="60" rx="0" fill="#4477aa" fill-opacity="0.08000290678947422" stroke="#fffefa" stroke-width="0.5"></rect><rect x="125" y="315" width="60" height="60" rx="0" fill="#4477aa" fill-opacity="0.1855615209245579" stroke="#fffefa" stroke-width="0.5"></rect><rect x="185" y="315" width="60" height="60" rx="0" fill="#4477aa" fill-opacity="0.5530939145758541" stroke="#fffefa" stroke-width="0.5"></rect><rect x="245" y="315" width="60" height="60" rx="0" fill="#4477aa" fill-opacity="0.86" stroke="#fffefa" stroke-width="0.5"></rect><rect x="305" y="315" width="60" height="60" rx="0" fill="#4477aa" fill-opacity="0.5530939145758541" stroke="#fffefa" stroke-width="0.5"></rect><rect x="365" y="315" width="60" height="60" rx="0" fill="#4477aa" fill-opacity="0.1855615209245579" stroke="#fffefa" stroke-width="0.5"></rect><rect x="425" y="315" width="60" height="60" rx="0" fill="#4477aa" fill-opacity="0.08866501729982901" stroke="#fffefa" stroke-width="0.5"></rect><rect x="485" y="315" width="60" height="60" rx="0" fill="#4477aa" fill-opacity="0.08026166084976397" stroke="#fffefa" stroke-width="0.5"></rect><rect x="125" y="375" width="60" height="60" rx="0" fill="#4477aa" fill-opacity="0.08866501729982901" stroke="#fffefa" stroke-width="0.5"></rect><rect x="185" y="375" width="60" height="60" rx="0" fill="#4477aa" fill-opacity="0.1855615209245579" stroke="#fffefa" stroke-width="0.5"></rect><rect x="245" y="375" width="60" height="60" rx="0" fill="#4477aa" fill-opacity="0.5530939145758541" stroke="#fffefa" stroke-width="0.5"></rect><rect x="305" y="375" width="60" height="60" rx="0" fill="#4477aa" fill-opacity="0.86" stroke="#fffefa" stroke-width="0.5"></rect><rect x="365" y="375" width="60" height="60" rx="0" fill="#4477aa" fill-opacity="0.5530939145758541" stroke="#fffefa" stroke-width="0.5"></rect><rect x="425" y="375" width="60" height="60" rx="0" fill="#4477aa" fill-opacity="0.1855615209245579" stroke="#fffefa" stroke-width="0.5"></rect><rect x="485" y="375" width="60" height="60" rx="0" fill="#4477aa" fill-opacity="0.08866501729982901" stroke="#fffefa" stroke-width="0.5"></rect><rect x="125" y="435" width="60" height="60" rx="0" fill="#4477aa" fill-opacity="0.08026166084976397" stroke="#fffefa" stroke-width="0.5"></rect><rect x="185" y="435" width="60" height="60" rx="0" fill="#4477aa" fill-opacity="0.08866501729982901" stroke="#fffefa" stroke-width="0.5"></rect><rect x="245" y="435" width="60" height="60" rx="0" fill="#4477aa" fill-opacity="0.1855615209245579" stroke="#fffefa" stroke-width="0.5"></rect><rect x="305" y="435" width="60" height="60" rx="0" fill="#4477aa" fill-opacity="0.5530939145758541" stroke="#fffefa" stroke-width="0.5"></rect><rect x="365" y="435" width="60" height="60" rx="0" fill="#4477aa" fill-opacity="0.86" stroke="#fffefa" stroke-width="0.5"></rect><rect x="425" y="435" width="60" height="60" rx="0" fill="#4477aa" fill-opacity="0.5530939145758541" stroke="#fffefa" stroke-width="0.5"></rect><rect x="485" y="435" width="60" height="60" rx="0" fill="#4477aa" fill-opacity="0.1855615209245579" stroke="#fffefa" stroke-width="0.5"></rect><rect x="125" y="495" width="60" height="60" rx="0" fill="#4477aa" fill-opacity="0.08000290678947422" stroke="#fffefa" stroke-width="0.5"></rect><rect x="185" y="495" width="60" height="60" rx="0" fill="#4477aa" fill-opacity="0.08026166084976397" stroke="#fffefa" stroke-width="0.5"></rect><rect x="245" y="495" width="60" height="60" rx="0" fill="#4477aa" fill-opacity="0.08866501729982901" stroke="#fffefa" stroke-width="0.5"></rect><rect x="305" y="495" width="60" height="60" rx="0" fill="#4477aa" fill-opacity="0.1855615209245579" stroke="#fffefa" stroke-width="0.5"></rect><rect x="365" y="495" width="60" height="60" rx="0" fill="#4477aa" fill-opacity="0.5530939145758541" stroke="#fffefa" stroke-width="0.5"></rect><rect x="425" y="495" width="60" height="60" rx="0" fill="#4477aa" fill-opacity="0.86" stroke="#fffefa" stroke-width="0.5"></rect><rect x="485" y="495" width="60" height="60" rx="0" fill="#4477aa" fill-opacity="0.5530939145758541" stroke="#fffefa" stroke-width="0.5"></rect><rect x="125" y="555" width="60" height="60" rx="0" fill="#4477aa" fill-opacity="0.0800000118793842" stroke="#fffefa" stroke-width="0.5"></rect><rect x="185" y="555" width="60" height="60" rx="0" fill="#4477aa" fill-opacity="0.08000290678947422" stroke="#fffefa" stroke-width="0.5"></rect><rect x="245" y="555" width="60" height="60" rx="0" fill="#4477aa" fill-opacity="0.08026166084976397" stroke="#fffefa" stroke-width="0.5"></rect><rect x="305" y="555" width="60" height="60" rx="0" fill="#4477aa" fill-opacity="0.08866501729982901" stroke="#fffefa" stroke-width="0.5"></rect><rect x="365" y="555" width="60" height="60" rx="0" fill="#4477aa" fill-opacity="0.1855615209245579" stroke="#fffefa" stroke-width="0.5"></rect><rect x="425" y="555" width="60" height="60" rx="0" fill="#4477aa" fill-opacity="0.5530939145758541" stroke="#fffefa" stroke-width="0.5"></rect><rect x="485" y="555" width="60" height="60" rx="0" fill="#4477aa" fill-opacity="0.86" stroke="#fffefa" stroke-width="0.5"></rect><rect x="125" y="195" width="420" height="420" rx="1" fill="none" fill-opacity="1" stroke="#15212b" stroke-width="2"></rect><text x="335" y="649" font-size="15" fill="#66727e" font-weight="650" text-anchor="middle" >reconstructed state</text><text x="91" y="405" font-size="15" fill="#66727e" font-weight="650" text-anchor="middle" transform="rotate(-90 91 405)">truth state</text><text x="760" y="180" font-size="18" fill="#66727e" font-weight="650" text-anchor="start" >Illustration: 10 bins per axis</text><rect x="760" y="210" width="350" height="110" rx="12" fill="#fffefa" fill-opacity="1" stroke="#d8d5cd" stroke-width="1"></rect><text x="782" y="239" font-size="13" fill="#66727e" font-weight="750" text-anchor="start" >ONE OBSERVABLE</text><text x="782" y="269" font-size="18" fill="#15212b" font-weight="700" text-anchor="start" >10 truth × 10 reco</text><text x="782" y="301" font-size="22" fill="#4477aa" font-weight="760" text-anchor="start" >100 response cells</text><text x="1180" y="637" font-size="28" fill="#4477aa" font-weight="760" text-anchor="end" >response cells scale as b^2</text><text x="1180" y="666" font-size="14" fill="#66727e" font-weight="600" text-anchor="end" >b = bins per observable</text>
</svg>
