<svg xmlns="http://www.w3.org/2000/svg" xmlns:xlink="http://www.w3.org/1999/xlink" width="1440" height="810" viewBox="0 0 1440 810">
<rect width="1440" height="810" fill="#fffefa"/>
<style>text{font-family:Arial,Helvetica,sans-serif}</style>
<defs>
  <marker id="arrowSim" markerWidth="9" markerHeight="9" refX="8" refY="4.5" orient="auto"><path d="M0 0L9 4.5 0 9Z" fill="#4477aa"/></marker>
  <marker id="arrowWeight" markerWidth="9" markerHeight="9" refX="8" refY="4.5" orient="auto"><path d="M0 0L9 4.5 0 9Z" fill="#ee8b2d"/></marker>
  <marker id="arrowTruth" markerWidth="9" markerHeight="9" refX="8" refY="4.5" orient="auto"><path d="M0 0L9 4.5 0 9Z" fill="#745fc2"/></marker>
  <marker id="arrowValid" markerWidth="9" markerHeight="9" refX="8" refY="4.5" orient="auto"><path d="M0 0L9 4.5 0 9Z" fill="#238f83"/></marker>
</defs><text x="70" y="58" font-size="13" fill="#745fc2" font-weight="800" text-anchor="start" >START FROM D’AGOSTINI IBU</text><text x="70" y="105" font-size="39" fill="#15212b" font-weight="730" text-anchor="start" >Why response matrices stop scaling</text><rect x="1234" y="43" width="136" height="34" rx="17" fill="#f1efe9" fill-opacity="1" stroke="none" stroke-width="0"></rect><text x="1302" y="66" font-size="14" fill="#66727e" font-weight="750" text-anchor="middle" >CONCEPTUAL TOY</text><rect x="62" y="728" width="1316" height="54" rx="12" fill="#f1efe9" fill-opacity="1" stroke="none" stroke-width="0"></rect><circle cx="91" cy="755" r="6" fill="#ee8b2d" fill-opacity="1" stroke="none" stroke-width="0"></circle><text x="112" y="763" font-size="22" fill="#15212b" font-weight="680" text-anchor="start" >Event-level methods keep the pairs and add features as columns.</text><text x="83" y="161" font-size="17" fill="#66727e" font-weight="720" text-anchor="start" >Response-matrix representation</text><text x="790" y="161" font-size="17" fill="#66727e" font-weight="720" text-anchor="start" >Event-level representation</text><rect x="110" y="205" width="24.375" height="24.375" rx="0" fill="#4477aa" fill-opacity="0.62" stroke="#fffefa" stroke-width="0.5"></rect><rect x="134.375" y="205" width="24.375" height="24.375" rx="0" fill="#4477aa" fill-opacity="0.0803040626457124" stroke="#fffefa" stroke-width="0.5"></rect><rect x="158.75" y="205" width="24.375" height="24.375" rx="0" fill="#4477aa" fill-opacity="0.047430355293715386" stroke="#fffefa" stroke-width="0.5"></rect><rect x="183.125" y="205" width="24.375" height="24.375" rx="0" fill="#4477aa" fill-opacity="0.026431937964949144" stroke="#fffefa" stroke-width="0.5"></rect><rect x="207.5" y="205" width="24.375" height="24.375" rx="0" fill="#4477aa" fill-opacity="0.019465251111098734" stroke="#fffefa" stroke-width="0.5"></rect><rect x="231.875" y="205" width="24.375" height="24.375" rx="0" fill="#4477aa" fill-opacity="0.018154436330898215" stroke="#fffefa" stroke-width="0.5"></rect><rect x="256.25" y="205" width="24.375" height="24.375" rx="0" fill="#4477aa" fill-opacity="0.018009872784326933" stroke="#fffefa" stroke-width="0.5"></rect><rect x="280.625" y="205" width="24.375" height="24.375" rx="0" fill="#4477aa" fill-opacity="0.01800038280939137" stroke="#fffefa" stroke-width="0.5"></rect><rect x="305" y="205" width="24.375" height="24.375" rx="0" fill="#4477aa" fill-opacity="0.018000009002813976" stroke="#fffefa" stroke-width="0.5"></rect><rect x="329.375" y="205" width="24.375" height="24.375" rx="0" fill="#4477aa" fill-opacity="0.018000000128418243" stroke="#fffefa" stroke-width="0.5"></rect><rect x="353.75" y="205" width="24.375" height="24.375" rx="0" fill="#4477aa" fill-opacity="0.018000000001111034" stroke="#fffefa" stroke-width="0.5"></rect><rect x="378.125" y="205" width="24.375" height="24.375" rx="0" fill="#4477aa" fill-opacity="0.018000000000005827" stroke="#fffefa" stroke-width="0.5"></rect><rect x="402.5" y="205" width="24.375" height="24.375" rx="0" fill="#4477aa" fill-opacity="0.018000000000000016" stroke="#fffefa" stroke-width="0.5"></rect><rect x="426.875" y="205" width="24.375" height="24.375" rx="0" fill="#4477aa" fill-opacity="0.018" stroke="#fffefa" stroke-width="0.5"></rect><rect x="451.25" y="205" width="24.375" height="24.375" rx="0" fill="#4477aa" fill-opacity="0.018" stroke="#fffefa" stroke-width="0.5"></rect><rect x="475.625" y="205" width="24.375" height="24.375" rx="0" fill="#4477aa" fill-opacity="0.018" stroke="#fffefa" stroke-width="0.5"></rect><rect x="110" y="229.375" width="24.375" height="24.375" rx="0" fill="#4477aa" fill-opacity="0.0803040626457124" stroke="#fffefa" stroke-width="0.5"></rect><rect x="134.375" y="229.375" width="24.375" height="24.375" rx="0" fill="#4477aa" fill-opacity="0.098" stroke="#fffefa" stroke-width="0.5"></rect><rect x="158.75" y="229.375" width="24.375" height="24.375" rx="0" fill="#4477aa" fill-opacity="0.0803040626457124" stroke="#fffefa" stroke-width="0.5"></rect><rect x="183.125" y="229.375" width="24.375" height="24.375" rx="0" fill="#4477aa" fill-opacity="0.047430355293715386" stroke="#fffefa" stroke-width="0.5"></rect><rect x="207.5" y="229.375" width="24.375" height="24.375" rx="0" fill="#4477aa" fill-opacity="0.026431937964949144" stroke="#fffefa" stroke-width="0.5"></rect><rect x="231.875" y="229.375" width="24.375" height="24.375" rx="0" fill="#4477aa" fill-opacity="0.019465251111098734" stroke="#fffefa" stroke-width="0.5"></rect><rect x="256.25" y="229.375" width="24.375" height="24.375" rx="0" fill="#4477aa" fill-opacity="0.018154436330898215" stroke="#fffefa" stroke-width="0.5"></rect><rect x="280.625" y="229.375" width="24.375" height="24.375" rx="0" fill="#4477aa" fill-opacity="0.018009872784326933" stroke="#fffefa" stroke-width="0.5"></rect><rect x="305" y="229.375" width="24.375" height="24.375" rx="0" fill="#4477aa" fill-opacity="0.01800038280939137" stroke="#fffefa" stroke-width="0.5"></rect><rect x="329.375" y="229.375" width="24.375" height="24.375" rx="0" fill="#4477aa" fill-opacity="0.018000009002813976" stroke="#fffefa" stroke-width="0.5"></rect><rect x="353.75" y="229.375" width="24.375" height="24.375" rx="0" fill="#4477aa" fill-opacity="0.018000000128418243" stroke="#fffefa" stroke-width="0.5"></rect><rect x="378.125" y="229.375" width="24.375" height="24.375" rx="0" fill="#4477aa" fill-opacity="0.018000000001111034" stroke="#fffefa" stroke-width="0.5"></rect><rect x="402.5" y="229.375" width="24.375" height="24.375" rx="0" fill="#4477aa" fill-opacity="0.018000000000005827" stroke="#fffefa" stroke-width="0.5"></rect><rect x="426.875" y="229.375" width="24.375" height="24.375" rx="0" fill="#4477aa" fill-opacity="0.018000000000000016" stroke="#fffefa" stroke-width="0.5"></rect><rect x="451.25" y="229.375" width="24.375" height="24.375" rx="0" fill="#4477aa" fill-opacity="0.018" stroke="#fffefa" stroke-width="0.5"></rect><rect x="475.625" y="229.375" width="24.375" height="24.375" rx="0" fill="#4477aa" fill-opacity="0.018" stroke="#fffefa" stroke-width="0.5"></rect><rect x="110" y="253.75" width="24.375" height="24.375" rx="0" fill="#4477aa" fill-opacity="0.047430355293715386" stroke="#fffefa" stroke-width="0.5"></rect><rect x="134.375" y="253.75" width="24.375" height="24.375" rx="0" fill="#4477aa" fill-opacity="0.0803040626457124" stroke="#fffefa" stroke-width="0.5"></rect><rect x="158.75" y="253.75" width="24.375" height="24.375" rx="0" fill="#4477aa" fill-opacity="0.098" stroke="#fffefa" stroke-width="0.5"></rect><rect x="183.125" y="253.75" width="24.375" height="24.375" rx="0" fill="#4477aa" fill-opacity="0.0803040626457124" stroke="#fffefa" stroke-width="0.5"></rect><rect x="207.5" y="253.75" width="24.375" height="24.375" rx="0" fill="#4477aa" fill-opacity="0.047430355293715386" stroke="#fffefa" stroke-width="0.5"></rect><rect x="231.875" y="253.75" width="24.375" height="24.375" rx="0" fill="#4477aa" fill-opacity="0.026431937964949144" stroke="#fffefa" stroke-width="0.5"></rect><rect x="256.25" y="253.75" width="24.375" height="24.375" rx="0" fill="#4477aa" fill-opacity="0.019465251111098734" stroke="#fffefa" stroke-width="0.5"></rect><rect x="280.625" y="253.75" width="24.375" height="24.375" rx="0" fill="#4477aa" fill-opacity="0.018154436330898215" stroke="#fffefa" stroke-width="0.5"></rect><rect x="305" y="253.75" width="24.375" height="24.375" rx="0" fill="#4477aa" fill-opacity="0.018009872784326933" stroke="#fffefa" stroke-width="0.5"></rect><rect x="329.375" y="253.75" width="24.375" height="24.375" rx="0" fill="#4477aa" fill-opacity="0.01800038280939137" stroke="#fffefa" stroke-width="0.5"></rect><rect x="353.75" y="253.75" width="24.375" height="24.375" rx="0" fill="#4477aa" fill-opacity="0.018000009002813976" stroke="#fffefa" stroke-width="0.5"></rect><rect x="378.125" y="253.75" width="24.375" height="24.375" rx="0" fill="#4477aa" fill-opacity="0.018000000128418243" stroke="#fffefa" stroke-width="0.5"></rect><rect x="402.5" y="253.75" width="24.375" height="24.375" rx="0" fill="#4477aa" fill-opacity="0.018000000001111034" stroke="#fffefa" stroke-width="0.5"></rect><rect x="426.875" y="253.75" width="24.375" height="24.375" rx="0" fill="#4477aa" fill-opacity="0.018000000000005827" stroke="#fffefa" stroke-width="0.5"></rect><rect x="451.25" y="253.75" width="24.375" height="24.375" rx="0" fill="#4477aa" fill-opacity="0.018000000000000016" stroke="#fffefa" stroke-width="0.5"></rect><rect x="475.625" y="253.75" width="24.375" height="24.375" rx="0" fill="#4477aa" fill-opacity="0.018" stroke="#fffefa" stroke-width="0.5"></rect><rect x="110" y="278.125" width="24.375" height="24.375" rx="0" fill="#4477aa" fill-opacity="0.026431937964949144" stroke="#fffefa" stroke-width="0.5"></rect><rect x="134.375" y="278.125" width="24.375" height="24.375" rx="0" fill="#4477aa" fill-opacity="0.047430355293715386" stroke="#fffefa" stroke-width="0.5"></rect><rect x="158.75" y="278.125" width="24.375" height="24.375" rx="0" fill="#4477aa" fill-opacity="0.0803040626457124" stroke="#fffefa" stroke-width="0.5"></rect><rect x="183.125" y="278.125" width="24.375" height="24.375" rx="0" fill="#4477aa" fill-opacity="0.098" stroke="#fffefa" stroke-width="0.5"></rect><rect x="207.5" y="278.125" width="24.375" height="24.375" rx="0" fill="#4477aa" fill-opacity="0.0803040626457124" stroke="#fffefa" stroke-width="0.5"></rect><rect x="231.875" y="278.125" width="24.375" height="24.375" rx="0" fill="#4477aa" fill-opacity="0.047430355293715386" stroke="#fffefa" stroke-width="0.5"></rect><rect x="256.25" y="278.125" width="24.375" height="24.375" rx="0" fill="#4477aa" fill-opacity="0.026431937964949144" stroke="#fffefa" stroke-width="0.5"></rect><rect x="280.625" y="278.125" width="24.375" height="24.375" rx="0" fill="#4477aa" fill-opacity="0.019465251111098734" stroke="#fffefa" stroke-width="0.5"></rect><rect x="305" y="278.125" width="24.375" height="24.375" rx="0" fill="#4477aa" fill-opacity="0.018154436330898215" stroke="#fffefa" stroke-width="0.5"></rect><rect x="329.375" y="278.125" width="24.375" height="24.375" rx="0" fill="#4477aa" fill-opacity="0.018009872784326933" stroke="#fffefa" stroke-width="0.5"></rect><rect x="353.75" y="278.125" width="24.375" height="24.375" rx="0" fill="#4477aa" fill-opacity="0.01800038280939137" stroke="#fffefa" stroke-width="0.5"></rect><rect x="378.125" y="278.125" width="24.375" height="24.375" rx="0" fill="#4477aa" fill-opacity="0.018000009002813976" stroke="#fffefa" stroke-width="0.5"></rect><rect x="402.5" y="278.125" width="24.375" height="24.375" rx="0" fill="#4477aa" fill-opacity="0.018000000128418243" stroke="#fffefa" stroke-width="0.5"></rect><rect x="426.875" y="278.125" width="24.375" height="24.375" rx="0" fill="#4477aa" fill-opacity="0.018000000001111034" stroke="#fffefa" stroke-width="0.5"></rect><rect x="451.25" y="278.125" width="24.375" height="24.375" rx="0" fill="#4477aa" fill-opacity="0.018000000000005827" stroke="#fffefa" stroke-width="0.5"></rect><rect x="475.625" y="278.125" width="24.375" height="24.375" rx="0" fill="#4477aa" fill-opacity="0.018000000000000016" stroke="#fffefa" stroke-width="0.5"></rect><rect x="110" y="302.5" width="24.375" height="24.375" rx="0" fill="#4477aa" fill-opacity="0.019465251111098734" stroke="#fffefa" stroke-width="0.5"></rect><rect x="134.375" y="302.5" width="24.375" height="24.375" rx="0" fill="#4477aa" fill-opacity="0.026431937964949144" stroke="#fffefa" stroke-width="0.5"></rect><rect x="158.75" y="302.5" width="24.375" height="24.375" rx="0" fill="#4477aa" fill-opacity="0.047430355293715386" stroke="#fffefa" stroke-width="0.5"></rect><rect x="183.125" y="302.5" width="24.375" height="24.375" rx="0" fill="#4477aa" fill-opacity="0.0803040626457124" stroke="#fffefa" stroke-width="0.5"></rect><rect x="207.5" y="302.5" width="24.375" height="24.375" rx="0" fill="#4477aa" fill-opacity="0.098" stroke="#fffefa" stroke-width="0.5"></rect><rect x="231.875" y="302.5" width="24.375" height="24.375" rx="0" fill="#4477aa" fill-opacity="0.0803040626457124" stroke="#fffefa" stroke-width="0.5"></rect><rect x="256.25" y="302.5" width="24.375" height="24.375" rx="0" fill="#4477aa" fill-opacity="0.047430355293715386" stroke="#fffefa" stroke-width="0.5"></rect><rect x="280.625" y="302.5" width="24.375" height="24.375" rx="0" fill="#4477aa" fill-opacity="0.026431937964949144" stroke="#fffefa" stroke-width="0.5"></rect><rect x="305" y="302.5" width="24.375" height="24.375" rx="0" fill="#4477aa" fill-opacity="0.019465251111098734" stroke="#fffefa" stroke-width="0.5"></rect><rect x="329.375" y="302.5" width="24.375" height="24.375" rx="0" fill="#4477aa" fill-opacity="0.018154436330898215" stroke="#fffefa" stroke-width="0.5"></rect><rect x="353.75" y="302.5" width="24.375" height="24.375" rx="0" fill="#4477aa" fill-opacity="0.018009872784326933" stroke="#fffefa" stroke-width="0.5"></rect><rect x="378.125" y="302.5" width="24.375" height="24.375" rx="0" fill="#4477aa" fill-opacity="0.01800038280939137" stroke="#fffefa" stroke-width="0.5"></rect><rect x="402.5" y="302.5" width="24.375" height="24.375" rx="0" fill="#4477aa" fill-opacity="0.018000009002813976" stroke="#fffefa" stroke-width="0.5"></rect><rect x="426.875" y="302.5" width="24.375" height="24.375" rx="0" fill="#4477aa" fill-opacity="0.018000000128418243" stroke="#fffefa" stroke-width="0.5"></rect><rect x="451.25" y="302.5" width="24.375" height="24.375" rx="0" fill="#4477aa" fill-opacity="0.018000000001111034" stroke="#fffefa" stroke-width="0.5"></rect><rect x="475.625" y="302.5" width="24.375" height="24.375" rx="0" fill="#4477aa" fill-opacity="0.018000000000005827" stroke="#fffefa" stroke-width="0.5"></rect><rect x="110" y="326.875" width="24.375" height="24.375" rx="0" fill="#4477aa" fill-opacity="0.018154436330898215" stroke="#fffefa" stroke-width="0.5"></rect><rect x="134.375" y="326.875" width="24.375" height="24.375" rx="0" fill="#4477aa" fill-opacity="0.019465251111098734" stroke="#fffefa" stroke-width="0.5"></rect><rect x="158.75" y="326.875" width="24.375" height="24.375" rx="0" fill="#4477aa" fill-opacity="0.026431937964949144" stroke="#fffefa" stroke-width="0.5"></rect><rect x="183.125" y="326.875" width="24.375" height="24.375" rx="0" fill="#4477aa" fill-opacity="0.047430355293715386" stroke="#fffefa" stroke-width="0.5"></rect><rect x="207.5" y="326.875" width="24.375" height="24.375" rx="0" fill="#4477aa" fill-opacity="0.0803040626457124" stroke="#fffefa" stroke-width="0.5"></rect><rect x="231.875" y="326.875" width="24.375" height="24.375" rx="0" fill="#4477aa" fill-opacity="0.098" stroke="#fffefa" stroke-width="0.5"></rect><rect x="256.25" y="326.875" width="24.375" height="24.375" rx="0" fill="#4477aa" fill-opacity="0.0803040626457124" stroke="#fffefa" stroke-width="0.5"></rect><rect x="280.625" y="326.875" width="24.375" height="24.375" rx="0" fill="#4477aa" fill-opacity="0.047430355293715386" stroke="#fffefa" stroke-width="0.5"></rect><rect x="305" y="326.875" width="24.375" height="24.375" rx="0" fill="#4477aa" fill-opacity="0.026431937964949144" stroke="#fffefa" stroke-width="0.5"></rect><rect x="329.375" y="326.875" width="24.375" height="24.375" rx="0" fill="#4477aa" fill-opacity="0.019465251111098734" stroke="#fffefa" stroke-width="0.5"></rect><rect x="353.75" y="326.875" width="24.375" height="24.375" rx="0" fill="#4477aa" fill-opacity="0.018154436330898215" stroke="#fffefa" stroke-width="0.5"></rect><rect x="378.125" y="326.875" width="24.375" height="24.375" rx="0" fill="#4477aa" fill-opacity="0.018009872784326933" stroke="#fffefa" stroke-width="0.5"></rect><rect x="402.5" y="326.875" width="24.375" height="24.375" rx="0" fill="#4477aa" fill-opacity="0.62" stroke="#fffefa" stroke-width="0.5"></rect><rect x="426.875" y="326.875" width="24.375" height="24.375" rx="0" fill="#4477aa" fill-opacity="0.018000009002813976" stroke="#fffefa" stroke-width="0.5"></rect><rect x="451.25" y="326.875" width="24.375" height="24.375" rx="0" fill="#4477aa" fill-opacity="0.018000000128418243" stroke="#fffefa" stroke-width="0.5"></rect><rect x="475.625" y="326.875" width="24.375" height="24.375" rx="0" fill="#4477aa" fill-opacity="0.018000000001111034" stroke="#fffefa" stroke-width="0.5"></rect><rect x="110" y="351.25" width="24.375" height="24.375" rx="0" fill="#4477aa" fill-opacity="0.018009872784326933" stroke="#fffefa" stroke-width="0.5"></rect><rect x="134.375" y="351.25" width="24.375" height="24.375" rx="0" fill="#4477aa" fill-opacity="0.018154436330898215" stroke="#fffefa" stroke-width="0.5"></rect><rect x="158.75" y="351.25" width="24.375" height="24.375" rx="0" fill="#4477aa" fill-opacity="0.019465251111098734" stroke="#fffefa" stroke-width="0.5"></rect><rect x="183.125" y="351.25" width="24.375" height="24.375" rx="0" fill="#4477aa" fill-opacity="0.026431937964949144" stroke="#fffefa" stroke-width="0.5"></rect><rect x="207.5" y="351.25" width="24.375" height="24.375" rx="0" fill="#4477aa" fill-opacity="0.047430355293715386" stroke="#fffefa" stroke-width="0.5"></rect><rect x="231.875" y="351.25" width="24.375" height="24.375" rx="0" fill="#4477aa" fill-opacity="0.0803040626457124" stroke="#fffefa" stroke-width="0.5"></rect><rect x="256.25" y="351.25" width="24.375" height="24.375" rx="0" fill="#4477aa" fill-opacity="0.098" stroke="#fffefa" stroke-width="0.5"></rect><rect x="280.625" y="351.25" width="24.375" height="24.375" rx="0" fill="#4477aa" fill-opacity="0.62" stroke="#fffefa" stroke-width="0.5"></rect><rect x="305" y="351.25" width="24.375" height="24.375" rx="0" fill="#4477aa" fill-opacity="0.047430355293715386" stroke="#fffefa" stroke-width="0.5"></rect><rect x="329.375" y="351.25" width="24.375" height="24.375" rx="0" fill="#4477aa" fill-opacity="0.026431937964949144" stroke="#fffefa" stroke-width="0.5"></rect><rect x="353.75" y="351.25" width="24.375" height="24.375" rx="0" fill="#4477aa" fill-opacity="0.019465251111098734" stroke="#fffefa" stroke-width="0.5"></rect><rect x="378.125" y="351.25" width="24.375" height="24.375" rx="0" fill="#4477aa" fill-opacity="0.018154436330898215" stroke="#fffefa" stroke-width="0.5"></rect><rect x="402.5" y="351.25" width="24.375" height="24.375" rx="0" fill="#4477aa" fill-opacity="0.018009872784326933" stroke="#fffefa" stroke-width="0.5"></rect><rect x="426.875" y="351.25" width="24.375" height="24.375" rx="0" fill="#4477aa" fill-opacity="0.01800038280939137" stroke="#fffefa" stroke-width="0.5"></rect><rect x="451.25" y="351.25" width="24.375" height="24.375" rx="0" fill="#4477aa" fill-opacity="0.018000009002813976" stroke="#fffefa" stroke-width="0.5"></rect><rect x="475.625" y="351.25" width="24.375" height="24.375" rx="0" fill="#4477aa" fill-opacity="0.018000000128418243" stroke="#fffefa" stroke-width="0.5"></rect><rect x="110" y="375.625" width="24.375" height="24.375" rx="0" fill="#4477aa" fill-opacity="0.01800038280939137" stroke="#fffefa" stroke-width="0.5"></rect><rect x="134.375" y="375.625" width="24.375" height="24.375" rx="0" fill="#4477aa" fill-opacity="0.018009872784326933" stroke="#fffefa" stroke-width="0.5"></rect><rect x="158.75" y="375.625" width="24.375" height="24.375" rx="0" fill="#4477aa" fill-opacity="0.62" stroke="#fffefa" stroke-width="0.5"></rect><rect x="183.125" y="375.625" width="24.375" height="24.375" rx="0" fill="#4477aa" fill-opacity="0.019465251111098734" stroke="#fffefa" stroke-width="0.5"></rect><rect x="207.5" y="375.625" width="24.375" height="24.375" rx="0" fill="#4477aa" fill-opacity="0.026431937964949144" stroke="#fffefa" stroke-width="0.5"></rect><rect x="231.875" y="375.625" width="24.375" height="24.375" rx="0" fill="#4477aa" fill-opacity="0.047430355293715386" stroke="#fffefa" stroke-width="0.5"></rect><rect x="256.25" y="375.625" width="24.375" height="24.375" rx="0" fill="#4477aa" fill-opacity="0.0803040626457124" stroke="#fffefa" stroke-width="0.5"></rect><rect x="280.625" y="375.625" width="24.375" height="24.375" rx="0" fill="#4477aa" fill-opacity="0.098" stroke="#fffefa" stroke-width="0.5"></rect><rect x="305" y="375.625" width="24.375" height="24.375" rx="0" fill="#4477aa" fill-opacity="0.0803040626457124" stroke="#fffefa" stroke-width="0.5"></rect><rect x="329.375" y="375.625" width="24.375" height="24.375" rx="0" fill="#4477aa" fill-opacity="0.047430355293715386" stroke="#fffefa" stroke-width="0.5"></rect><rect x="353.75" y="375.625" width="24.375" height="24.375" rx="0" fill="#4477aa" fill-opacity="0.026431937964949144" stroke="#fffefa" stroke-width="0.5"></rect><rect x="378.125" y="375.625" width="24.375" height="24.375" rx="0" fill="#4477aa" fill-opacity="0.019465251111098734" stroke="#fffefa" stroke-width="0.5"></rect><rect x="402.5" y="375.625" width="24.375" height="24.375" rx="0" fill="#4477aa" fill-opacity="0.018154436330898215" stroke="#fffefa" stroke-width="0.5"></rect><rect x="426.875" y="375.625" width="24.375" height="24.375" rx="0" fill="#4477aa" fill-opacity="0.018009872784326933" stroke="#fffefa" stroke-width="0.5"></rect><rect x="451.25" y="375.625" width="24.375" height="24.375" rx="0" fill="#4477aa" fill-opacity="0.01800038280939137" stroke="#fffefa" stroke-width="0.5"></rect><rect x="475.625" y="375.625" width="24.375" height="24.375" rx="0" fill="#4477aa" fill-opacity="0.018000009002813976" stroke="#fffefa" stroke-width="0.5"></rect><rect x="110" y="400" width="24.375" height="24.375" rx="0" fill="#4477aa" fill-opacity="0.018000009002813976" stroke="#fffefa" stroke-width="0.5"></rect><rect x="134.375" y="400" width="24.375" height="24.375" rx="0" fill="#4477aa" fill-opacity="0.01800038280939137" stroke="#fffefa" stroke-width="0.5"></rect><rect x="158.75" y="400" width="24.375" height="24.375" rx="0" fill="#4477aa" fill-opacity="0.018009872784326933" stroke="#fffefa" stroke-width="0.5"></rect><rect x="183.125" y="400" width="24.375" height="24.375" rx="0" fill="#4477aa" fill-opacity="0.018154436330898215" stroke="#fffefa" stroke-width="0.5"></rect><rect x="207.5" y="400" width="24.375" height="24.375" rx="0" fill="#4477aa" fill-opacity="0.019465251111098734" stroke="#fffefa" stroke-width="0.5"></rect><rect x="231.875" y="400" width="24.375" height="24.375" rx="0" fill="#4477aa" fill-opacity="0.026431937964949144" stroke="#fffefa" stroke-width="0.5"></rect><rect x="256.25" y="400" width="24.375" height="24.375" rx="0" fill="#4477aa" fill-opacity="0.047430355293715386" stroke="#fffefa" stroke-width="0.5"></rect><rect x="280.625" y="400" width="24.375" height="24.375" rx="0" fill="#4477aa" fill-opacity="0.0803040626457124" stroke="#fffefa" stroke-width="0.5"></rect><rect x="305" y="400" width="24.375" height="24.375" rx="0" fill="#4477aa" fill-opacity="0.098" stroke="#fffefa" stroke-width="0.5"></rect><rect x="329.375" y="400" width="24.375" height="24.375" rx="0" fill="#4477aa" fill-opacity="0.0803040626457124" stroke="#fffefa" stroke-width="0.5"></rect><rect x="353.75" y="400" width="24.375" height="24.375" rx="0" fill="#4477aa" fill-opacity="0.047430355293715386" stroke="#fffefa" stroke-width="0.5"></rect><rect x="378.125" y="400" width="24.375" height="24.375" rx="0" fill="#4477aa" fill-opacity="0.026431937964949144" stroke="#fffefa" stroke-width="0.5"></rect><rect x="402.5" y="400" width="24.375" height="24.375" rx="0" fill="#4477aa" fill-opacity="0.019465251111098734" stroke="#fffefa" stroke-width="0.5"></rect><rect x="426.875" y="400" width="24.375" height="24.375" rx="0" fill="#4477aa" fill-opacity="0.018154436330898215" stroke="#fffefa" stroke-width="0.5"></rect><rect x="451.25" y="400" width="24.375" height="24.375" rx="0" fill="#4477aa" fill-opacity="0.018009872784326933" stroke="#fffefa" stroke-width="0.5"></rect><rect x="475.625" y="400" width="24.375" height="24.375" rx="0" fill="#4477aa" fill-opacity="0.01800038280939137" stroke="#fffefa" stroke-width="0.5"></rect><rect x="110" y="424.375" width="24.375" height="24.375" rx="0" fill="#4477aa" fill-opacity="0.018000000128418243" stroke="#fffefa" stroke-width="0.5"></rect><rect x="134.375" y="424.375" width="24.375" height="24.375" rx="0" fill="#4477aa" fill-opacity="0.018000009002813976" stroke="#fffefa" stroke-width="0.5"></rect><rect x="158.75" y="424.375" width="24.375" height="24.375" rx="0" fill="#4477aa" fill-opacity="0.01800038280939137" stroke="#fffefa" stroke-width="0.5"></rect><rect x="183.125" y="424.375" width="24.375" height="24.375" rx="0" fill="#4477aa" fill-opacity="0.018009872784326933" stroke="#fffefa" stroke-width="0.5"></rect><rect x="207.5" y="424.375" width="24.375" height="24.375" rx="0" fill="#4477aa" fill-opacity="0.018154436330898215" stroke="#fffefa" stroke-width="0.5"></rect><rect x="231.875" y="424.375" width="24.375" height="24.375" rx="0" fill="#4477aa" fill-opacity="0.019465251111098734" stroke="#fffefa" stroke-width="0.5"></rect><rect x="256.25" y="424.375" width="24.375" height="24.375" rx="0" fill="#4477aa" fill-opacity="0.026431937964949144" stroke="#fffefa" stroke-width="0.5"></rect><rect x="280.625" y="424.375" width="24.375" height="24.375" rx="0" fill="#4477aa" fill-opacity="0.047430355293715386" stroke="#fffefa" stroke-width="0.5"></rect><rect x="305" y="424.375" width="24.375" height="24.375" rx="0" fill="#4477aa" fill-opacity="0.0803040626457124" stroke="#fffefa" stroke-width="0.5"></rect><rect x="329.375" y="424.375" width="24.375" height="24.375" rx="0" fill="#4477aa" fill-opacity="0.098" stroke="#fffefa" stroke-width="0.5"></rect><rect x="353.75" y="424.375" width="24.375" height="24.375" rx="0" fill="#4477aa" fill-opacity="0.0803040626457124" stroke="#fffefa" stroke-width="0.5"></rect><rect x="378.125" y="424.375" width="24.375" height="24.375" rx="0" fill="#4477aa" fill-opacity="0.047430355293715386" stroke="#fffefa" stroke-width="0.5"></rect><rect x="402.5" y="424.375" width="24.375" height="24.375" rx="0" fill="#4477aa" fill-opacity="0.026431937964949144" stroke="#fffefa" stroke-width="0.5"></rect><rect x="426.875" y="424.375" width="24.375" height="24.375" rx="0" fill="#4477aa" fill-opacity="0.019465251111098734" stroke="#fffefa" stroke-width="0.5"></rect><rect x="451.25" y="424.375" width="24.375" height="24.375" rx="0" fill="#4477aa" fill-opacity="0.018154436330898215" stroke="#fffefa" stroke-width="0.5"></rect><rect x="475.625" y="424.375" width="24.375" height="24.375" rx="0" fill="#4477aa" fill-opacity="0.018009872784326933" stroke="#fffefa" stroke-width="0.5"></rect><rect x="110" y="448.75" width="24.375" height="24.375" rx="0" fill="#4477aa" fill-opacity="0.018000000001111034" stroke="#fffefa" stroke-width="0.5"></rect><rect x="134.375" y="448.75" width="24.375" height="24.375" rx="0" fill="#4477aa" fill-opacity="0.018000000128418243" stroke="#fffefa" stroke-width="0.5"></rect><rect x="158.75" y="448.75" width="24.375" height="24.375" rx="0" fill="#4477aa" fill-opacity="0.018000009002813976" stroke="#fffefa" stroke-width="0.5"></rect><rect x="183.125" y="448.75" width="24.375" height="24.375" rx="0" fill="#4477aa" fill-opacity="0.01800038280939137" stroke="#fffefa" stroke-width="0.5"></rect><rect x="207.5" y="448.75" width="24.375" height="24.375" rx="0" fill="#4477aa" fill-opacity="0.018009872784326933" stroke="#fffefa" stroke-width="0.5"></rect><rect x="231.875" y="448.75" width="24.375" height="24.375" rx="0" fill="#4477aa" fill-opacity="0.018154436330898215" stroke="#fffefa" stroke-width="0.5"></rect><rect x="256.25" y="448.75" width="24.375" height="24.375" rx="0" fill="#4477aa" fill-opacity="0.019465251111098734" stroke="#fffefa" stroke-width="0.5"></rect><rect x="280.625" y="448.75" width="24.375" height="24.375" rx="0" fill="#4477aa" fill-opacity="0.026431937964949144" stroke="#fffefa" stroke-width="0.5"></rect><rect x="305" y="448.75" width="24.375" height="24.375" rx="0" fill="#4477aa" fill-opacity="0.047430355293715386" stroke="#fffefa" stroke-width="0.5"></rect><rect x="329.375" y="448.75" width="24.375" height="24.375" rx="0" fill="#4477aa" fill-opacity="0.0803040626457124" stroke="#fffefa" stroke-width="0.5"></rect><rect x="353.75" y="448.75" width="24.375" height="24.375" rx="0" fill="#4477aa" fill-opacity="0.098" stroke="#fffefa" stroke-width="0.5"></rect><rect x="378.125" y="448.75" width="24.375" height="24.375" rx="0" fill="#4477aa" fill-opacity="0.0803040626457124" stroke="#fffefa" stroke-width="0.5"></rect><rect x="402.5" y="448.75" width="24.375" height="24.375" rx="0" fill="#4477aa" fill-opacity="0.047430355293715386" stroke="#fffefa" stroke-width="0.5"></rect><rect x="426.875" y="448.75" width="24.375" height="24.375" rx="0" fill="#4477aa" fill-opacity="0.026431937964949144" stroke="#fffefa" stroke-width="0.5"></rect><rect x="451.25" y="448.75" width="24.375" height="24.375" rx="0" fill="#4477aa" fill-opacity="0.019465251111098734" stroke="#fffefa" stroke-width="0.5"></rect><rect x="475.625" y="448.75" width="24.375" height="24.375" rx="0" fill="#4477aa" fill-opacity="0.018154436330898215" stroke="#fffefa" stroke-width="0.5"></rect><rect x="110" y="473.125" width="24.375" height="24.375" rx="0" fill="#4477aa" fill-opacity="0.018000000000005827" stroke="#fffefa" stroke-width="0.5"></rect><rect x="134.375" y="473.125" width="24.375" height="24.375" rx="0" fill="#4477aa" fill-opacity="0.018000000001111034" stroke="#fffefa" stroke-width="0.5"></rect><rect x="158.75" y="473.125" width="24.375" height="24.375" rx="0" fill="#4477aa" fill-opacity="0.018000000128418243" stroke="#fffefa" stroke-width="0.5"></rect><rect x="183.125" y="473.125" width="24.375" height="24.375" rx="0" fill="#4477aa" fill-opacity="0.018000009002813976" stroke="#fffefa" stroke-width="0.5"></rect><rect x="207.5" y="473.125" width="24.375" height="24.375" rx="0" fill="#4477aa" fill-opacity="0.01800038280939137" stroke="#fffefa" stroke-width="0.5"></rect><rect x="231.875" y="473.125" width="24.375" height="24.375" rx="0" fill="#4477aa" fill-opacity="0.018009872784326933" stroke="#fffefa" stroke-width="0.5"></rect><rect x="256.25" y="473.125" width="24.375" height="24.375" rx="0" fill="#4477aa" fill-opacity="0.018154436330898215" stroke="#fffefa" stroke-width="0.5"></rect><rect x="280.625" y="473.125" width="24.375" height="24.375" rx="0" fill="#4477aa" fill-opacity="0.019465251111098734" stroke="#fffefa" stroke-width="0.5"></rect><rect x="305" y="473.125" width="24.375" height="24.375" rx="0" fill="#4477aa" fill-opacity="0.026431937964949144" stroke="#fffefa" stroke-width="0.5"></rect><rect x="329.375" y="473.125" width="24.375" height="24.375" rx="0" fill="#4477aa" fill-opacity="0.047430355293715386" stroke="#fffefa" stroke-width="0.5"></rect><rect x="353.75" y="473.125" width="24.375" height="24.375" rx="0" fill="#4477aa" fill-opacity="0.0803040626457124" stroke="#fffefa" stroke-width="0.5"></rect><rect x="378.125" y="473.125" width="24.375" height="24.375" rx="0" fill="#4477aa" fill-opacity="0.098" stroke="#fffefa" stroke-width="0.5"></rect><rect x="402.5" y="473.125" width="24.375" height="24.375" rx="0" fill="#4477aa" fill-opacity="0.0803040626457124" stroke="#fffefa" stroke-width="0.5"></rect><rect x="426.875" y="473.125" width="24.375" height="24.375" rx="0" fill="#4477aa" fill-opacity="0.047430355293715386" stroke="#fffefa" stroke-width="0.5"></rect><rect x="451.25" y="473.125" width="24.375" height="24.375" rx="0" fill="#4477aa" fill-opacity="0.026431937964949144" stroke="#fffefa" stroke-width="0.5"></rect><rect x="475.625" y="473.125" width="24.375" height="24.375" rx="0" fill="#4477aa" fill-opacity="0.019465251111098734" stroke="#fffefa" stroke-width="0.5"></rect><rect x="110" y="497.5" width="24.375" height="24.375" rx="0" fill="#4477aa" fill-opacity="0.018000000000000016" stroke="#fffefa" stroke-width="0.5"></rect><rect x="134.375" y="497.5" width="24.375" height="24.375" rx="0" fill="#4477aa" fill-opacity="0.018000000000005827" stroke="#fffefa" stroke-width="0.5"></rect><rect x="158.75" y="497.5" width="24.375" height="24.375" rx="0" fill="#4477aa" fill-opacity="0.018000000001111034" stroke="#fffefa" stroke-width="0.5"></rect><rect x="183.125" y="497.5" width="24.375" height="24.375" rx="0" fill="#4477aa" fill-opacity="0.018000000128418243" stroke="#fffefa" stroke-width="0.5"></rect><rect x="207.5" y="497.5" width="24.375" height="24.375" rx="0" fill="#4477aa" fill-opacity="0.018000009002813976" stroke="#fffefa" stroke-width="0.5"></rect><rect x="231.875" y="497.5" width="24.375" height="24.375" rx="0" fill="#4477aa" fill-opacity="0.01800038280939137" stroke="#fffefa" stroke-width="0.5"></rect><rect x="256.25" y="497.5" width="24.375" height="24.375" rx="0" fill="#4477aa" fill-opacity="0.018009872784326933" stroke="#fffefa" stroke-width="0.5"></rect><rect x="280.625" y="497.5" width="24.375" height="24.375" rx="0" fill="#4477aa" fill-opacity="0.018154436330898215" stroke="#fffefa" stroke-width="0.5"></rect><rect x="305" y="497.5" width="24.375" height="24.375" rx="0" fill="#4477aa" fill-opacity="0.019465251111098734" stroke="#fffefa" stroke-width="0.5"></rect><rect x="329.375" y="497.5" width="24.375" height="24.375" rx="0" fill="#4477aa" fill-opacity="0.026431937964949144" stroke="#fffefa" stroke-width="0.5"></rect><rect x="353.75" y="497.5" width="24.375" height="24.375" rx="0" fill="#4477aa" fill-opacity="0.047430355293715386" stroke="#fffefa" stroke-width="0.5"></rect><rect x="378.125" y="497.5" width="24.375" height="24.375" rx="0" fill="#4477aa" fill-opacity="0.0803040626457124" stroke="#fffefa" stroke-width="0.5"></rect><rect x="402.5" y="497.5" width="24.375" height="24.375" rx="0" fill="#4477aa" fill-opacity="0.098" stroke="#fffefa" stroke-width="0.5"></rect><rect x="426.875" y="497.5" width="24.375" height="24.375" rx="0" fill="#4477aa" fill-opacity="0.0803040626457124" stroke="#fffefa" stroke-width="0.5"></rect><rect x="451.25" y="497.5" width="24.375" height="24.375" rx="0" fill="#4477aa" fill-opacity="0.62" stroke="#fffefa" stroke-width="0.5"></rect><rect x="475.625" y="497.5" width="24.375" height="24.375" rx="0" fill="#4477aa" fill-opacity="0.026431937964949144" stroke="#fffefa" stroke-width="0.5"></rect><rect x="110" y="521.875" width="24.375" height="24.375" rx="0" fill="#4477aa" fill-opacity="0.018" stroke="#fffefa" stroke-width="0.5"></rect><rect x="134.375" y="521.875" width="24.375" height="24.375" rx="0" fill="#4477aa" fill-opacity="0.018000000000000016" stroke="#fffefa" stroke-width="0.5"></rect><rect x="158.75" y="521.875" width="24.375" height="24.375" rx="0" fill="#4477aa" fill-opacity="0.018000000000005827" stroke="#fffefa" stroke-width="0.5"></rect><rect x="183.125" y="521.875" width="24.375" height="24.375" rx="0" fill="#4477aa" fill-opacity="0.018000000001111034" stroke="#fffefa" stroke-width="0.5"></rect><rect x="207.5" y="521.875" width="24.375" height="24.375" rx="0" fill="#4477aa" fill-opacity="0.018000000128418243" stroke="#fffefa" stroke-width="0.5"></rect><rect x="231.875" y="521.875" width="24.375" height="24.375" rx="0" fill="#4477aa" fill-opacity="0.018000009002813976" stroke="#fffefa" stroke-width="0.5"></rect><rect x="256.25" y="521.875" width="24.375" height="24.375" rx="0" fill="#4477aa" fill-opacity="0.01800038280939137" stroke="#fffefa" stroke-width="0.5"></rect><rect x="280.625" y="521.875" width="24.375" height="24.375" rx="0" fill="#4477aa" fill-opacity="0.018009872784326933" stroke="#fffefa" stroke-width="0.5"></rect><rect x="305" y="521.875" width="24.375" height="24.375" rx="0" fill="#4477aa" fill-opacity="0.018154436330898215" stroke="#fffefa" stroke-width="0.5"></rect><rect x="329.375" y="521.875" width="24.375" height="24.375" rx="0" fill="#4477aa" fill-opacity="0.62" stroke="#fffefa" stroke-width="0.5"></rect><rect x="353.75" y="521.875" width="24.375" height="24.375" rx="0" fill="#4477aa" fill-opacity="0.026431937964949144" stroke="#fffefa" stroke-width="0.5"></rect><rect x="378.125" y="521.875" width="24.375" height="24.375" rx="0" fill="#4477aa" fill-opacity="0.047430355293715386" stroke="#fffefa" stroke-width="0.5"></rect><rect x="402.5" y="521.875" width="24.375" height="24.375" rx="0" fill="#4477aa" fill-opacity="0.0803040626457124" stroke="#fffefa" stroke-width="0.5"></rect><rect x="426.875" y="521.875" width="24.375" height="24.375" rx="0" fill="#4477aa" fill-opacity="0.098" stroke="#fffefa" stroke-width="0.5"></rect><rect x="451.25" y="521.875" width="24.375" height="24.375" rx="0" fill="#4477aa" fill-opacity="0.0803040626457124" stroke="#fffefa" stroke-width="0.5"></rect><rect x="475.625" y="521.875" width="24.375" height="24.375" rx="0" fill="#4477aa" fill-opacity="0.047430355293715386" stroke="#fffefa" stroke-width="0.5"></rect><rect x="110" y="546.25" width="24.375" height="24.375" rx="0" fill="#4477aa" fill-opacity="0.018" stroke="#fffefa" stroke-width="0.5"></rect><rect x="134.375" y="546.25" width="24.375" height="24.375" rx="0" fill="#4477aa" fill-opacity="0.018" stroke="#fffefa" stroke-width="0.5"></rect><rect x="158.75" y="546.25" width="24.375" height="24.375" rx="0" fill="#4477aa" fill-opacity="0.018000000000000016" stroke="#fffefa" stroke-width="0.5"></rect><rect x="183.125" y="546.25" width="24.375" height="24.375" rx="0" fill="#4477aa" fill-opacity="0.018000000000005827" stroke="#fffefa" stroke-width="0.5"></rect><rect x="207.5" y="546.25" width="24.375" height="24.375" rx="0" fill="#4477aa" fill-opacity="0.62" stroke="#fffefa" stroke-width="0.5"></rect><rect x="231.875" y="546.25" width="24.375" height="24.375" rx="0" fill="#4477aa" fill-opacity="0.018000000128418243" stroke="#fffefa" stroke-width="0.5"></rect><rect x="256.25" y="546.25" width="24.375" height="24.375" rx="0" fill="#4477aa" fill-opacity="0.018000009002813976" stroke="#fffefa" stroke-width="0.5"></rect><rect x="280.625" y="546.25" width="24.375" height="24.375" rx="0" fill="#4477aa" fill-opacity="0.01800038280939137" stroke="#fffefa" stroke-width="0.5"></rect><rect x="305" y="546.25" width="24.375" height="24.375" rx="0" fill="#4477aa" fill-opacity="0.018009872784326933" stroke="#fffefa" stroke-width="0.5"></rect><rect x="329.375" y="546.25" width="24.375" height="24.375" rx="0" fill="#4477aa" fill-opacity="0.018154436330898215" stroke="#fffefa" stroke-width="0.5"></rect><rect x="353.75" y="546.25" width="24.375" height="24.375" rx="0" fill="#4477aa" fill-opacity="0.019465251111098734" stroke="#fffefa" stroke-width="0.5"></rect><rect x="378.125" y="546.25" width="24.375" height="24.375" rx="0" fill="#4477aa" fill-opacity="0.026431937964949144" stroke="#fffefa" stroke-width="0.5"></rect><rect x="402.5" y="546.25" width="24.375" height="24.375" rx="0" fill="#4477aa" fill-opacity="0.047430355293715386" stroke="#fffefa" stroke-width="0.5"></rect><rect x="426.875" y="546.25" width="24.375" height="24.375" rx="0" fill="#4477aa" fill-opacity="0.0803040626457124" stroke="#fffefa" stroke-width="0.5"></rect><rect x="451.25" y="546.25" width="24.375" height="24.375" rx="0" fill="#4477aa" fill-opacity="0.098" stroke="#fffefa" stroke-width="0.5"></rect><rect x="475.625" y="546.25" width="24.375" height="24.375" rx="0" fill="#4477aa" fill-opacity="0.0803040626457124" stroke="#fffefa" stroke-width="0.5"></rect><rect x="110" y="570.625" width="24.375" height="24.375" rx="0" fill="#4477aa" fill-opacity="0.018" stroke="#fffefa" stroke-width="0.5"></rect><rect x="134.375" y="570.625" width="24.375" height="24.375" rx="0" fill="#4477aa" fill-opacity="0.018" stroke="#fffefa" stroke-width="0.5"></rect><rect x="158.75" y="570.625" width="24.375" height="24.375" rx="0" fill="#4477aa" fill-opacity="0.018" stroke="#fffefa" stroke-width="0.5"></rect><rect x="183.125" y="570.625" width="24.375" height="24.375" rx="0" fill="#4477aa" fill-opacity="0.018000000000000016" stroke="#fffefa" stroke-width="0.5"></rect><rect x="207.5" y="570.625" width="24.375" height="24.375" rx="0" fill="#4477aa" fill-opacity="0.018000000000005827" stroke="#fffefa" stroke-width="0.5"></rect><rect x="231.875" y="570.625" width="24.375" height="24.375" rx="0" fill="#4477aa" fill-opacity="0.018000000001111034" stroke="#fffefa" stroke-width="0.5"></rect><rect x="256.25" y="570.625" width="24.375" height="24.375" rx="0" fill="#4477aa" fill-opacity="0.018000000128418243" stroke="#fffefa" stroke-width="0.5"></rect><rect x="280.625" y="570.625" width="24.375" height="24.375" rx="0" fill="#4477aa" fill-opacity="0.018000009002813976" stroke="#fffefa" stroke-width="0.5"></rect><rect x="305" y="570.625" width="24.375" height="24.375" rx="0" fill="#4477aa" fill-opacity="0.01800038280939137" stroke="#fffefa" stroke-width="0.5"></rect><rect x="329.375" y="570.625" width="24.375" height="24.375" rx="0" fill="#4477aa" fill-opacity="0.018009872784326933" stroke="#fffefa" stroke-width="0.5"></rect><rect x="353.75" y="570.625" width="24.375" height="24.375" rx="0" fill="#4477aa" fill-opacity="0.018154436330898215" stroke="#fffefa" stroke-width="0.5"></rect><rect x="378.125" y="570.625" width="24.375" height="24.375" rx="0" fill="#4477aa" fill-opacity="0.019465251111098734" stroke="#fffefa" stroke-width="0.5"></rect><rect x="402.5" y="570.625" width="24.375" height="24.375" rx="0" fill="#4477aa" fill-opacity="0.026431937964949144" stroke="#fffefa" stroke-width="0.5"></rect><rect x="426.875" y="570.625" width="24.375" height="24.375" rx="0" fill="#4477aa" fill-opacity="0.047430355293715386" stroke="#fffefa" stroke-width="0.5"></rect><rect x="451.25" y="570.625" width="24.375" height="24.375" rx="0" fill="#4477aa" fill-opacity="0.0803040626457124" stroke="#fffefa" stroke-width="0.5"></rect><rect x="475.625" y="570.625" width="24.375" height="24.375" rx="0" fill="#4477aa" fill-opacity="0.098" stroke="#fffefa" stroke-width="0.5"></rect><rect x="110" y="205" width="390" height="390" rx="1" fill="none" fill-opacity="1" stroke="#15212b" stroke-width="2"></rect><text x="305" y="629" font-size="15" fill="#66727e" font-weight="650" text-anchor="middle" >reconstructed state</text><text x="76" y="400" font-size="15" fill="#66727e" font-weight="650" text-anchor="middle" transform="rotate(-90 76 400)">truth state</text><text x="305" y="653" font-size="17" fill="#c94f52" font-weight="700" text-anchor="middle" >new observable → many new cells</text><rect x="740" y="195" width="575" height="390" rx="14" fill="#fffefa" fill-opacity="1" stroke="#d8d5cd" stroke-width="1"></rect><text x="840" y="235" font-size="13" fill="#66727e" font-weight="750" text-anchor="middle" >event</text><text x="948" y="235" font-size="13" fill="#66727e" font-weight="750" text-anchor="middle" >truth pT</text><text x="1048" y="235" font-size="13" fill="#66727e" font-weight="750" text-anchor="middle" >reco pT</text><text x="1148" y="235" font-size="13" fill="#66727e" font-weight="750" text-anchor="middle" >truth p∥</text><text x="1248" y="235" font-size="13" fill="#66727e" font-weight="750" text-anchor="middle" >reco p∥</text><line x1="758" y1="258" x2="1295" y2="258" stroke="#d8d5cd" stroke-width="1"  ></line><circle cx="784" cy="278" r="5" fill="#4477aa" fill-opacity="0.7" stroke="none" stroke-width="0"></circle><rect x="835" y="269" width="62" height="16" rx="3" fill="#4477aa" fill-opacity="0.22" stroke="none" stroke-width="0"></rect><rect x="935" y="269" width="62" height="16" rx="3" fill="#4477aa" fill-opacity="0.32" stroke="none" stroke-width="0"></rect><rect x="1035" y="269" width="62" height="16" rx="3" fill="#4477aa" fill-opacity="0.42000000000000004" stroke="none" stroke-width="0"></rect><rect x="1135" y="269" width="62" height="16" rx="3" fill="#4477aa" fill-opacity="0.12" stroke="none" stroke-width="0"></rect><line x1="758" y1="298" x2="1295" y2="298" stroke="#d8d5cd" stroke-width="1"  ></line><circle cx="784" cy="318" r="5" fill="#4477aa" fill-opacity="0.7" stroke="none" stroke-width="0"></circle><rect x="835" y="309" width="62" height="16" rx="3" fill="#4477aa" fill-opacity="0.32" stroke="none" stroke-width="0"></rect><rect x="935" y="309" width="62" height="16" rx="3" fill="#4477aa" fill-opacity="0.42000000000000004" stroke="none" stroke-width="0"></rect><rect x="1035" y="309" width="62" height="16" rx="3" fill="#4477aa" fill-opacity="0.12" stroke="none" stroke-width="0"></rect><rect x="1135" y="309" width="62" height="16" rx="3" fill="#4477aa" fill-opacity="0.22" stroke="none" stroke-width="0"></rect><line x1="758" y1="338" x2="1295" y2="338" stroke="#d8d5cd" stroke-width="1"  ></line><circle cx="784" cy="358" r="5" fill="#4477aa" fill-opacity="0.7" stroke="none" stroke-width="0"></circle><rect x="835" y="349" width="62" height="16" rx="3" fill="#4477aa" fill-opacity="0.42000000000000004" stroke="none" stroke-width="0"></rect><rect x="935" y="349" width="62" height="16" rx="3" fill="#4477aa" fill-opacity="0.12" stroke="none" stroke-width="0"></rect><rect x="1035" y="349" width="62" height="16" rx="3" fill="#4477aa" fill-opacity="0.22" stroke="none" stroke-width="0"></rect><rect x="1135" y="349" width="62" height="16" rx="3" fill="#4477aa" fill-opacity="0.32" stroke="none" stroke-width="0"></rect><line x1="758" y1="378" x2="1295" y2="378" stroke="#d8d5cd" stroke-width="1"  ></line><circle cx="784" cy="398" r="5" fill="#4477aa" fill-opacity="0.7" stroke="none" stroke-width="0"></circle><rect x="835" y="389" width="62" height="16" rx="3" fill="#4477aa" fill-opacity="0.12" stroke="none" stroke-width="0"></rect><rect x="935" y="389" width="62" height="16" rx="3" fill="#4477aa" fill-opacity="0.22" stroke="none" stroke-width="0"></rect><rect x="1035" y="389" width="62" height="16" rx="3" fill="#4477aa" fill-opacity="0.32" stroke="none" stroke-width="0"></rect><rect x="1135" y="389" width="62" height="16" rx="3" fill="#4477aa" fill-opacity="0.42000000000000004" stroke="none" stroke-width="0"></rect><line x1="758" y1="418" x2="1295" y2="418" stroke="#d8d5cd" stroke-width="1"  ></line><circle cx="784" cy="438" r="5" fill="#4477aa" fill-opacity="0.7" stroke="none" stroke-width="0"></circle><rect x="835" y="429" width="62" height="16" rx="3" fill="#4477aa" fill-opacity="0.22" stroke="none" stroke-width="0"></rect><rect x="935" y="429" width="62" height="16" rx="3" fill="#4477aa" fill-opacity="0.32" stroke="none" stroke-width="0"></rect><rect x="1035" y="429" width="62" height="16" rx="3" fill="#4477aa" fill-opacity="0.42000000000000004" stroke="none" stroke-width="0"></rect><rect x="1135" y="429" width="62" height="16" rx="3" fill="#4477aa" fill-opacity="0.12" stroke="none" stroke-width="0"></rect><line x1="758" y1="458" x2="1295" y2="458" stroke="#d8d5cd" stroke-width="1"  ></line><circle cx="784" cy="478" r="5" fill="#4477aa" fill-opacity="0.7" stroke="none" stroke-width="0"></circle><rect x="835" y="469" width="62" height="16" rx="3" fill="#4477aa" fill-opacity="0.32" stroke="none" stroke-width="0"></rect><rect x="935" y="469" width="62" height="16" rx="3" fill="#4477aa" fill-opacity="0.42000000000000004" stroke="none" stroke-width="0"></rect><rect x="1035" y="469" width="62" height="16" rx="3" fill="#4477aa" fill-opacity="0.12" stroke="none" stroke-width="0"></rect><rect x="1135" y="469" width="62" height="16" rx="3" fill="#4477aa" fill-opacity="0.22" stroke="none" stroke-width="0"></rect><line x1="758" y1="498" x2="1295" y2="498" stroke="#d8d5cd" stroke-width="1"  ></line><circle cx="784" cy="518" r="5" fill="#4477aa" fill-opacity="0.7" stroke="none" stroke-width="0"></circle><rect x="835" y="509" width="62" height="16" rx="3" fill="#4477aa" fill-opacity="0.42000000000000004" stroke="none" stroke-width="0"></rect><rect x="935" y="509" width="62" height="16" rx="3" fill="#4477aa" fill-opacity="0.12" stroke="none" stroke-width="0"></rect><rect x="1035" y="509" width="62" height="16" rx="3" fill="#4477aa" fill-opacity="0.22" stroke="none" stroke-width="0"></rect><rect x="1135" y="509" width="62" height="16" rx="3" fill="#4477aa" fill-opacity="0.32" stroke="none" stroke-width="0"></rect><rect x="1150" y="208" width="142" height="350" rx="10" fill="#ee8b2d" fill-opacity="0.08" stroke="#ee8b2d" stroke-width="2"></rect><text x="1221" y="610" font-size="22" fill="#ee8b2d" font-weight="760" text-anchor="middle" >+ 2 columns</text><text x="1221" y="638" font-size="15" fill="#66727e" font-weight="650" text-anchor="middle" >per observable</text>
</svg>
