<svg xmlns="http://www.w3.org/2000/svg" xmlns:xlink="http://www.w3.org/1999/xlink" width="1440" height="810" viewBox="0 0 1440 810">
<rect width="1440" height="810" fill="#fffefa"/>
<style>text{font-family:Arial,Helvetica,sans-serif}</style>
<defs>
  <marker id="arrowSim" markerWidth="9" markerHeight="9" refX="8" refY="4.5" orient="auto"><path d="M0 0L9 4.5 0 9Z" fill="#4477aa"/></marker>
  <marker id="arrowWeight" markerWidth="9" markerHeight="9" refX="8" refY="4.5" orient="auto"><path d="M0 0L9 4.5 0 9Z" fill="#ee8b2d"/></marker>
  <marker id="arrowTruth" markerWidth="9" markerHeight="9" refX="8" refY="4.5" orient="auto"><path d="M0 0L9 4.5 0 9Z" fill="#745fc2"/></marker>
  <marker id="arrowValid" markerWidth="9" markerHeight="9" refX="8" refY="4.5" orient="auto"><path d="M0 0L9 4.5 0 9Z" fill="#238f83"/></marker>
</defs><text x="70" y="58" font-size="13" fill="#745fc2" font-weight="800" text-anchor="start" >START FROM D’AGOSTINI IBU</text><text x="70" y="105" font-size="39" fill="#15212b" font-weight="730" text-anchor="start" >Why response matrices stop scaling</text><rect x="1234" y="43" width="136" height="34" rx="17" fill="#f1efe9" fill-opacity="1" stroke="none" stroke-width="0"></rect><text x="1302" y="66" font-size="14" fill="#66727e" font-weight="750" text-anchor="middle" >CONCEPTUAL TOY</text><rect x="62" y="728" width="1316" height="54" rx="12" fill="#f1efe9" fill-opacity="1" stroke="none" stroke-width="0"></rect><circle cx="91" cy="755" r="6" fill="#ee8b2d" fill-opacity="1" stroke="none" stroke-width="0"></circle><text x="112" y="763" font-size="22" fill="#15212b" font-weight="680" text-anchor="start" >Fine physics resolution and stable matrix inversion pull in opposite directions.</text><rect x="115" y="190" width="500" height="430" rx="16" fill="#fffefa" fill-opacity="1" stroke="#d8d5cd" stroke-width="1"></rect><rect x="825" y="190" width="500" height="430" rx="16" fill="#fffefa" fill-opacity="1" stroke="#d8d5cd" stroke-width="1"></rect><text x="365" y="238" font-size="22" fill="#66727e" font-weight="650" text-anchor="middle" >Physics asks for</text><text x="365" y="282" font-size="38" fill="#745fc2" font-weight="760" text-anchor="middle" >finer bins</text><line x1="210" y1="335" x2="210" y2="515" stroke="#745fc2" stroke-width="0.8"  ></line><line x1="272" y1="335" x2="272" y2="515" stroke="#745fc2" stroke-width="0.8"  ></line><line x1="334" y1="335" x2="334" y2="515" stroke="#745fc2" stroke-width="0.8"  ></line><line x1="396" y1="335" x2="396" y2="515" stroke="#745fc2" stroke-width="0.8"  ></line><line x1="458" y1="335" x2="458" y2="515" stroke="#745fc2" stroke-width="0.8"  ></line><line x1="520" y1="335" x2="520" y2="515" stroke="#745fc2" stroke-width="0.8"  ></line><line x1="210" y1="335" x2="520" y2="335" stroke="#745fc2" stroke-width="0.8"  ></line><line x1="196" y1="335" x2="196" y2="515" stroke="#745fc2" stroke-width="0.8"  ></line><line x1="244.28571428571428" y1="335" x2="244.28571428571428" y2="515" stroke="#745fc2" stroke-width="0.8"  ></line><line x1="292.57142857142856" y1="335" x2="292.57142857142856" y2="515" stroke="#745fc2" stroke-width="0.8"  ></line><line x1="340.8571428571429" y1="335" x2="340.8571428571429" y2="515" stroke="#745fc2" stroke-width="0.8"  ></line><line x1="389.1428571428571" y1="335" x2="389.1428571428571" y2="515" stroke="#745fc2" stroke-width="0.8"  ></line><line x1="437.42857142857144" y1="335" x2="437.42857142857144" y2="515" stroke="#745fc2" stroke-width="0.8"  ></line><line x1="485.7142857142857" y1="335" x2="485.7142857142857" y2="515" stroke="#745fc2" stroke-width="0.8"  ></line><line x1="534" y1="335" x2="534" y2="515" stroke="#745fc2" stroke-width="0.8"  ></line><line x1="196" y1="369" x2="534" y2="369" stroke="#745fc2" stroke-width="0.8"  ></line><line x1="182" y1="335" x2="182" y2="515" stroke="#745fc2" stroke-width="0.8"  ></line><line x1="222.66666666666666" y1="335" x2="222.66666666666666" y2="515" stroke="#745fc2" stroke-width="0.8"  ></line><line x1="263.3333333333333" y1="335" x2="263.3333333333333" y2="515" stroke="#745fc2" stroke-width="0.8"  ></line><line x1="304" y1="335" x2="304" y2="515" stroke="#745fc2" stroke-width="0.8"  ></line><line x1="344.66666666666663" y1="335" x2="344.66666666666663" y2="515" stroke="#745fc2" stroke-width="0.8"  ></line><line x1="385.3333333333333" y1="335" x2="385.3333333333333" y2="515" stroke="#745fc2" stroke-width="0.8"  ></line><line x1="426" y1="335" x2="426" y2="515" stroke="#745fc2" stroke-width="0.8"  ></line><line x1="466.66666666666663" y1="335" x2="466.66666666666663" y2="515" stroke="#745fc2" stroke-width="0.8"  ></line><line x1="507.3333333333333" y1="335" x2="507.3333333333333" y2="515" stroke="#745fc2" stroke-width="0.8"  ></line><line x1="548" y1="335" x2="548" y2="515" stroke="#745fc2" stroke-width="0.8"  ></line><line x1="182" y1="403" x2="548" y2="403" stroke="#745fc2" stroke-width="0.8"  ></line><line x1="168" y1="335" x2="168" y2="515" stroke="#745fc2" stroke-width="0.8"  ></line><line x1="203.8181818181818" y1="335" x2="203.8181818181818" y2="515" stroke="#745fc2" stroke-width="0.8"  ></line><line x1="239.63636363636363" y1="335" x2="239.63636363636363" y2="515" stroke="#745fc2" stroke-width="0.8"  ></line><line x1="275.4545454545455" y1="335" x2="275.4545454545455" y2="515" stroke="#745fc2" stroke-width="0.8"  ></line><line x1="311.27272727272725" y1="335" x2="311.27272727272725" y2="515" stroke="#745fc2" stroke-width="0.8"  ></line><line x1="347.0909090909091" y1="335" x2="347.0909090909091" y2="515" stroke="#745fc2" stroke-width="0.8"  ></line><line x1="382.90909090909093" y1="335" x2="382.90909090909093" y2="515" stroke="#745fc2" stroke-width="0.8"  ></line><line x1="418.72727272727275" y1="335" x2="418.72727272727275" y2="515" stroke="#745fc2" stroke-width="0.8"  ></line><line x1="454.54545454545456" y1="335" x2="454.54545454545456" y2="515" stroke="#745fc2" stroke-width="0.8"  ></line><line x1="490.3636363636364" y1="335" x2="490.3636363636364" y2="515" stroke="#745fc2" stroke-width="0.8"  ></line><line x1="526.1818181818182" y1="335" x2="526.1818181818182" y2="515" stroke="#745fc2" stroke-width="0.8"  ></line><line x1="562" y1="335" x2="562" y2="515" stroke="#745fc2" stroke-width="0.8"  ></line><line x1="168" y1="437" x2="562" y2="437" stroke="#745fc2" stroke-width="0.8"  ></line><text x="1075" y="238" font-size="22" fill="#66727e" font-weight="650" text-anchor="middle" >Stable inversion asks for</text><text x="1075" y="282" font-size="38" fill="#4477aa" font-weight="760" text-anchor="middle" >populated cells</text><rect x="915" y="330" width="39.375" height="39.375" rx="0" fill="#4477aa" fill-opacity="0.86" stroke="#fffefa" stroke-width="0.5"></rect><rect x="954.375" y="330" width="39.375" height="39.375" rx="0" fill="#4477aa" fill-opacity="0.5530939145758541" stroke="#fffefa" stroke-width="0.5"></rect><rect x="993.75" y="330" width="39.375" height="39.375" rx="0" fill="#4477aa" fill-opacity="0.1855615209245579" stroke="#fffefa" stroke-width="0.5"></rect><rect x="1033.125" y="330" width="39.375" height="39.375" rx="0" fill="#4477aa" fill-opacity="0.08866501729982901" stroke="#fffefa" stroke-width="0.5"></rect><rect x="1072.5" y="330" width="39.375" height="39.375" rx="0" fill="#4477aa" fill-opacity="0.08026166084976397" stroke="#fffefa" stroke-width="0.5"></rect><rect x="1111.875" y="330" width="39.375" height="39.375" rx="0" fill="#4477aa" fill-opacity="0.08000290678947422" stroke="#fffefa" stroke-width="0.5"></rect><rect x="1151.25" y="330" width="39.375" height="39.375" rx="0" fill="#4477aa" fill-opacity="0.0800000118793842" stroke="#fffefa" stroke-width="0.5"></rect><rect x="1190.625" y="330" width="39.375" height="39.375" rx="0" fill="#4477aa" fill-opacity="0.08000000001785994" stroke="#fffefa" stroke-width="0.5"></rect><rect x="915" y="369.375" width="39.375" height="39.375" rx="0" fill="#4477aa" fill-opacity="0.5530939145758541" stroke="#fffefa" stroke-width="0.5"></rect><rect x="954.375" y="369.375" width="39.375" height="39.375" rx="0" fill="#4477aa" fill-opacity="0.86" stroke="#fffefa" stroke-width="0.5"></rect><rect x="993.75" y="369.375" width="39.375" height="39.375" rx="0" fill="#4477aa" fill-opacity="0.5530939145758541" stroke="#fffefa" stroke-width="0.5"></rect><rect x="1033.125" y="369.375" width="39.375" height="39.375" rx="0" fill="#4477aa" fill-opacity="0.1855615209245579" stroke="#fffefa" stroke-width="0.5"></rect><rect x="1072.5" y="369.375" width="39.375" height="39.375" rx="0" fill="#4477aa" fill-opacity="0.08866501729982901" stroke="#fffefa" stroke-width="0.5"></rect><rect x="1111.875" y="369.375" width="39.375" height="39.375" rx="0" fill="#4477aa" fill-opacity="0.08026166084976397" stroke="#fffefa" stroke-width="0.5"></rect><rect x="1151.25" y="369.375" width="39.375" height="39.375" rx="0" fill="#4477aa" fill-opacity="0.08000290678947422" stroke="#fffefa" stroke-width="0.5"></rect><rect x="1190.625" y="369.375" width="39.375" height="39.375" rx="0" fill="#4477aa" fill-opacity="0.0800000118793842" stroke="#fffefa" stroke-width="0.5"></rect><rect x="915" y="408.75" width="39.375" height="39.375" rx="0" fill="#4477aa" fill-opacity="0.1855615209245579" stroke="#fffefa" stroke-width="0.5"></rect><rect x="954.375" y="408.75" width="39.375" height="39.375" rx="0" fill="#4477aa" fill-opacity="0.5530939145758541" stroke="#fffefa" stroke-width="0.5"></rect><rect x="993.75" y="408.75" width="39.375" height="39.375" rx="0" fill="#4477aa" fill-opacity="0.86" stroke="#fffefa" stroke-width="0.5"></rect><rect x="1033.125" y="408.75" width="39.375" height="39.375" rx="0" fill="#4477aa" fill-opacity="0.5530939145758541" stroke="#fffefa" stroke-width="0.5"></rect><rect x="1072.5" y="408.75" width="39.375" height="39.375" rx="0" fill="#4477aa" fill-opacity="0.1855615209245579" stroke="#fffefa" stroke-width="0.5"></rect><rect x="1111.875" y="408.75" width="39.375" height="39.375" rx="0" fill="#4477aa" fill-opacity="0.08866501729982901" stroke="#fffefa" stroke-width="0.5"></rect><rect x="1151.25" y="408.75" width="39.375" height="39.375" rx="0" fill="#4477aa" fill-opacity="0.08026166084976397" stroke="#fffefa" stroke-width="0.5"></rect><rect x="1190.625" y="408.75" width="39.375" height="39.375" rx="0" fill="#4477aa" fill-opacity="0.08000290678947422" stroke="#fffefa" stroke-width="0.5"></rect><rect x="915" y="448.125" width="39.375" height="39.375" rx="0" fill="#4477aa" fill-opacity="0.08866501729982901" stroke="#fffefa" stroke-width="0.5"></rect><rect x="954.375" y="448.125" width="39.375" height="39.375" rx="0" fill="#4477aa" fill-opacity="0.1855615209245579" stroke="#fffefa" stroke-width="0.5"></rect><rect x="993.75" y="448.125" width="39.375" height="39.375" rx="0" fill="#4477aa" fill-opacity="0.5530939145758541" stroke="#fffefa" stroke-width="0.5"></rect><rect x="1033.125" y="448.125" width="39.375" height="39.375" rx="0" fill="#4477aa" fill-opacity="0.86" stroke="#fffefa" stroke-width="0.5"></rect><rect x="1072.5" y="448.125" width="39.375" height="39.375" rx="0" fill="#4477aa" fill-opacity="0.5530939145758541" stroke="#fffefa" stroke-width="0.5"></rect><rect x="1111.875" y="448.125" width="39.375" height="39.375" rx="0" fill="#4477aa" fill-opacity="0.1855615209245579" stroke="#fffefa" stroke-width="0.5"></rect><rect x="1151.25" y="448.125" width="39.375" height="39.375" rx="0" fill="#4477aa" fill-opacity="0.08866501729982901" stroke="#fffefa" stroke-width="0.5"></rect><rect x="1190.625" y="448.125" width="39.375" height="39.375" rx="0" fill="#4477aa" fill-opacity="0.08026166084976397" stroke="#fffefa" stroke-width="0.5"></rect><rect x="915" y="487.5" width="39.375" height="39.375" rx="0" fill="#4477aa" fill-opacity="0.08026166084976397" stroke="#fffefa" stroke-width="0.5"></rect><rect x="954.375" y="487.5" width="39.375" height="39.375" rx="0" fill="#4477aa" fill-opacity="0.08866501729982901" stroke="#fffefa" stroke-width="0.5"></rect><rect x="993.75" y="487.5" width="39.375" height="39.375" rx="0" fill="#4477aa" fill-opacity="0.1855615209245579" stroke="#fffefa" stroke-width="0.5"></rect><rect x="1033.125" y="487.5" width="39.375" height="39.375" rx="0" fill="#4477aa" fill-opacity="0.5530939145758541" stroke="#fffefa" stroke-width="0.5"></rect><rect x="1072.5" y="487.5" width="39.375" height="39.375" rx="0" fill="#4477aa" fill-opacity="0.86" stroke="#fffefa" stroke-width="0.5"></rect><rect x="1111.875" y="487.5" width="39.375" height="39.375" rx="0" fill="#4477aa" fill-opacity="0.5530939145758541" stroke="#fffefa" stroke-width="0.5"></rect><rect x="1151.25" y="487.5" width="39.375" height="39.375" rx="0" fill="#4477aa" fill-opacity="0.1855615209245579" stroke="#fffefa" stroke-width="0.5"></rect><rect x="1190.625" y="487.5" width="39.375" height="39.375" rx="0" fill="#4477aa" fill-opacity="0.08866501729982901" stroke="#fffefa" stroke-width="0.5"></rect><rect x="915" y="526.875" width="39.375" height="39.375" rx="0" fill="#4477aa" fill-opacity="0.08000290678947422" stroke="#fffefa" stroke-width="0.5"></rect><rect x="954.375" y="526.875" width="39.375" height="39.375" rx="0" fill="#4477aa" fill-opacity="0.08026166084976397" stroke="#fffefa" stroke-width="0.5"></rect><rect x="993.75" y="526.875" width="39.375" height="39.375" rx="0" fill="#4477aa" fill-opacity="0.08866501729982901" stroke="#fffefa" stroke-width="0.5"></rect><rect x="1033.125" y="526.875" width="39.375" height="39.375" rx="0" fill="#4477aa" fill-opacity="0.1855615209245579" stroke="#fffefa" stroke-width="0.5"></rect><rect x="1072.5" y="526.875" width="39.375" height="39.375" rx="0" fill="#4477aa" fill-opacity="0.5530939145758541" stroke="#fffefa" stroke-width="0.5"></rect><rect x="1111.875" y="526.875" width="39.375" height="39.375" rx="0" fill="#4477aa" fill-opacity="0.86" stroke="#fffefa" stroke-width="0.5"></rect><rect x="1151.25" y="526.875" width="39.375" height="39.375" rx="0" fill="#4477aa" fill-opacity="0.5530939145758541" stroke="#fffefa" stroke-width="0.5"></rect><rect x="1190.625" y="526.875" width="39.375" height="39.375" rx="0" fill="#4477aa" fill-opacity="0.1855615209245579" stroke="#fffefa" stroke-width="0.5"></rect><rect x="915" y="566.25" width="39.375" height="39.375" rx="0" fill="#4477aa" fill-opacity="0.0800000118793842" stroke="#fffefa" stroke-width="0.5"></rect><rect x="954.375" y="566.25" width="39.375" height="39.375" rx="0" fill="#4477aa" fill-opacity="0.08000290678947422" stroke="#fffefa" stroke-width="0.5"></rect><rect x="993.75" y="566.25" width="39.375" height="39.375" rx="0" fill="#4477aa" fill-opacity="0.08026166084976397" stroke="#fffefa" stroke-width="0.5"></rect><rect x="1033.125" y="566.25" width="39.375" height="39.375" rx="0" fill="#4477aa" fill-opacity="0.08866501729982901" stroke="#fffefa" stroke-width="0.5"></rect><rect x="1072.5" y="566.25" width="39.375" height="39.375" rx="0" fill="#4477aa" fill-opacity="0.1855615209245579" stroke="#fffefa" stroke-width="0.5"></rect><rect x="1111.875" y="566.25" width="39.375" height="39.375" rx="0" fill="#4477aa" fill-opacity="0.5530939145758541" stroke="#fffefa" stroke-width="0.5"></rect><rect x="1151.25" y="566.25" width="39.375" height="39.375" rx="0" fill="#4477aa" fill-opacity="0.86" stroke="#fffefa" stroke-width="0.5"></rect><rect x="1190.625" y="566.25" width="39.375" height="39.375" rx="0" fill="#4477aa" fill-opacity="0.5530939145758541" stroke="#fffefa" stroke-width="0.5"></rect><rect x="915" y="605.625" width="39.375" height="39.375" rx="0" fill="#4477aa" fill-opacity="0.08000000001785994" stroke="#fffefa" stroke-width="0.5"></rect><rect x="954.375" y="605.625" width="39.375" height="39.375" rx="0" fill="#4477aa" fill-opacity="0.0800000118793842" stroke="#fffefa" stroke-width="0.5"></rect><rect x="993.75" y="605.625" width="39.375" height="39.375" rx="0" fill="#4477aa" fill-opacity="0.08000290678947422" stroke="#fffefa" stroke-width="0.5"></rect><rect x="1033.125" y="605.625" width="39.375" height="39.375" rx="0" fill="#4477aa" fill-opacity="0.08026166084976397" stroke="#fffefa" stroke-width="0.5"></rect><rect x="1072.5" y="605.625" width="39.375" height="39.375" rx="0" fill="#4477aa" fill-opacity="0.08866501729982901" stroke="#fffefa" stroke-width="0.5"></rect><rect x="1111.875" y="605.625" width="39.375" height="39.375" rx="0" fill="#4477aa" fill-opacity="0.1855615209245579" stroke="#fffefa" stroke-width="0.5"></rect><rect x="1151.25" y="605.625" width="39.375" height="39.375" rx="0" fill="#4477aa" fill-opacity="0.5530939145758541" stroke="#fffefa" stroke-width="0.5"></rect><rect x="1190.625" y="605.625" width="39.375" height="39.375" rx="0" fill="#4477aa" fill-opacity="0.86" stroke="#fffefa" stroke-width="0.5"></rect><rect x="915" y="330" width="315" height="315" rx="1" fill="none" fill-opacity="1" stroke="#15212b" stroke-width="2"></rect><path d="M645 405 C720 360 750 360 795 405 M645 455 C720 500 750 500 795 455" fill="none" stroke="#c94f52" stroke-width="4" stroke-linecap="round" stroke-linejoin="round" opacity="1"  marker-end="url(#arrowWeight)"></path><text x="720" y="445" font-size="20" fill="#c94f52" font-weight="760" text-anchor="middle" >tradeoff</text>
</svg>
