<svg xmlns="http://www.w3.org/2000/svg" xmlns:xlink="http://www.w3.org/1999/xlink" width="1440" height="810" viewBox="0 0 1440 810">
<rect width="1440" height="810" fill="#fffefa"/>
<style>text{font-family:Arial,Helvetica,sans-serif}</style>
<defs>
  <marker id="arrowSim" markerWidth="9" markerHeight="9" refX="8" refY="4.5" orient="auto"><path d="M0 0L9 4.5 0 9Z" fill="#4477aa"/></marker>
  <marker id="arrowWeight" markerWidth="9" markerHeight="9" refX="8" refY="4.5" orient="auto"><path d="M0 0L9 4.5 0 9Z" fill="#ee8b2d"/></marker>
  <marker id="arrowTruth" markerWidth="9" markerHeight="9" refX="8" refY="4.5" orient="auto"><path d="M0 0L9 4.5 0 9Z" fill="#745fc2"/></marker>
  <marker id="arrowValid" markerWidth="9" markerHeight="9" refX="8" refY="4.5" orient="auto"><path d="M0 0L9 4.5 0 9Z" fill="#238f83"/></marker>
</defs><text x="70" y="58" font-size="13" fill="#745fc2" font-weight="800" text-anchor="start" >THE CONCEPTUAL BRIDGE</text><text x="70" y="105" font-size="39" fill="#15212b" font-weight="730" text-anchor="start" >The response matrix, before it was histogrammed</text><rect x="1234" y="43" width="136" height="34" rx="17" fill="#f1efe9" fill-opacity="1" stroke="none" stroke-width="0"></rect><text x="1302" y="66" font-size="14" fill="#66727e" font-weight="750" text-anchor="middle" >CONCEPTUAL TOY</text><rect x="62" y="728" width="1316" height="54" rx="12" fill="#f1efe9" fill-opacity="1" stroke="none" stroke-width="0"></rect><circle cx="91" cy="755" r="6" fill="#ee8b2d" fill-opacity="1" stroke="none" stroke-width="0"></circle><text x="112" y="763" font-size="22" fill="#15212b" font-weight="680" text-anchor="start" >Every simulated interaction already comes as a truth–reco pair.</text><text x="92" y="169" font-size="13" fill="#745fc2" font-weight="800" text-anchor="start" >TRUTH</text><text x="92" y="426" font-size="13" fill="#4477aa" font-weight="800" text-anchor="start" >RECONSTRUCTED</text><line x1="80" y1="380" x2="1360" y2="380" stroke="#d8d5cd" stroke-width="2"  ></line><text x="1335" y="368" font-size="13" fill="#66727e" font-weight="650" text-anchor="end" >detector</text><circle cx="605" cy="202.16963430990876" r="13" fill="#745fc2" fill-opacity="0.9" stroke="none" stroke-width="0"></circle><circle cx="577.8672750349672" cy="533.816493689728" r="13" fill="#4477aa" fill-opacity="0.9" stroke="none" stroke-width="0"></circle><line x1="605" y1="202.16963430990876" x2="577.8672750349672" y2="533.816493689728" stroke="#15212b" stroke-width="3" stroke-dasharray="7 7" ></line><text x="635" y="190.16963430990876" font-size="20" fill="#745fc2" font-weight="700" text-anchor="start" >true event record</text><text x="607.8672750349672" y="541.816493689728" font-size="20" fill="#4477aa" font-weight="700" text-anchor="start" >reconstructed partner</text><rect x="560" y="322" width="320" height="34" rx="17" fill="#15212b" fill-opacity="1" stroke="none" stroke-width="0"></rect><text x="720" y="345" font-size="14" fill="#fffefa" font-weight="750" text-anchor="middle" >same simulated event ID</text>
</svg>
