<svg xmlns="http://www.w3.org/2000/svg" xmlns:xlink="http://www.w3.org/1999/xlink" width="1440" height="810" viewBox="0 0 1440 810">
<rect width="1440" height="810" fill="#fffefa"/>
<style>text{font-family:Arial,Helvetica,sans-serif}</style>
<defs>
  <marker id="arrowSim" markerWidth="9" markerHeight="9" refX="8" refY="4.5" orient="auto"><path d="M0 0L9 4.5 0 9Z" fill="#4477aa"/></marker>
  <marker id="arrowWeight" markerWidth="9" markerHeight="9" refX="8" refY="4.5" orient="auto"><path d="M0 0L9 4.5 0 9Z" fill="#ee8b2d"/></marker>
  <marker id="arrowTruth" markerWidth="9" markerHeight="9" refX="8" refY="4.5" orient="auto"><path d="M0 0L9 4.5 0 9Z" fill="#745fc2"/></marker>
  <marker id="arrowValid" markerWidth="9" markerHeight="9" refX="8" refY="4.5" orient="auto"><path d="M0 0L9 4.5 0 9Z" fill="#238f83"/></marker>
</defs><text x="70" y="58" font-size="13" fill="#745fc2" font-weight="800" text-anchor="start" >THE CONCEPTUAL BRIDGE</text><text x="70" y="105" font-size="39" fill="#15212b" font-weight="730" text-anchor="start" >The response matrix, before it was histogrammed</text><rect x="1234" y="43" width="136" height="34" rx="17" fill="#f1efe9" fill-opacity="1" stroke="none" stroke-width="0"></rect><text x="1302" y="66" font-size="14" fill="#66727e" font-weight="750" text-anchor="middle" >CONCEPTUAL TOY</text><rect x="62" y="728" width="1316" height="54" rx="12" fill="#f1efe9" fill-opacity="1" stroke="none" stroke-width="0"></rect><circle cx="91" cy="755" r="6" fill="#ee8b2d" fill-opacity="1" stroke="none" stroke-width="0"></circle><text x="112" y="763" font-size="22" fill="#15212b" font-weight="680" text-anchor="start" >A response matrix is that paired ensemble after histogramming.</text><text x="92" y="169" font-size="13" fill="#745fc2" font-weight="800" text-anchor="start" >TRUTH</text><text x="92" y="426" font-size="13" fill="#4477aa" font-weight="800" text-anchor="start" >RECONSTRUCTED</text><line x1="80" y1="380" x2="1360" y2="380" stroke="#d8d5cd" stroke-width="2"  ></line><text x="1335" y="368" font-size="13" fill="#66727e" font-weight="650" text-anchor="end" >detector</text><text x="340" y="155" font-size="18" fill="#66727e" font-weight="700" text-anchor="middle" >paired simulated events</text><line x1="150" y1="222" x2="150" y2="542.8204222827161" stroke="#d8d5cd" stroke-width="1"  ></line><circle cx="150" cy="222" r="6" fill="#4477aa" fill-opacity="0.58" stroke="none" stroke-width="0"></circle><circle cx="150" cy="542.8204222827161" r="6" fill="#4477aa" fill-opacity="0.78" stroke="none" stroke-width="0"></circle><line x1="215" y1="269.09695707604516" x2="252.7669978096425" y2="565.3683509725546" stroke="#d8d5cd" stroke-width="1"  ></line><circle cx="215" cy="269.09695707604516" r="6" fill="#4477aa" fill-opacity="0.58" stroke="none" stroke-width="0"></circle><circle cx="252.7669978096425" cy="565.3683509725546" r="6" fill="#4477aa" fill-opacity="0.78" stroke="none" stroke-width="0"></circle><line x1="280" y1="295.99796703193954" x2="288.35177726455447" y2="555.4172413364746" stroke="#d8d5cd" stroke-width="1"  ></line><circle cx="280" cy="295.99796703193954" r="6" fill="#4477aa" fill-opacity="0.58" stroke="none" stroke-width="0"></circle><circle cx="288.35177726455447" cy="555.4172413364746" r="6" fill="#4477aa" fill-opacity="0.78" stroke="none" stroke-width="0"></circle><line x1="345" y1="255.46933143647703" x2="309.0799105368536" y2="524.1920131591024" stroke="#d8d5cd" stroke-width="1"  ></line><circle cx="345" cy="255.46933143647703" r="6" fill="#4477aa" fill-opacity="0.58" stroke="none" stroke-width="0"></circle><circle cx="309.0799105368536" cy="524.1920131591024" r="6" fill="#4477aa" fill-opacity="0.78" stroke="none" stroke-width="0"></circle><line x1="410" y1="234.11649726721342" x2="393.70486996933096" y2="459.51844594781096" stroke="#d8d5cd" stroke-width="1"  ></line><circle cx="410" cy="234.11649726721342" r="6" fill="#4477aa" fill-opacity="0.58" stroke="none" stroke-width="0"></circle><circle cx="393.70486996933096" cy="459.51844594781096" r="6" fill="#4477aa" fill-opacity="0.78" stroke="none" stroke-width="0"></circle><line x1="475" y1="213.28697004384742" x2="507.31659158388544" y2="455.71094651402876" stroke="#d8d5cd" stroke-width="1"  ></line><circle cx="475" cy="213.28697004384742" r="6" fill="#4477aa" fill-opacity="0.58" stroke="none" stroke-width="0"></circle><circle cx="507.31659158388544" cy="455.71094651402876" r="6" fill="#4477aa" fill-opacity="0.78" stroke="none" stroke-width="0"></circle><line x1="540" y1="174.0182956793191" x2="563.4416068625997" y2="484.3555167619477" stroke="#d8d5cd" stroke-width="1"  ></line><circle cx="540" cy="174.0182956793191" r="6" fill="#4477aa" fill-opacity="0.58" stroke="none" stroke-width="0"></circle><circle cx="563.4416068625997" cy="484.3555167619477" r="6" fill="#4477aa" fill-opacity="0.78" stroke="none" stroke-width="0"></circle><line x1="605" y1="202.16963430990876" x2="577.8672750349672" y2="533.816493689728" stroke="#d8d5cd" stroke-width="1"  ></line><circle cx="605" cy="202.16963430990876" r="6" fill="#4477aa" fill-opacity="0.58" stroke="none" stroke-width="0"></circle><circle cx="577.8672750349672" cy="533.816493689728" r="6" fill="#4477aa" fill-opacity="0.78" stroke="none" stroke-width="0"></circle><line x1="670" y1="249.76670611643968" x2="640.558274286796" y2="544.1284615964717" stroke="#d8d5cd" stroke-width="1"  ></line><circle cx="670" cy="249.76670611643968" r="6" fill="#4477aa" fill-opacity="0.58" stroke="none" stroke-width="0"></circle><circle cx="640.558274286796" cy="544.1284615964717" r="6" fill="#4477aa" fill-opacity="0.78" stroke="none" stroke-width="0"></circle><line x1="735" y1="257.3173413384717" x2="755.6219947057692" y2="565.1911923265477" stroke="#d8d5cd" stroke-width="1"  ></line><circle cx="735" cy="257.3173413384717" r="6" fill="#4477aa" fill-opacity="0.58" stroke="none" stroke-width="0"></circle><circle cx="755.6219947057692" cy="565.1911923265477" r="6" fill="#4477aa" fill-opacity="0.78" stroke="none" stroke-width="0"></circle><line x1="800" y1="282.94918440830907" x2="834.0020645413391" y2="553.8598174564806" stroke="#d8d5cd" stroke-width="1"  ></line><circle cx="800" cy="282.94918440830907" r="6" fill="#4477aa" fill-opacity="0.58" stroke="none" stroke-width="0"></circle><circle cx="834.0020645413391" cy="553.8598174564806" r="6" fill="#4477aa" fill-opacity="0.78" stroke="none" stroke-width="0"></circle><line x1="865" y1="280.1802763317954" x2="851.8972068737581" y2="522.1768008002718" stroke="#d8d5cd" stroke-width="1"  ></line><circle cx="865" cy="280.1802763317954" r="6" fill="#4477aa" fill-opacity="0.58" stroke="none" stroke-width="0"></circle><circle cx="851.8972068737581" cy="522.1768008002718" r="6" fill="#4477aa" fill-opacity="0.78" stroke="none" stroke-width="0"></circle><line x1="930" y1="219.35068909674843" x2="893.1003895566679" y2="458.23907427019014" stroke="#d8d5cd" stroke-width="1"  ></line><circle cx="930" cy="219.35068909674843" r="6" fill="#4477aa" fill-opacity="0.58" stroke="none" stroke-width="0"></circle><circle cx="893.1003895566679" cy="458.23907427019014" r="6" fill="#4477aa" fill-opacity="0.78" stroke="none" stroke-width="0"></circle><line x1="995" y1="199.09031353028456" x2="999.9428295219108" y2="455.92519934831626" stroke="#d8d5cd" stroke-width="1"  ></line><circle cx="995" cy="199.09031353028456" r="6" fill="#4477aa" fill-opacity="0.58" stroke="none" stroke-width="0"></circle><circle cx="999.9428295219108" cy="455.92519934831626" r="6" fill="#4477aa" fill-opacity="0.78" stroke="none" stroke-width="0"></circle><line x1="1060" y1="200.09958168675215" x2="1097.9926655871836" y2="485.9364901471254" stroke="#d8d5cd" stroke-width="1"  ></line><circle cx="1060" cy="200.09958168675215" r="6" fill="#4477aa" fill-opacity="0.58" stroke="none" stroke-width="0"></circle><circle cx="1097.9926655871836" cy="485.9364901471254" r="6" fill="#4477aa" fill-opacity="0.78" stroke="none" stroke-width="0"></circle><line x1="1125" y1="190.48071637459134" x2="1128.4588518155942" y2="535.8277622780969" stroke="#d8d5cd" stroke-width="1"  ></line><circle cx="1125" cy="190.48071637459134" r="6" fill="#4477aa" fill-opacity="0.58" stroke="none" stroke-width="0"></circle><circle cx="1128.4588518155942" cy="535.8277622780969" r="6" fill="#4477aa" fill-opacity="0.78" stroke="none" stroke-width="0"></circle><path d="M690 635 C790 670 815 670 880 635" fill="none" stroke="#ee8b2d" stroke-width="4" stroke-linecap="round" stroke-linejoin="round" opacity="1"  marker-end="url(#arrowWeight)"></path><rect x="940" y="195" width="35" height="35" rx="0" fill="#4477aa" fill-opacity="0.86" stroke="#fffefa" stroke-width="0.5"></rect><rect x="975" y="195" width="35" height="35" rx="0" fill="#4477aa" fill-opacity="0.6028496359077986" stroke="#fffefa" stroke-width="0.5"></rect><rect x="1010" y="195" width="35" height="35" rx="0" fill="#4477aa" fill-opacity="0.23747928403583118" stroke="#fffefa" stroke-width="0.5"></rect><rect x="1045" y="195" width="35" height="35" rx="0" fill="#4477aa" fill-opacity="0.1013125035088882" stroke="#fffefa" stroke-width="0.5"></rect><rect x="1080" y="195" width="35" height="35" rx="0" fill="#4477aa" fill-opacity="0.08129601467307566" stroke="#fffefa" stroke-width="0.5"></rect><rect x="1115" y="195" width="35" height="35" rx="0" fill="#4477aa" fill-opacity="0.08003541194521474" stroke="#fffefa" stroke-width="0.5"></rect><rect x="1150" y="195" width="35" height="35" rx="0" fill="#4477aa" fill-opacity="0.08000043476448804" stroke="#fffefa" stroke-width="0.5"></rect><rect x="1185" y="195" width="35" height="35" rx="0" fill="#4477aa" fill-opacity="0.08000000239840631" stroke="#fffefa" stroke-width="0.5"></rect><rect x="1220" y="195" width="35" height="35" rx="0" fill="#4477aa" fill-opacity="0.08000000000594505" stroke="#fffefa" stroke-width="0.5"></rect><rect x="1255" y="195" width="35" height="35" rx="0" fill="#4477aa" fill-opacity="0.08000000000000662" stroke="#fffefa" stroke-width="0.5"></rect><rect x="940" y="230" width="35" height="35" rx="0" fill="#4477aa" fill-opacity="0.6028496359077986" stroke="#fffefa" stroke-width="0.5"></rect><rect x="975" y="230" width="35" height="35" rx="0" fill="#4477aa" fill-opacity="0.86" stroke="#fffefa" stroke-width="0.5"></rect><rect x="1010" y="230" width="35" height="35" rx="0" fill="#4477aa" fill-opacity="0.6028496359077986" stroke="#fffefa" stroke-width="0.5"></rect><rect x="1045" y="230" width="35" height="35" rx="0" fill="#4477aa" fill-opacity="0.23747928403583118" stroke="#fffefa" stroke-width="0.5"></rect><rect x="1080" y="230" width="35" height="35" rx="0" fill="#4477aa" fill-opacity="0.1013125035088882" stroke="#fffefa" stroke-width="0.5"></rect><rect x="1115" y="230" width="35" height="35" rx="0" fill="#4477aa" fill-opacity="0.08129601467307566" stroke="#fffefa" stroke-width="0.5"></rect><rect x="1150" y="230" width="35" height="35" rx="0" fill="#4477aa" fill-opacity="0.08003541194521474" stroke="#fffefa" stroke-width="0.5"></rect><rect x="1185" y="230" width="35" height="35" rx="0" fill="#4477aa" fill-opacity="0.08000043476448804" stroke="#fffefa" stroke-width="0.5"></rect><rect x="1220" y="230" width="35" height="35" rx="0" fill="#4477aa" fill-opacity="0.08000000239840631" stroke="#fffefa" stroke-width="0.5"></rect><rect x="1255" y="230" width="35" height="35" rx="0" fill="#4477aa" fill-opacity="0.08000000000594505" stroke="#fffefa" stroke-width="0.5"></rect><rect x="940" y="265" width="35" height="35" rx="0" fill="#4477aa" fill-opacity="0.23747928403583118" stroke="#fffefa" stroke-width="0.5"></rect><rect x="975" y="265" width="35" height="35" rx="0" fill="#4477aa" fill-opacity="0.6028496359077986" stroke="#fffefa" stroke-width="0.5"></rect><rect x="1010" y="265" width="35" height="35" rx="0" fill="#4477aa" fill-opacity="0.86" stroke="#fffefa" stroke-width="0.5"></rect><rect x="1045" y="265" width="35" height="35" rx="0" fill="#4477aa" fill-opacity="0.6028496359077986" stroke="#fffefa" stroke-width="0.5"></rect><rect x="1080" y="265" width="35" height="35" rx="0" fill="#4477aa" fill-opacity="0.23747928403583118" stroke="#fffefa" stroke-width="0.5"></rect><rect x="1115" y="265" width="35" height="35" rx="0" fill="#4477aa" fill-opacity="0.1013125035088882" stroke="#fffefa" stroke-width="0.5"></rect><rect x="1150" y="265" width="35" height="35" rx="0" fill="#4477aa" fill-opacity="0.08129601467307566" stroke="#fffefa" stroke-width="0.5"></rect><rect x="1185" y="265" width="35" height="35" rx="0" fill="#4477aa" fill-opacity="0.08003541194521474" stroke="#fffefa" stroke-width="0.5"></rect><rect x="1220" y="265" width="35" height="35" rx="0" fill="#4477aa" fill-opacity="0.08000043476448804" stroke="#fffefa" stroke-width="0.5"></rect><rect x="1255" y="265" width="35" height="35" rx="0" fill="#4477aa" fill-opacity="0.08000000239840631" stroke="#fffefa" stroke-width="0.5"></rect><rect x="940" y="300" width="35" height="35" rx="0" fill="#4477aa" fill-opacity="0.1013125035088882" stroke="#fffefa" stroke-width="0.5"></rect><rect x="975" y="300" width="35" height="35" rx="0" fill="#4477aa" fill-opacity="0.23747928403583118" stroke="#fffefa" stroke-width="0.5"></rect><rect x="1010" y="300" width="35" height="35" rx="0" fill="#4477aa" fill-opacity="0.6028496359077986" stroke="#fffefa" stroke-width="0.5"></rect><rect x="1045" y="300" width="35" height="35" rx="0" fill="#4477aa" fill-opacity="0.86" stroke="#fffefa" stroke-width="0.5"></rect><rect x="1080" y="300" width="35" height="35" rx="0" fill="#4477aa" fill-opacity="0.6028496359077986" stroke="#fffefa" stroke-width="0.5"></rect><rect x="1115" y="300" width="35" height="35" rx="0" fill="#4477aa" fill-opacity="0.23747928403583118" stroke="#fffefa" stroke-width="0.5"></rect><rect x="1150" y="300" width="35" height="35" rx="0" fill="#4477aa" fill-opacity="0.1013125035088882" stroke="#fffefa" stroke-width="0.5"></rect><rect x="1185" y="300" width="35" height="35" rx="0" fill="#4477aa" fill-opacity="0.08129601467307566" stroke="#fffefa" stroke-width="0.5"></rect><rect x="1220" y="300" width="35" height="35" rx="0" fill="#4477aa" fill-opacity="0.08003541194521474" stroke="#fffefa" stroke-width="0.5"></rect><rect x="1255" y="300" width="35" height="35" rx="0" fill="#4477aa" fill-opacity="0.08000043476448804" stroke="#fffefa" stroke-width="0.5"></rect><rect x="940" y="335" width="35" height="35" rx="0" fill="#4477aa" fill-opacity="0.08129601467307566" stroke="#fffefa" stroke-width="0.5"></rect><rect x="975" y="335" width="35" height="35" rx="0" fill="#4477aa" fill-opacity="0.1013125035088882" stroke="#fffefa" stroke-width="0.5"></rect><rect x="1010" y="335" width="35" height="35" rx="0" fill="#4477aa" fill-opacity="0.23747928403583118" stroke="#fffefa" stroke-width="0.5"></rect><rect x="1045" y="335" width="35" height="35" rx="0" fill="#4477aa" fill-opacity="0.6028496359077986" stroke="#fffefa" stroke-width="0.5"></rect><rect x="1080" y="335" width="35" height="35" rx="0" fill="#4477aa" fill-opacity="0.86" stroke="#fffefa" stroke-width="0.5"></rect><rect x="1115" y="335" width="35" height="35" rx="0" fill="#4477aa" fill-opacity="0.6028496359077986" stroke="#fffefa" stroke-width="0.5"></rect><rect x="1150" y="335" width="35" height="35" rx="0" fill="#4477aa" fill-opacity="0.23747928403583118" stroke="#fffefa" stroke-width="0.5"></rect><rect x="1185" y="335" width="35" height="35" rx="0" fill="#4477aa" fill-opacity="0.1013125035088882" stroke="#fffefa" stroke-width="0.5"></rect><rect x="1220" y="335" width="35" height="35" rx="0" fill="#4477aa" fill-opacity="0.08129601467307566" stroke="#fffefa" stroke-width="0.5"></rect><rect x="1255" y="335" width="35" height="35" rx="0" fill="#4477aa" fill-opacity="0.08003541194521474" stroke="#fffefa" stroke-width="0.5"></rect><rect x="940" y="370" width="35" height="35" rx="0" fill="#4477aa" fill-opacity="0.08003541194521474" stroke="#fffefa" stroke-width="0.5"></rect><rect x="975" y="370" width="35" height="35" rx="0" fill="#4477aa" fill-opacity="0.08129601467307566" stroke="#fffefa" stroke-width="0.5"></rect><rect x="1010" y="370" width="35" height="35" rx="0" fill="#4477aa" fill-opacity="0.1013125035088882" stroke="#fffefa" stroke-width="0.5"></rect><rect x="1045" y="370" width="35" height="35" rx="0" fill="#4477aa" fill-opacity="0.23747928403583118" stroke="#fffefa" stroke-width="0.5"></rect><rect x="1080" y="370" width="35" height="35" rx="0" fill="#4477aa" fill-opacity="0.6028496359077986" stroke="#fffefa" stroke-width="0.5"></rect><rect x="1115" y="370" width="35" height="35" rx="0" fill="#4477aa" fill-opacity="0.86" stroke="#fffefa" stroke-width="0.5"></rect><rect x="1150" y="370" width="35" height="35" rx="0" fill="#4477aa" fill-opacity="0.6028496359077986" stroke="#fffefa" stroke-width="0.5"></rect><rect x="1185" y="370" width="35" height="35" rx="0" fill="#4477aa" fill-opacity="0.23747928403583118" stroke="#fffefa" stroke-width="0.5"></rect><rect x="1220" y="370" width="35" height="35" rx="0" fill="#4477aa" fill-opacity="0.1013125035088882" stroke="#fffefa" stroke-width="0.5"></rect><rect x="1255" y="370" width="35" height="35" rx="0" fill="#4477aa" fill-opacity="0.08129601467307566" stroke="#fffefa" stroke-width="0.5"></rect><rect x="940" y="405" width="35" height="35" rx="0" fill="#4477aa" fill-opacity="0.08000043476448804" stroke="#fffefa" stroke-width="0.5"></rect><rect x="975" y="405" width="35" height="35" rx="0" fill="#4477aa" fill-opacity="0.08003541194521474" stroke="#fffefa" stroke-width="0.5"></rect><rect x="1010" y="405" width="35" height="35" rx="0" fill="#4477aa" fill-opacity="0.08129601467307566" stroke="#fffefa" stroke-width="0.5"></rect><rect x="1045" y="405" width="35" height="35" rx="0" fill="#4477aa" fill-opacity="0.1013125035088882" stroke="#fffefa" stroke-width="0.5"></rect><rect x="1080" y="405" width="35" height="35" rx="0" fill="#4477aa" fill-opacity="0.23747928403583118" stroke="#fffefa" stroke-width="0.5"></rect><rect x="1115" y="405" width="35" height="35" rx="0" fill="#4477aa" fill-opacity="0.6028496359077986" stroke="#fffefa" stroke-width="0.5"></rect><rect x="1150" y="405" width="35" height="35" rx="0" fill="#4477aa" fill-opacity="0.86" stroke="#fffefa" stroke-width="0.5"></rect><rect x="1185" y="405" width="35" height="35" rx="0" fill="#4477aa" fill-opacity="0.6028496359077986" stroke="#fffefa" stroke-width="0.5"></rect><rect x="1220" y="405" width="35" height="35" rx="0" fill="#4477aa" fill-opacity="0.23747928403583118" stroke="#fffefa" stroke-width="0.5"></rect><rect x="1255" y="405" width="35" height="35" rx="0" fill="#4477aa" fill-opacity="0.1013125035088882" stroke="#fffefa" stroke-width="0.5"></rect><rect x="940" y="440" width="35" height="35" rx="0" fill="#4477aa" fill-opacity="0.08000000239840631" stroke="#fffefa" stroke-width="0.5"></rect><rect x="975" y="440" width="35" height="35" rx="0" fill="#4477aa" fill-opacity="0.08000043476448804" stroke="#fffefa" stroke-width="0.5"></rect><rect x="1010" y="440" width="35" height="35" rx="0" fill="#4477aa" fill-opacity="0.08003541194521474" stroke="#fffefa" stroke-width="0.5"></rect><rect x="1045" y="440" width="35" height="35" rx="0" fill="#4477aa" fill-opacity="0.08129601467307566" stroke="#fffefa" stroke-width="0.5"></rect><rect x="1080" y="440" width="35" height="35" rx="0" fill="#4477aa" fill-opacity="0.1013125035088882" stroke="#fffefa" stroke-width="0.5"></rect><rect x="1115" y="440" width="35" height="35" rx="0" fill="#4477aa" fill-opacity="0.23747928403583118" stroke="#fffefa" stroke-width="0.5"></rect><rect x="1150" y="440" width="35" height="35" rx="0" fill="#4477aa" fill-opacity="0.6028496359077986" stroke="#fffefa" stroke-width="0.5"></rect><rect x="1185" y="440" width="35" height="35" rx="0" fill="#4477aa" fill-opacity="0.86" stroke="#fffefa" stroke-width="0.5"></rect><rect x="1220" y="440" width="35" height="35" rx="0" fill="#4477aa" fill-opacity="0.6028496359077986" stroke="#fffefa" stroke-width="0.5"></rect><rect x="1255" y="440" width="35" height="35" rx="0" fill="#4477aa" fill-opacity="0.23747928403583118" stroke="#fffefa" stroke-width="0.5"></rect><rect x="940" y="475" width="35" height="35" rx="0" fill="#4477aa" fill-opacity="0.08000000000594505" stroke="#fffefa" stroke-width="0.5"></rect><rect x="975" y="475" width="35" height="35" rx="0" fill="#4477aa" fill-opacity="0.08000000239840631" stroke="#fffefa" stroke-width="0.5"></rect><rect x="1010" y="475" width="35" height="35" rx="0" fill="#4477aa" fill-opacity="0.08000043476448804" stroke="#fffefa" stroke-width="0.5"></rect><rect x="1045" y="475" width="35" height="35" rx="0" fill="#4477aa" fill-opacity="0.08003541194521474" stroke="#fffefa" stroke-width="0.5"></rect><rect x="1080" y="475" width="35" height="35" rx="0" fill="#4477aa" fill-opacity="0.08129601467307566" stroke="#fffefa" stroke-width="0.5"></rect><rect x="1115" y="475" width="35" height="35" rx="0" fill="#4477aa" fill-opacity="0.1013125035088882" stroke="#fffefa" stroke-width="0.5"></rect><rect x="1150" y="475" width="35" height="35" rx="0" fill="#4477aa" fill-opacity="0.23747928403583118" stroke="#fffefa" stroke-width="0.5"></rect><rect x="1185" y="475" width="35" height="35" rx="0" fill="#4477aa" fill-opacity="0.6028496359077986" stroke="#fffefa" stroke-width="0.5"></rect><rect x="1220" y="475" width="35" height="35" rx="0" fill="#4477aa" fill-opacity="0.86" stroke="#fffefa" stroke-width="0.5"></rect><rect x="1255" y="475" width="35" height="35" rx="0" fill="#4477aa" fill-opacity="0.6028496359077986" stroke="#fffefa" stroke-width="0.5"></rect><rect x="940" y="510" width="35" height="35" rx="0" fill="#4477aa" fill-opacity="0.08000000000000662" stroke="#fffefa" stroke-width="0.5"></rect><rect x="975" y="510" width="35" height="35" rx="0" fill="#4477aa" fill-opacity="0.08000000000594505" stroke="#fffefa" stroke-width="0.5"></rect><rect x="1010" y="510" width="35" height="35" rx="0" fill="#4477aa" fill-opacity="0.08000000239840631" stroke="#fffefa" stroke-width="0.5"></rect><rect x="1045" y="510" width="35" height="35" rx="0" fill="#4477aa" fill-opacity="0.08000043476448804" stroke="#fffefa" stroke-width="0.5"></rect><rect x="1080" y="510" width="35" height="35" rx="0" fill="#4477aa" fill-opacity="0.08003541194521474" stroke="#fffefa" stroke-width="0.5"></rect><rect x="1115" y="510" width="35" height="35" rx="0" fill="#4477aa" fill-opacity="0.08129601467307566" stroke="#fffefa" stroke-width="0.5"></rect><rect x="1150" y="510" width="35" height="35" rx="0" fill="#4477aa" fill-opacity="0.1013125035088882" stroke="#fffefa" stroke-width="0.5"></rect><rect x="1185" y="510" width="35" height="35" rx="0" fill="#4477aa" fill-opacity="0.23747928403583118" stroke="#fffefa" stroke-width="0.5"></rect><rect x="1220" y="510" width="35" height="35" rx="0" fill="#4477aa" fill-opacity="0.6028496359077986" stroke="#fffefa" stroke-width="0.5"></rect><rect x="1255" y="510" width="35" height="35" rx="0" fill="#4477aa" fill-opacity="0.86" stroke="#fffefa" stroke-width="0.5"></rect><rect x="940" y="195" width="350" height="350" rx="1" fill="none" fill-opacity="1" stroke="#15212b" stroke-width="2"></rect><text x="1115" y="579" font-size="15" fill="#66727e" font-weight="650" text-anchor="middle" >reconstructed state</text><text x="906" y="370" font-size="15" fill="#66727e" font-weight="650" text-anchor="middle" transform="rotate(-90 906 370)">truth state</text><text x="1115" y="585" font-size="18" fill="#4477aa" font-weight="720" text-anchor="middle" >count pairs in each cell</text><rect x="660" y="180" width="3" height="430" rx="0" fill="#d8d5cd" fill-opacity="1" stroke="none" stroke-width="0"></rect>
</svg>
