<svg xmlns="http://www.w3.org/2000/svg" xmlns:xlink="http://www.w3.org/1999/xlink" width="1440" height="810" viewBox="0 0 1440 810">
<rect width="1440" height="810" fill="#fffefa"/>
<style>text{font-family:Arial,Helvetica,sans-serif}</style>
<defs>
  <marker id="arrowSim" markerWidth="9" markerHeight="9" refX="8" refY="4.5" orient="auto"><path d="M0 0L9 4.5 0 9Z" fill="#4477aa"/></marker>
  <marker id="arrowWeight" markerWidth="9" markerHeight="9" refX="8" refY="4.5" orient="auto"><path d="M0 0L9 4.5 0 9Z" fill="#ee8b2d"/></marker>
  <marker id="arrowTruth" markerWidth="9" markerHeight="9" refX="8" refY="4.5" orient="auto"><path d="M0 0L9 4.5 0 9Z" fill="#745fc2"/></marker>
  <marker id="arrowValid" markerWidth="9" markerHeight="9" refX="8" refY="4.5" orient="auto"><path d="M0 0L9 4.5 0 9Z" fill="#238f83"/></marker>
</defs><text x="70" y="58" font-size="13" fill="#745fc2" font-weight="800" text-anchor="start" >THE CONCEPTUAL BRIDGE</text><text x="70" y="105" font-size="39" fill="#15212b" font-weight="730" text-anchor="start" >The response matrix, before it was histogrammed</text><rect x="1234" y="43" width="136" height="34" rx="17" fill="#f1efe9" fill-opacity="1" stroke="none" stroke-width="0"></rect><text x="1302" y="66" font-size="14" fill="#66727e" font-weight="750" text-anchor="middle" >CONCEPTUAL TOY</text><rect x="62" y="728" width="1316" height="54" rx="12" fill="#f1efe9" fill-opacity="1" stroke="none" stroke-width="0"></rect><circle cx="91" cy="755" r="6" fill="#ee8b2d" fill-opacity="1" stroke="none" stroke-width="0"></circle><text x="112" y="763" font-size="22" fill="#15212b" font-weight="680" text-anchor="start" >D’Agostini estimates how much each truth bin should count.</text><text x="92" y="169" font-size="13" fill="#745fc2" font-weight="800" text-anchor="start" >TRUTH</text><text x="92" y="426" font-size="13" fill="#4477aa" font-weight="800" text-anchor="start" >RECONSTRUCTED</text><line x1="80" y1="380" x2="1360" y2="380" stroke="#d8d5cd" stroke-width="2"  ></line><text x="1335" y="368" font-size="13" fill="#66727e" font-weight="650" text-anchor="end" >detector</text><rect x="110" y="195" width="45.55555555555556" height="45.55555555555556" rx="0" fill="#4477aa" fill-opacity="0.86" stroke="#fffefa" stroke-width="0.5"></rect><rect x="155.55555555555554" y="195" width="45.55555555555556" height="45.55555555555556" rx="0" fill="#4477aa" fill-opacity="0.5801207029753646" stroke="#fffefa" stroke-width="0.5"></rect><rect x="201.11111111111111" y="195" width="45.55555555555556" height="45.55555555555556" rx="0" fill="#4477aa" fill-opacity="0.21183038601673154" stroke="#fffefa" stroke-width="0.5"></rect><rect x="246.66666666666669" y="195" width="45.55555555555556" height="45.55555555555556" rx="0" fill="#4477aa" fill-opacity="0.09428619833321267" stroke="#fffefa" stroke-width="0.5"></rect><rect x="292.22222222222223" y="195" width="45.55555555555556" height="45.55555555555556" rx="0" fill="#4477aa" fill-opacity="0.08063647051135628" stroke="#fffefa" stroke-width="0.5"></rect><rect x="337.77777777777777" y="195" width="45.55555555555556" height="45.55555555555556" rx="0" fill="#4477aa" fill-opacity="0.08001165736404933" stroke="#fffefa" stroke-width="0.5"></rect><rect x="383.33333333333337" y="195" width="45.55555555555556" height="45.55555555555556" rx="0" fill="#4477aa" fill-opacity="0.08000008777743628" stroke="#fffefa" stroke-width="0.5"></rect><rect x="428.8888888888889" y="195" width="45.55555555555556" height="45.55555555555556" rx="0" fill="#4477aa" fill-opacity="0.08000000027172267" stroke="#fffefa" stroke-width="0.5"></rect><rect x="474.44444444444446" y="195" width="45.55555555555556" height="45.55555555555556" rx="0" fill="#4477aa" fill-opacity="0.08000000000034581" stroke="#fffefa" stroke-width="0.5"></rect><rect x="110" y="240.55555555555554" width="45.55555555555556" height="45.55555555555556" rx="0" fill="#4477aa" fill-opacity="0.5801207029753646" stroke="#fffefa" stroke-width="0.5"></rect><rect x="155.55555555555554" y="240.55555555555554" width="45.55555555555556" height="45.55555555555556" rx="0" fill="#4477aa" fill-opacity="0.86" stroke="#fffefa" stroke-width="0.5"></rect><rect x="201.11111111111111" y="240.55555555555554" width="45.55555555555556" height="45.55555555555556" rx="0" fill="#4477aa" fill-opacity="0.5801207029753646" stroke="#fffefa" stroke-width="0.5"></rect><rect x="246.66666666666669" y="240.55555555555554" width="45.55555555555556" height="45.55555555555556" rx="0" fill="#4477aa" fill-opacity="0.21183038601673154" stroke="#fffefa" stroke-width="0.5"></rect><rect x="292.22222222222223" y="240.55555555555554" width="45.55555555555556" height="45.55555555555556" rx="0" fill="#4477aa" fill-opacity="0.09428619833321267" stroke="#fffefa" stroke-width="0.5"></rect><rect x="337.77777777777777" y="240.55555555555554" width="45.55555555555556" height="45.55555555555556" rx="0" fill="#4477aa" fill-opacity="0.08063647051135628" stroke="#fffefa" stroke-width="0.5"></rect><rect x="383.33333333333337" y="240.55555555555554" width="45.55555555555556" height="45.55555555555556" rx="0" fill="#4477aa" fill-opacity="0.08001165736404933" stroke="#fffefa" stroke-width="0.5"></rect><rect x="428.8888888888889" y="240.55555555555554" width="45.55555555555556" height="45.55555555555556" rx="0" fill="#4477aa" fill-opacity="0.08000008777743628" stroke="#fffefa" stroke-width="0.5"></rect><rect x="474.44444444444446" y="240.55555555555554" width="45.55555555555556" height="45.55555555555556" rx="0" fill="#4477aa" fill-opacity="0.08000000027172267" stroke="#fffefa" stroke-width="0.5"></rect><rect x="110" y="286.1111111111111" width="45.55555555555556" height="45.55555555555556" rx="0" fill="#4477aa" fill-opacity="0.21183038601673154" stroke="#fffefa" stroke-width="0.5"></rect><rect x="155.55555555555554" y="286.1111111111111" width="45.55555555555556" height="45.55555555555556" rx="0" fill="#4477aa" fill-opacity="0.5801207029753646" stroke="#fffefa" stroke-width="0.5"></rect><rect x="201.11111111111111" y="286.1111111111111" width="45.55555555555556" height="45.55555555555556" rx="0" fill="#4477aa" fill-opacity="0.86" stroke="#fffefa" stroke-width="0.5"></rect><rect x="246.66666666666669" y="286.1111111111111" width="45.55555555555556" height="45.55555555555556" rx="0" fill="#4477aa" fill-opacity="0.5801207029753646" stroke="#fffefa" stroke-width="0.5"></rect><rect x="292.22222222222223" y="286.1111111111111" width="45.55555555555556" height="45.55555555555556" rx="0" fill="#4477aa" fill-opacity="0.21183038601673154" stroke="#fffefa" stroke-width="0.5"></rect><rect x="337.77777777777777" y="286.1111111111111" width="45.55555555555556" height="45.55555555555556" rx="0" fill="#4477aa" fill-opacity="0.09428619833321267" stroke="#fffefa" stroke-width="0.5"></rect><rect x="383.33333333333337" y="286.1111111111111" width="45.55555555555556" height="45.55555555555556" rx="0" fill="#4477aa" fill-opacity="0.08063647051135628" stroke="#fffefa" stroke-width="0.5"></rect><rect x="428.8888888888889" y="286.1111111111111" width="45.55555555555556" height="45.55555555555556" rx="0" fill="#4477aa" fill-opacity="0.08001165736404933" stroke="#fffefa" stroke-width="0.5"></rect><rect x="474.44444444444446" y="286.1111111111111" width="45.55555555555556" height="45.55555555555556" rx="0" fill="#4477aa" fill-opacity="0.08000008777743628" stroke="#fffefa" stroke-width="0.5"></rect><rect x="110" y="331.6666666666667" width="45.55555555555556" height="45.55555555555556" rx="0" fill="#4477aa" fill-opacity="0.09428619833321267" stroke="#fffefa" stroke-width="0.5"></rect><rect x="155.55555555555554" y="331.6666666666667" width="45.55555555555556" height="45.55555555555556" rx="0" fill="#4477aa" fill-opacity="0.21183038601673154" stroke="#fffefa" stroke-width="0.5"></rect><rect x="201.11111111111111" y="331.6666666666667" width="45.55555555555556" height="45.55555555555556" rx="0" fill="#4477aa" fill-opacity="0.5801207029753646" stroke="#fffefa" stroke-width="0.5"></rect><rect x="246.66666666666669" y="331.6666666666667" width="45.55555555555556" height="45.55555555555556" rx="0" fill="#4477aa" fill-opacity="0.86" stroke="#fffefa" stroke-width="0.5"></rect><rect x="292.22222222222223" y="331.6666666666667" width="45.55555555555556" height="45.55555555555556" rx="0" fill="#4477aa" fill-opacity="0.5801207029753646" stroke="#fffefa" stroke-width="0.5"></rect><rect x="337.77777777777777" y="331.6666666666667" width="45.55555555555556" height="45.55555555555556" rx="0" fill="#4477aa" fill-opacity="0.21183038601673154" stroke="#fffefa" stroke-width="0.5"></rect><rect x="383.33333333333337" y="331.6666666666667" width="45.55555555555556" height="45.55555555555556" rx="0" fill="#4477aa" fill-opacity="0.09428619833321267" stroke="#fffefa" stroke-width="0.5"></rect><rect x="428.8888888888889" y="331.6666666666667" width="45.55555555555556" height="45.55555555555556" rx="0" fill="#4477aa" fill-opacity="0.08063647051135628" stroke="#fffefa" stroke-width="0.5"></rect><rect x="474.44444444444446" y="331.6666666666667" width="45.55555555555556" height="45.55555555555556" rx="0" fill="#4477aa" fill-opacity="0.08001165736404933" stroke="#fffefa" stroke-width="0.5"></rect><rect x="110" y="377.22222222222223" width="45.55555555555556" height="45.55555555555556" rx="0" fill="#4477aa" fill-opacity="0.08063647051135628" stroke="#fffefa" stroke-width="0.5"></rect><rect x="155.55555555555554" y="377.22222222222223" width="45.55555555555556" height="45.55555555555556" rx="0" fill="#4477aa" fill-opacity="0.09428619833321267" stroke="#fffefa" stroke-width="0.5"></rect><rect x="201.11111111111111" y="377.22222222222223" width="45.55555555555556" height="45.55555555555556" rx="0" fill="#4477aa" fill-opacity="0.21183038601673154" stroke="#fffefa" stroke-width="0.5"></rect><rect x="246.66666666666669" y="377.22222222222223" width="45.55555555555556" height="45.55555555555556" rx="0" fill="#4477aa" fill-opacity="0.5801207029753646" stroke="#fffefa" stroke-width="0.5"></rect><rect x="292.22222222222223" y="377.22222222222223" width="45.55555555555556" height="45.55555555555556" rx="0" fill="#4477aa" fill-opacity="0.86" stroke="#fffefa" stroke-width="0.5"></rect><rect x="337.77777777777777" y="377.22222222222223" width="45.55555555555556" height="45.55555555555556" rx="0" fill="#4477aa" fill-opacity="0.5801207029753646" stroke="#fffefa" stroke-width="0.5"></rect><rect x="383.33333333333337" y="377.22222222222223" width="45.55555555555556" height="45.55555555555556" rx="0" fill="#4477aa" fill-opacity="0.21183038601673154" stroke="#fffefa" stroke-width="0.5"></rect><rect x="428.8888888888889" y="377.22222222222223" width="45.55555555555556" height="45.55555555555556" rx="0" fill="#4477aa" fill-opacity="0.09428619833321267" stroke="#fffefa" stroke-width="0.5"></rect><rect x="474.44444444444446" y="377.22222222222223" width="45.55555555555556" height="45.55555555555556" rx="0" fill="#4477aa" fill-opacity="0.08063647051135628" stroke="#fffefa" stroke-width="0.5"></rect><rect x="110" y="422.77777777777777" width="45.55555555555556" height="45.55555555555556" rx="0" fill="#4477aa" fill-opacity="0.08001165736404933" stroke="#fffefa" stroke-width="0.5"></rect><rect x="155.55555555555554" y="422.77777777777777" width="45.55555555555556" height="45.55555555555556" rx="0" fill="#4477aa" fill-opacity="0.08063647051135628" stroke="#fffefa" stroke-width="0.5"></rect><rect x="201.11111111111111" y="422.77777777777777" width="45.55555555555556" height="45.55555555555556" rx="0" fill="#4477aa" fill-opacity="0.09428619833321267" stroke="#fffefa" stroke-width="0.5"></rect><rect x="246.66666666666669" y="422.77777777777777" width="45.55555555555556" height="45.55555555555556" rx="0" fill="#4477aa" fill-opacity="0.21183038601673154" stroke="#fffefa" stroke-width="0.5"></rect><rect x="292.22222222222223" y="422.77777777777777" width="45.55555555555556" height="45.55555555555556" rx="0" fill="#4477aa" fill-opacity="0.5801207029753646" stroke="#fffefa" stroke-width="0.5"></rect><rect x="337.77777777777777" y="422.77777777777777" width="45.55555555555556" height="45.55555555555556" rx="0" fill="#4477aa" fill-opacity="0.86" stroke="#fffefa" stroke-width="0.5"></rect><rect x="383.33333333333337" y="422.77777777777777" width="45.55555555555556" height="45.55555555555556" rx="0" fill="#4477aa" fill-opacity="0.5801207029753646" stroke="#fffefa" stroke-width="0.5"></rect><rect x="428.8888888888889" y="422.77777777777777" width="45.55555555555556" height="45.55555555555556" rx="0" fill="#4477aa" fill-opacity="0.21183038601673154" stroke="#fffefa" stroke-width="0.5"></rect><rect x="474.44444444444446" y="422.77777777777777" width="45.55555555555556" height="45.55555555555556" rx="0" fill="#4477aa" fill-opacity="0.09428619833321267" stroke="#fffefa" stroke-width="0.5"></rect><rect x="110" y="468.33333333333337" width="45.55555555555556" height="45.55555555555556" rx="0" fill="#4477aa" fill-opacity="0.08000008777743628" stroke="#fffefa" stroke-width="0.5"></rect><rect x="155.55555555555554" y="468.33333333333337" width="45.55555555555556" height="45.55555555555556" rx="0" fill="#4477aa" fill-opacity="0.08001165736404933" stroke="#fffefa" stroke-width="0.5"></rect><rect x="201.11111111111111" y="468.33333333333337" width="45.55555555555556" height="45.55555555555556" rx="0" fill="#4477aa" fill-opacity="0.08063647051135628" stroke="#fffefa" stroke-width="0.5"></rect><rect x="246.66666666666669" y="468.33333333333337" width="45.55555555555556" height="45.55555555555556" rx="0" fill="#4477aa" fill-opacity="0.09428619833321267" stroke="#fffefa" stroke-width="0.5"></rect><rect x="292.22222222222223" y="468.33333333333337" width="45.55555555555556" height="45.55555555555556" rx="0" fill="#4477aa" fill-opacity="0.21183038601673154" stroke="#fffefa" stroke-width="0.5"></rect><rect x="337.77777777777777" y="468.33333333333337" width="45.55555555555556" height="45.55555555555556" rx="0" fill="#4477aa" fill-opacity="0.5801207029753646" stroke="#fffefa" stroke-width="0.5"></rect><rect x="383.33333333333337" y="468.33333333333337" width="45.55555555555556" height="45.55555555555556" rx="0" fill="#4477aa" fill-opacity="0.86" stroke="#fffefa" stroke-width="0.5"></rect><rect x="428.8888888888889" y="468.33333333333337" width="45.55555555555556" height="45.55555555555556" rx="0" fill="#4477aa" fill-opacity="0.5801207029753646" stroke="#fffefa" stroke-width="0.5"></rect><rect x="474.44444444444446" y="468.33333333333337" width="45.55555555555556" height="45.55555555555556" rx="0" fill="#4477aa" fill-opacity="0.21183038601673154" stroke="#fffefa" stroke-width="0.5"></rect><rect x="110" y="513.8888888888889" width="45.55555555555556" height="45.55555555555556" rx="0" fill="#4477aa" fill-opacity="0.08000000027172267" stroke="#fffefa" stroke-width="0.5"></rect><rect x="155.55555555555554" y="513.8888888888889" width="45.55555555555556" height="45.55555555555556" rx="0" fill="#4477aa" fill-opacity="0.08000008777743628" stroke="#fffefa" stroke-width="0.5"></rect><rect x="201.11111111111111" y="513.8888888888889" width="45.55555555555556" height="45.55555555555556" rx="0" fill="#4477aa" fill-opacity="0.08001165736404933" stroke="#fffefa" stroke-width="0.5"></rect><rect x="246.66666666666669" y="513.8888888888889" width="45.55555555555556" height="45.55555555555556" rx="0" fill="#4477aa" fill-opacity="0.08063647051135628" stroke="#fffefa" stroke-width="0.5"></rect><rect x="292.22222222222223" y="513.8888888888889" width="45.55555555555556" height="45.55555555555556" rx="0" fill="#4477aa" fill-opacity="0.09428619833321267" stroke="#fffefa" stroke-width="0.5"></rect><rect x="337.77777777777777" y="513.8888888888889" width="45.55555555555556" height="45.55555555555556" rx="0" fill="#4477aa" fill-opacity="0.21183038601673154" stroke="#fffefa" stroke-width="0.5"></rect><rect x="383.33333333333337" y="513.8888888888889" width="45.55555555555556" height="45.55555555555556" rx="0" fill="#4477aa" fill-opacity="0.5801207029753646" stroke="#fffefa" stroke-width="0.5"></rect><rect x="428.8888888888889" y="513.8888888888889" width="45.55555555555556" height="45.55555555555556" rx="0" fill="#4477aa" fill-opacity="0.86" stroke="#fffefa" stroke-width="0.5"></rect><rect x="474.44444444444446" y="513.8888888888889" width="45.55555555555556" height="45.55555555555556" rx="0" fill="#4477aa" fill-opacity="0.5801207029753646" stroke="#fffefa" stroke-width="0.5"></rect><rect x="110" y="559.4444444444445" width="45.55555555555556" height="45.55555555555556" rx="0" fill="#4477aa" fill-opacity="0.08000000000034581" stroke="#fffefa" stroke-width="0.5"></rect><rect x="155.55555555555554" y="559.4444444444445" width="45.55555555555556" height="45.55555555555556" rx="0" fill="#4477aa" fill-opacity="0.08000000027172267" stroke="#fffefa" stroke-width="0.5"></rect><rect x="201.11111111111111" y="559.4444444444445" width="45.55555555555556" height="45.55555555555556" rx="0" fill="#4477aa" fill-opacity="0.08000008777743628" stroke="#fffefa" stroke-width="0.5"></rect><rect x="246.66666666666669" y="559.4444444444445" width="45.55555555555556" height="45.55555555555556" rx="0" fill="#4477aa" fill-opacity="0.08001165736404933" stroke="#fffefa" stroke-width="0.5"></rect><rect x="292.22222222222223" y="559.4444444444445" width="45.55555555555556" height="45.55555555555556" rx="0" fill="#4477aa" fill-opacity="0.08063647051135628" stroke="#fffefa" stroke-width="0.5"></rect><rect x="337.77777777777777" y="559.4444444444445" width="45.55555555555556" height="45.55555555555556" rx="0" fill="#4477aa" fill-opacity="0.09428619833321267" stroke="#fffefa" stroke-width="0.5"></rect><rect x="383.33333333333337" y="559.4444444444445" width="45.55555555555556" height="45.55555555555556" rx="0" fill="#4477aa" fill-opacity="0.21183038601673154" stroke="#fffefa" stroke-width="0.5"></rect><rect x="428.8888888888889" y="559.4444444444445" width="45.55555555555556" height="45.55555555555556" rx="0" fill="#4477aa" fill-opacity="0.5801207029753646" stroke="#fffefa" stroke-width="0.5"></rect><rect x="474.44444444444446" y="559.4444444444445" width="45.55555555555556" height="45.55555555555556" rx="0" fill="#4477aa" fill-opacity="0.86" stroke="#fffefa" stroke-width="0.5"></rect><rect x="110" y="195" width="410" height="410" rx="1" fill="none" fill-opacity="1" stroke="#15212b" stroke-width="2"></rect><text x="315" y="639" font-size="15" fill="#66727e" font-weight="650" text-anchor="middle" >reconstructed state</text><text x="76" y="400" font-size="15" fill="#66727e" font-weight="650" text-anchor="middle" transform="rotate(-90 76 400)">truth state</text><rect x="110" y="195" width="410" height="45.55" rx="0" fill="#4477aa" fill-opacity="0.14300000000000002" stroke="none" stroke-width="0"></rect><text x="555" y="224" font-size="15" fill="#4477aa" font-weight="700" text-anchor="start" >w1 = 0.65</text><rect x="110" y="240.55" width="410" height="45.55" rx="0" fill="#4477aa" fill-opacity="0.11599999999999999" stroke="none" stroke-width="0"></rect><text x="555" y="269.55" font-size="15" fill="#4477aa" font-weight="700" text-anchor="start" >w2 = 0.80</text><rect x="110" y="286.1" width="410" height="45.55" rx="0" fill="#ee8b2d" fill-opacity="0.10699999999999998" stroke="none" stroke-width="0"></rect><text x="555" y="315.1" font-size="15" fill="#ee8b2d" font-weight="700" text-anchor="start" >w3 = 1.15</text><rect x="110" y="331.65" width="410" height="45.55" rx="0" fill="#ee8b2d" fill-opacity="0.16099999999999998" stroke="none" stroke-width="0"></rect><text x="555" y="360.65" font-size="15" fill="#ee8b2d" font-weight="700" text-anchor="start" >w4 = 1.45</text><rect x="110" y="377.2" width="410" height="45.55" rx="0" fill="#ee8b2d" fill-opacity="0.09800000000000002" stroke="none" stroke-width="0"></rect><text x="555" y="406.2" font-size="15" fill="#ee8b2d" font-weight="700" text-anchor="start" >w5 = 1.10</text><rect x="110" y="422.75" width="410" height="45.55" rx="0" fill="#4477aa" fill-opacity="0.098" stroke="none" stroke-width="0"></rect><text x="555" y="451.75" font-size="15" fill="#4477aa" font-weight="700" text-anchor="start" >w6 = 0.90</text><rect x="110" y="468.29999999999995" width="410" height="45.55" rx="0" fill="#4477aa" fill-opacity="0.13040000000000002" stroke="none" stroke-width="0"></rect><text x="555" y="497.29999999999995" font-size="15" fill="#4477aa" font-weight="700" text-anchor="start" >w7 = 0.72</text><rect x="110" y="513.8499999999999" width="410" height="45.55" rx="0" fill="#4477aa" fill-opacity="0.152" stroke="none" stroke-width="0"></rect><text x="555" y="542.8499999999999" font-size="15" fill="#4477aa" font-weight="700" text-anchor="start" >w8 = 0.60</text><rect x="110" y="559.4" width="410" height="45.55" rx="0" fill="#4477aa" fill-opacity="0.16099999999999998" stroke="none" stroke-width="0"></rect><text x="555" y="588.4" font-size="15" fill="#4477aa" font-weight="700" text-anchor="start" >w9 = 0.55</text><text x="900" y="270" font-size="32" fill="#15212b" font-weight="740" text-anchor="middle" >one correction</text><text x="900" y="313" font-size="32" fill="#745fc2" font-weight="740" text-anchor="middle" >per truth bin</text><text x="900" y="385" font-size="18" fill="#66727e" font-weight="600" text-anchor="middle" >All events in that bin</text><text x="900" y="414" font-size="18" fill="#66727e" font-weight="600" text-anchor="middle" >share the same update.</text>
</svg>
