<svg xmlns="http://www.w3.org/2000/svg" xmlns:xlink="http://www.w3.org/1999/xlink" width="1440" height="810" viewBox="0 0 1440 810">
<rect width="1440" height="810" fill="#fffefa"/>
<style>text{font-family:Arial,Helvetica,sans-serif}</style>
<defs>
  <marker id="arrowSim" markerWidth="9" markerHeight="9" refX="8" refY="4.5" orient="auto"><path d="M0 0L9 4.5 0 9Z" fill="#4477aa"/></marker>
  <marker id="arrowWeight" markerWidth="9" markerHeight="9" refX="8" refY="4.5" orient="auto"><path d="M0 0L9 4.5 0 9Z" fill="#ee8b2d"/></marker>
  <marker id="arrowTruth" markerWidth="9" markerHeight="9" refX="8" refY="4.5" orient="auto"><path d="M0 0L9 4.5 0 9Z" fill="#745fc2"/></marker>
  <marker id="arrowValid" markerWidth="9" markerHeight="9" refX="8" refY="4.5" orient="auto"><path d="M0 0L9 4.5 0 9Z" fill="#238f83"/></marker>
</defs><text x="70" y="58" font-size="13" fill="#745fc2" font-weight="800" text-anchor="start" >MARGINALIZATION AS VALIDATION</text><text x="70" y="105" font-size="39" fill="#15212b" font-weight="730" text-anchor="start" >Every new dimension must return to the anchor</text><rect x="1234" y="43" width="136" height="34" rx="17" fill="#f1efe9" fill-opacity="1" stroke="none" stroke-width="0"></rect><text x="1302" y="66" font-size="14" fill="#66727e" font-weight="750" text-anchor="middle" >CONCEPTUAL TOY</text><rect x="62" y="728" width="1316" height="54" rx="12" fill="#f1efe9" fill-opacity="1" stroke="none" stroke-width="0"></rect><circle cx="91" cy="755" r="6" fill="#ee8b2d" fill-opacity="1" stroke="none" stroke-width="0"></circle><text x="112" y="763" font-size="22" fill="#15212b" font-weight="680" text-anchor="start" >A 3D result contains one (pT,p∥) plane for every Eavail interval.</text><path d="M260 355 L870 355 L870 685 L260 685 Z" fill="none" stroke="#15212b" stroke-width="1.6" stroke-linecap="round" stroke-linejoin="round" opacity="1"  ></path><path d="M260 355 L410 205 L1020 205 L870 355 M870 685 L1020 535 L1020 205" fill="none" stroke="#d8d5cd" stroke-width="1.6" stroke-linecap="round" stroke-linejoin="round" opacity="1"  ></path><line x1="260" y1="355" x2="260" y2="685" stroke="#d8d5cd" stroke-width="0.7"  ></line><line x1="382" y1="355" x2="382" y2="685" stroke="#d8d5cd" stroke-width="0.7"  ></line><line x1="504" y1="355" x2="504" y2="685" stroke="#d8d5cd" stroke-width="0.7"  ></line><line x1="626" y1="355" x2="626" y2="685" stroke="#d8d5cd" stroke-width="0.7"  ></line><line x1="748" y1="355" x2="748" y2="685" stroke="#d8d5cd" stroke-width="0.7"  ></line><line x1="260" y1="355" x2="870" y2="355" stroke="#d8d5cd" stroke-width="0.7"  ></line><line x1="260" y1="437.5" x2="870" y2="437.5" stroke="#d8d5cd" stroke-width="0.7"  ></line><line x1="260" y1="520" x2="870" y2="520" stroke="#d8d5cd" stroke-width="0.7"  ></line><line x1="260" y1="602.5" x2="870" y2="602.5" stroke="#d8d5cd" stroke-width="0.7"  ></line><rect x="260" y="355" width="610" height="330" rx="0" fill="#ee8b2d" fill-opacity="0.025" stroke="none" stroke-width="0"></rect><rect x="297.5" y="317.5" width="610" height="330" rx="0" fill="#ee8b2d" fill-opacity="0.047" stroke="none" stroke-width="0"></rect><rect x="335" y="280" width="610" height="330" rx="0" fill="#ee8b2d" fill-opacity="0.069" stroke="none" stroke-width="0"></rect><rect x="372.5" y="242.5" width="610" height="330" rx="0" fill="#ee8b2d" fill-opacity="0.091" stroke="none" stroke-width="0"></rect><text x="565" y="620" font-size="24" fill="#ee8b2d" font-weight="760" text-anchor="middle" >(pT, p∥, Eavail)</text><text x="1080" y="265" font-size="20" fill="#66727e" font-weight="700" text-anchor="middle" >one 2D plane</text><text x="1080" y="300" font-size="30" fill="#745fc2" font-weight="760" text-anchor="middle" >per Eavail slice</text><rect x="1010" y="360" width="190" height="135" rx="2" fill="#ee8b2d" fill-opacity="0.05" stroke="#fffefa" stroke-width="0.8"></rect><rect x="1023" y="350" width="190" height="135" rx="2" fill="#ee8b2d" fill-opacity="0.13" stroke="#fffefa" stroke-width="0.8"></rect><rect x="1036" y="340" width="190" height="135" rx="2" fill="#ee8b2d" fill-opacity="0.21000000000000002" stroke="#fffefa" stroke-width="0.8"></rect><rect x="1049" y="330" width="190" height="135" rx="2" fill="#ee8b2d" fill-opacity="0.29" stroke="#fffefa" stroke-width="0.8"></rect><rect x="1062" y="320" width="190" height="135" rx="2" fill="#ee8b2d" fill-opacity="0.37" stroke="#fffefa" stroke-width="0.8"></rect>
</svg>
