<svg xmlns="http://www.w3.org/2000/svg" xmlns:xlink="http://www.w3.org/1999/xlink" width="1440" height="810" viewBox="0 0 1440 810">
<rect width="1440" height="810" fill="#fffefa"/>
<style>text{font-family:Arial,Helvetica,sans-serif}</style>
<defs>
  <marker id="arrowSim" markerWidth="9" markerHeight="9" refX="8" refY="4.5" orient="auto"><path d="M0 0L9 4.5 0 9Z" fill="#4477aa"/></marker>
  <marker id="arrowWeight" markerWidth="9" markerHeight="9" refX="8" refY="4.5" orient="auto"><path d="M0 0L9 4.5 0 9Z" fill="#ee8b2d"/></marker>
  <marker id="arrowTruth" markerWidth="9" markerHeight="9" refX="8" refY="4.5" orient="auto"><path d="M0 0L9 4.5 0 9Z" fill="#745fc2"/></marker>
  <marker id="arrowValid" markerWidth="9" markerHeight="9" refX="8" refY="4.5" orient="auto"><path d="M0 0L9 4.5 0 9Z" fill="#238f83"/></marker>
</defs><text x="70" y="58" font-size="13" fill="#745fc2" font-weight="800" text-anchor="start" >MARGINALIZATION AS VALIDATION</text><text x="70" y="105" font-size="39" fill="#15212b" font-weight="730" text-anchor="start" >Every new dimension must return to the anchor</text><rect x="1234" y="43" width="136" height="34" rx="17" fill="#f1efe9" fill-opacity="1" stroke="none" stroke-width="0"></rect><text x="1302" y="66" font-size="14" fill="#66727e" font-weight="750" text-anchor="middle" >CONCEPTUAL TOY</text><rect x="62" y="728" width="1316" height="54" rx="12" fill="#f1efe9" fill-opacity="1" stroke="none" stroke-width="0"></rect><circle cx="91" cy="755" r="6" fill="#ee8b2d" fill-opacity="1" stroke="none" stroke-width="0"></circle><text x="112" y="763" font-size="22" fill="#15212b" font-weight="680" text-anchor="start" >That marginal must agree with the established 2D measurement within the validated comparison.</text><text x="360" y="170" font-size="18" fill="#ee8b2d" font-weight="750" text-anchor="middle" >3D → 2D marginal</text><rect x="155" y="205" width="410" height="350" rx="2" fill="#f1efe9" fill-opacity="1" stroke="#15212b" stroke-width="1.5"></rect><rect x="155" y="205" width="51.25" height="58.333333333333336" rx="0" fill="#ee8b2d" fill-opacity="0.08" stroke="#fffefa" stroke-width="0.5"></rect><rect x="155" y="263.3333333333333" width="51.25" height="58.333333333333336" rx="0" fill="#ee8b2d" fill-opacity="0.4676923076923077" stroke="#fffefa" stroke-width="0.5"></rect><rect x="155" y="321.6666666666667" width="51.25" height="58.333333333333336" rx="0" fill="#ee8b2d" fill-opacity="0.13538461538461538" stroke="#fffefa" stroke-width="0.5"></rect><rect x="155" y="380" width="51.25" height="58.333333333333336" rx="0" fill="#ee8b2d" fill-opacity="0.5230769230769231" stroke="#fffefa" stroke-width="0.5"></rect><rect x="155" y="438.33333333333337" width="51.25" height="58.333333333333336" rx="0" fill="#ee8b2d" fill-opacity="0.19076923076923077" stroke="#fffefa" stroke-width="0.5"></rect><rect x="155" y="496.6666666666667" width="51.25" height="58.333333333333336" rx="0" fill="#ee8b2d" fill-opacity="0.5784615384615385" stroke="#fffefa" stroke-width="0.5"></rect><rect x="206.25" y="205" width="51.25" height="58.333333333333336" rx="0" fill="#ee8b2d" fill-opacity="0.35692307692307695" stroke="#fffefa" stroke-width="0.5"></rect><rect x="206.25" y="263.3333333333333" width="51.25" height="58.333333333333336" rx="0" fill="#ee8b2d" fill-opacity="0.7446153846153846" stroke="#fffefa" stroke-width="0.5"></rect><rect x="206.25" y="321.6666666666667" width="51.25" height="58.333333333333336" rx="0" fill="#ee8b2d" fill-opacity="0.4123076923076923" stroke="#fffefa" stroke-width="0.5"></rect><rect x="206.25" y="380" width="51.25" height="58.333333333333336" rx="0" fill="#ee8b2d" fill-opacity="0.08" stroke="#fffefa" stroke-width="0.5"></rect><rect x="206.25" y="438.33333333333337" width="51.25" height="58.333333333333336" rx="0" fill="#ee8b2d" fill-opacity="0.4676923076923077" stroke="#fffefa" stroke-width="0.5"></rect><rect x="206.25" y="496.6666666666667" width="51.25" height="58.333333333333336" rx="0" fill="#ee8b2d" fill-opacity="0.13538461538461538" stroke="#fffefa" stroke-width="0.5"></rect><rect x="257.5" y="205" width="51.25" height="58.333333333333336" rx="0" fill="#ee8b2d" fill-opacity="0.6338461538461538" stroke="#fffefa" stroke-width="0.5"></rect><rect x="257.5" y="263.3333333333333" width="51.25" height="58.333333333333336" rx="0" fill="#ee8b2d" fill-opacity="0.30153846153846153" stroke="#fffefa" stroke-width="0.5"></rect><rect x="257.5" y="321.6666666666667" width="51.25" height="58.333333333333336" rx="0" fill="#ee8b2d" fill-opacity="0.6892307692307692" stroke="#fffefa" stroke-width="0.5"></rect><rect x="257.5" y="380" width="51.25" height="58.333333333333336" rx="0" fill="#ee8b2d" fill-opacity="0.35692307692307695" stroke="#fffefa" stroke-width="0.5"></rect><rect x="257.5" y="438.33333333333337" width="51.25" height="58.333333333333336" rx="0" fill="#ee8b2d" fill-opacity="0.7446153846153846" stroke="#fffefa" stroke-width="0.5"></rect><rect x="257.5" y="496.6666666666667" width="51.25" height="58.333333333333336" rx="0" fill="#ee8b2d" fill-opacity="0.4123076923076923" stroke="#fffefa" stroke-width="0.5"></rect><rect x="308.75" y="205" width="51.25" height="58.333333333333336" rx="0" fill="#ee8b2d" fill-opacity="0.19076923076923077" stroke="#fffefa" stroke-width="0.5"></rect><rect x="308.75" y="263.3333333333333" width="51.25" height="58.333333333333336" rx="0" fill="#ee8b2d" fill-opacity="0.5784615384615385" stroke="#fffefa" stroke-width="0.5"></rect><rect x="308.75" y="321.6666666666667" width="51.25" height="58.333333333333336" rx="0" fill="#ee8b2d" fill-opacity="0.24615384615384617" stroke="#fffefa" stroke-width="0.5"></rect><rect x="308.75" y="380" width="51.25" height="58.333333333333336" rx="0" fill="#ee8b2d" fill-opacity="0.6338461538461538" stroke="#fffefa" stroke-width="0.5"></rect><rect x="308.75" y="438.33333333333337" width="51.25" height="58.333333333333336" rx="0" fill="#ee8b2d" fill-opacity="0.30153846153846153" stroke="#fffefa" stroke-width="0.5"></rect><rect x="308.75" y="496.6666666666667" width="51.25" height="58.333333333333336" rx="0" fill="#ee8b2d" fill-opacity="0.6892307692307692" stroke="#fffefa" stroke-width="0.5"></rect><rect x="360" y="205" width="51.25" height="58.333333333333336" rx="0" fill="#ee8b2d" fill-opacity="0.4676923076923077" stroke="#fffefa" stroke-width="0.5"></rect><rect x="360" y="263.3333333333333" width="51.25" height="58.333333333333336" rx="0" fill="#ee8b2d" fill-opacity="0.13538461538461538" stroke="#fffefa" stroke-width="0.5"></rect><rect x="360" y="321.6666666666667" width="51.25" height="58.333333333333336" rx="0" fill="#ee8b2d" fill-opacity="0.5230769230769231" stroke="#fffefa" stroke-width="0.5"></rect><rect x="360" y="380" width="51.25" height="58.333333333333336" rx="0" fill="#ee8b2d" fill-opacity="0.19076923076923077" stroke="#fffefa" stroke-width="0.5"></rect><rect x="360" y="438.33333333333337" width="51.25" height="58.333333333333336" rx="0" fill="#ee8b2d" fill-opacity="0.5784615384615385" stroke="#fffefa" stroke-width="0.5"></rect><rect x="360" y="496.6666666666667" width="51.25" height="58.333333333333336" rx="0" fill="#ee8b2d" fill-opacity="0.24615384615384617" stroke="#fffefa" stroke-width="0.5"></rect><rect x="411.25" y="205" width="51.25" height="58.333333333333336" rx="0" fill="#ee8b2d" fill-opacity="0.7446153846153846" stroke="#fffefa" stroke-width="0.5"></rect><rect x="411.25" y="263.3333333333333" width="51.25" height="58.333333333333336" rx="0" fill="#ee8b2d" fill-opacity="0.4123076923076923" stroke="#fffefa" stroke-width="0.5"></rect><rect x="411.25" y="321.6666666666667" width="51.25" height="58.333333333333336" rx="0" fill="#ee8b2d" fill-opacity="0.08" stroke="#fffefa" stroke-width="0.5"></rect><rect x="411.25" y="380" width="51.25" height="58.333333333333336" rx="0" fill="#ee8b2d" fill-opacity="0.4676923076923077" stroke="#fffefa" stroke-width="0.5"></rect><rect x="411.25" y="438.33333333333337" width="51.25" height="58.333333333333336" rx="0" fill="#ee8b2d" fill-opacity="0.13538461538461538" stroke="#fffefa" stroke-width="0.5"></rect><rect x="411.25" y="496.6666666666667" width="51.25" height="58.333333333333336" rx="0" fill="#ee8b2d" fill-opacity="0.5230769230769231" stroke="#fffefa" stroke-width="0.5"></rect><rect x="462.5" y="205" width="51.25" height="58.333333333333336" rx="0" fill="#ee8b2d" fill-opacity="0.30153846153846153" stroke="#fffefa" stroke-width="0.5"></rect><rect x="462.5" y="263.3333333333333" width="51.25" height="58.333333333333336" rx="0" fill="#ee8b2d" fill-opacity="0.6892307692307692" stroke="#fffefa" stroke-width="0.5"></rect><rect x="462.5" y="321.6666666666667" width="51.25" height="58.333333333333336" rx="0" fill="#ee8b2d" fill-opacity="0.35692307692307695" stroke="#fffefa" stroke-width="0.5"></rect><rect x="462.5" y="380" width="51.25" height="58.333333333333336" rx="0" fill="#ee8b2d" fill-opacity="0.7446153846153846" stroke="#fffefa" stroke-width="0.5"></rect><rect x="462.5" y="438.33333333333337" width="51.25" height="58.333333333333336" rx="0" fill="#ee8b2d" fill-opacity="0.4123076923076923" stroke="#fffefa" stroke-width="0.5"></rect><rect x="462.5" y="496.6666666666667" width="51.25" height="58.333333333333336" rx="0" fill="#ee8b2d" fill-opacity="0.08" stroke="#fffefa" stroke-width="0.5"></rect><rect x="513.75" y="205" width="51.25" height="58.333333333333336" rx="0" fill="#ee8b2d" fill-opacity="0.5784615384615385" stroke="#fffefa" stroke-width="0.5"></rect><rect x="513.75" y="263.3333333333333" width="51.25" height="58.333333333333336" rx="0" fill="#ee8b2d" fill-opacity="0.24615384615384617" stroke="#fffefa" stroke-width="0.5"></rect><rect x="513.75" y="321.6666666666667" width="51.25" height="58.333333333333336" rx="0" fill="#ee8b2d" fill-opacity="0.6338461538461538" stroke="#fffefa" stroke-width="0.5"></rect><rect x="513.75" y="380" width="51.25" height="58.333333333333336" rx="0" fill="#ee8b2d" fill-opacity="0.30153846153846153" stroke="#fffefa" stroke-width="0.5"></rect><rect x="513.75" y="438.33333333333337" width="51.25" height="58.333333333333336" rx="0" fill="#ee8b2d" fill-opacity="0.6892307692307692" stroke="#fffefa" stroke-width="0.5"></rect><rect x="513.75" y="496.6666666666667" width="51.25" height="58.333333333333336" rx="0" fill="#ee8b2d" fill-opacity="0.35692307692307695" stroke="#fffefa" stroke-width="0.5"></rect><text x="1080" y="170" font-size="18" fill="#238f83" font-weight="750" text-anchor="middle" >established 2D anchor</text><rect x="875" y="205" width="410" height="350" rx="2" fill="#f1efe9" fill-opacity="1" stroke="#15212b" stroke-width="1.5"></rect><rect x="875" y="205" width="51.25" height="58.333333333333336" rx="0" fill="#238f83" fill-opacity="0.08" stroke="#fffefa" stroke-width="0.5"></rect><rect x="875" y="263.3333333333333" width="51.25" height="58.333333333333336" rx="0" fill="#238f83" fill-opacity="0.4676923076923077" stroke="#fffefa" stroke-width="0.5"></rect><rect x="875" y="321.6666666666667" width="51.25" height="58.333333333333336" rx="0" fill="#238f83" fill-opacity="0.13538461538461538" stroke="#fffefa" stroke-width="0.5"></rect><rect x="875" y="380" width="51.25" height="58.333333333333336" rx="0" fill="#238f83" fill-opacity="0.5230769230769231" stroke="#fffefa" stroke-width="0.5"></rect><rect x="875" y="438.33333333333337" width="51.25" height="58.333333333333336" rx="0" fill="#238f83" fill-opacity="0.19076923076923077" stroke="#fffefa" stroke-width="0.5"></rect><rect x="875" y="496.6666666666667" width="51.25" height="58.333333333333336" rx="0" fill="#238f83" fill-opacity="0.5784615384615385" stroke="#fffefa" stroke-width="0.5"></rect><rect x="926.25" y="205" width="51.25" height="58.333333333333336" rx="0" fill="#238f83" fill-opacity="0.35692307692307695" stroke="#fffefa" stroke-width="0.5"></rect><rect x="926.25" y="263.3333333333333" width="51.25" height="58.333333333333336" rx="0" fill="#238f83" fill-opacity="0.7446153846153846" stroke="#fffefa" stroke-width="0.5"></rect><rect x="926.25" y="321.6666666666667" width="51.25" height="58.333333333333336" rx="0" fill="#238f83" fill-opacity="0.4123076923076923" stroke="#fffefa" stroke-width="0.5"></rect><rect x="926.25" y="380" width="51.25" height="58.333333333333336" rx="0" fill="#238f83" fill-opacity="0.08" stroke="#fffefa" stroke-width="0.5"></rect><rect x="926.25" y="438.33333333333337" width="51.25" height="58.333333333333336" rx="0" fill="#238f83" fill-opacity="0.4676923076923077" stroke="#fffefa" stroke-width="0.5"></rect><rect x="926.25" y="496.6666666666667" width="51.25" height="58.333333333333336" rx="0" fill="#238f83" fill-opacity="0.13538461538461538" stroke="#fffefa" stroke-width="0.5"></rect><rect x="977.5" y="205" width="51.25" height="58.333333333333336" rx="0" fill="#238f83" fill-opacity="0.6338461538461538" stroke="#fffefa" stroke-width="0.5"></rect><rect x="977.5" y="263.3333333333333" width="51.25" height="58.333333333333336" rx="0" fill="#238f83" fill-opacity="0.30153846153846153" stroke="#fffefa" stroke-width="0.5"></rect><rect x="977.5" y="321.6666666666667" width="51.25" height="58.333333333333336" rx="0" fill="#238f83" fill-opacity="0.6892307692307692" stroke="#fffefa" stroke-width="0.5"></rect><rect x="977.5" y="380" width="51.25" height="58.333333333333336" rx="0" fill="#238f83" fill-opacity="0.35692307692307695" stroke="#fffefa" stroke-width="0.5"></rect><rect x="977.5" y="438.33333333333337" width="51.25" height="58.333333333333336" rx="0" fill="#238f83" fill-opacity="0.7446153846153846" stroke="#fffefa" stroke-width="0.5"></rect><rect x="977.5" y="496.6666666666667" width="51.25" height="58.333333333333336" rx="0" fill="#238f83" fill-opacity="0.4123076923076923" stroke="#fffefa" stroke-width="0.5"></rect><rect x="1028.75" y="205" width="51.25" height="58.333333333333336" rx="0" fill="#238f83" fill-opacity="0.19076923076923077" stroke="#fffefa" stroke-width="0.5"></rect><rect x="1028.75" y="263.3333333333333" width="51.25" height="58.333333333333336" rx="0" fill="#238f83" fill-opacity="0.5784615384615385" stroke="#fffefa" stroke-width="0.5"></rect><rect x="1028.75" y="321.6666666666667" width="51.25" height="58.333333333333336" rx="0" fill="#238f83" fill-opacity="0.24615384615384617" stroke="#fffefa" stroke-width="0.5"></rect><rect x="1028.75" y="380" width="51.25" height="58.333333333333336" rx="0" fill="#238f83" fill-opacity="0.6338461538461538" stroke="#fffefa" stroke-width="0.5"></rect><rect x="1028.75" y="438.33333333333337" width="51.25" height="58.333333333333336" rx="0" fill="#238f83" fill-opacity="0.30153846153846153" stroke="#fffefa" stroke-width="0.5"></rect><rect x="1028.75" y="496.6666666666667" width="51.25" height="58.333333333333336" rx="0" fill="#238f83" fill-opacity="0.6892307692307692" stroke="#fffefa" stroke-width="0.5"></rect><rect x="1080" y="205" width="51.25" height="58.333333333333336" rx="0" fill="#238f83" fill-opacity="0.4676923076923077" stroke="#fffefa" stroke-width="0.5"></rect><rect x="1080" y="263.3333333333333" width="51.25" height="58.333333333333336" rx="0" fill="#238f83" fill-opacity="0.13538461538461538" stroke="#fffefa" stroke-width="0.5"></rect><rect x="1080" y="321.6666666666667" width="51.25" height="58.333333333333336" rx="0" fill="#238f83" fill-opacity="0.5230769230769231" stroke="#fffefa" stroke-width="0.5"></rect><rect x="1080" y="380" width="51.25" height="58.333333333333336" rx="0" fill="#238f83" fill-opacity="0.19076923076923077" stroke="#fffefa" stroke-width="0.5"></rect><rect x="1080" y="438.33333333333337" width="51.25" height="58.333333333333336" rx="0" fill="#238f83" fill-opacity="0.5784615384615385" stroke="#fffefa" stroke-width="0.5"></rect><rect x="1080" y="496.6666666666667" width="51.25" height="58.333333333333336" rx="0" fill="#238f83" fill-opacity="0.24615384615384617" stroke="#fffefa" stroke-width="0.5"></rect><rect x="1131.25" y="205" width="51.25" height="58.333333333333336" rx="0" fill="#238f83" fill-opacity="0.7446153846153846" stroke="#fffefa" stroke-width="0.5"></rect><rect x="1131.25" y="263.3333333333333" width="51.25" height="58.333333333333336" rx="0" fill="#238f83" fill-opacity="0.4123076923076923" stroke="#fffefa" stroke-width="0.5"></rect><rect x="1131.25" y="321.6666666666667" width="51.25" height="58.333333333333336" rx="0" fill="#238f83" fill-opacity="0.08" stroke="#fffefa" stroke-width="0.5"></rect><rect x="1131.25" y="380" width="51.25" height="58.333333333333336" rx="0" fill="#238f83" fill-opacity="0.4676923076923077" stroke="#fffefa" stroke-width="0.5"></rect><rect x="1131.25" y="438.33333333333337" width="51.25" height="58.333333333333336" rx="0" fill="#238f83" fill-opacity="0.13538461538461538" stroke="#fffefa" stroke-width="0.5"></rect><rect x="1131.25" y="496.6666666666667" width="51.25" height="58.333333333333336" rx="0" fill="#238f83" fill-opacity="0.5230769230769231" stroke="#fffefa" stroke-width="0.5"></rect><rect x="1182.5" y="205" width="51.25" height="58.333333333333336" rx="0" fill="#238f83" fill-opacity="0.30153846153846153" stroke="#fffefa" stroke-width="0.5"></rect><rect x="1182.5" y="263.3333333333333" width="51.25" height="58.333333333333336" rx="0" fill="#238f83" fill-opacity="0.6892307692307692" stroke="#fffefa" stroke-width="0.5"></rect><rect x="1182.5" y="321.6666666666667" width="51.25" height="58.333333333333336" rx="0" fill="#238f83" fill-opacity="0.35692307692307695" stroke="#fffefa" stroke-width="0.5"></rect><rect x="1182.5" y="380" width="51.25" height="58.333333333333336" rx="0" fill="#238f83" fill-opacity="0.7446153846153846" stroke="#fffefa" stroke-width="0.5"></rect><rect x="1182.5" y="438.33333333333337" width="51.25" height="58.333333333333336" rx="0" fill="#238f83" fill-opacity="0.4123076923076923" stroke="#fffefa" stroke-width="0.5"></rect><rect x="1182.5" y="496.6666666666667" width="51.25" height="58.333333333333336" rx="0" fill="#238f83" fill-opacity="0.08" stroke="#fffefa" stroke-width="0.5"></rect><rect x="1233.75" y="205" width="51.25" height="58.333333333333336" rx="0" fill="#238f83" fill-opacity="0.5784615384615385" stroke="#fffefa" stroke-width="0.5"></rect><rect x="1233.75" y="263.3333333333333" width="51.25" height="58.333333333333336" rx="0" fill="#238f83" fill-opacity="0.24615384615384617" stroke="#fffefa" stroke-width="0.5"></rect><rect x="1233.75" y="321.6666666666667" width="51.25" height="58.333333333333336" rx="0" fill="#238f83" fill-opacity="0.6338461538461538" stroke="#fffefa" stroke-width="0.5"></rect><rect x="1233.75" y="380" width="51.25" height="58.333333333333336" rx="0" fill="#238f83" fill-opacity="0.30153846153846153" stroke="#fffefa" stroke-width="0.5"></rect><rect x="1233.75" y="438.33333333333337" width="51.25" height="58.333333333333336" rx="0" fill="#238f83" fill-opacity="0.6892307692307692" stroke="#fffefa" stroke-width="0.5"></rect><rect x="1233.75" y="496.6666666666667" width="51.25" height="58.333333333333336" rx="0" fill="#238f83" fill-opacity="0.35692307692307695" stroke="#fffefa" stroke-width="0.5"></rect><path d="M610 380 C690 380 735 380 815 380" fill="none" stroke="#238f83" stroke-width="4" stroke-linecap="round" stroke-linejoin="round" opacity="1"  marker-end="url(#arrowValid)"></path><rect x="595" y="595" width="250" height="34" rx="17" fill="#238f83" fill-opacity="1" stroke="none" stroke-width="0"></rect><text x="720" y="618" font-size="14" fill="#fffefa" font-weight="750" text-anchor="middle" >COMPARE CELL BY CELL</text><text x="720" y="660" font-size="18" fill="#66727e" font-weight="680" text-anchor="middle" >Normalization · shape · pulls</text>
</svg>
