<svg xmlns="http://www.w3.org/2000/svg" xmlns:xlink="http://www.w3.org/1999/xlink" width="1440" height="810" viewBox="0 0 1440 810">
<rect width="1440" height="810" fill="#fffefa"/>
<style>text{font-family:Arial,Helvetica,sans-serif}</style>
<defs>
  <marker id="arrowSim" markerWidth="9" markerHeight="9" refX="8" refY="4.5" orient="auto"><path d="M0 0L9 4.5 0 9Z" fill="#4477aa"/></marker>
  <marker id="arrowWeight" markerWidth="9" markerHeight="9" refX="8" refY="4.5" orient="auto"><path d="M0 0L9 4.5 0 9Z" fill="#ee8b2d"/></marker>
  <marker id="arrowTruth" markerWidth="9" markerHeight="9" refX="8" refY="4.5" orient="auto"><path d="M0 0L9 4.5 0 9Z" fill="#745fc2"/></marker>
  <marker id="arrowValid" markerWidth="9" markerHeight="9" refX="8" refY="4.5" orient="auto"><path d="M0 0L9 4.5 0 9Z" fill="#238f83"/></marker>
</defs><text x="70" y="58" font-size="13" fill="#745fc2" font-weight="800" text-anchor="start" >MARGINALIZATION AS VALIDATION</text><text x="70" y="105" font-size="39" fill="#15212b" font-weight="730" text-anchor="start" >Every new dimension must return to the anchor</text><rect x="1234" y="43" width="136" height="34" rx="17" fill="#f1efe9" fill-opacity="1" stroke="none" stroke-width="0"></rect><text x="1302" y="66" font-size="14" fill="#66727e" font-weight="750" text-anchor="middle" >CONCEPTUAL TOY</text><rect x="62" y="728" width="1316" height="54" rx="12" fill="#f1efe9" fill-opacity="1" stroke="none" stroke-width="0"></rect><circle cx="91" cy="755" r="6" fill="#ee8b2d" fill-opacity="1" stroke="none" stroke-width="0"></circle><text x="112" y="763" font-size="22" fill="#15212b" font-weight="680" text-anchor="start" >Summing those planes over Eavail produces a 2D marginal.</text><rect x="150" y="205" width="350" height="260" rx="2" fill="#ee8b2d" fill-opacity="0.05" stroke="#fffefa" stroke-width="1"></rect><text x="105" y="350" font-size="14" fill="#66727e" font-weight="700" text-anchor="middle" >E1</text><rect x="172" y="190" width="350" height="260" rx="2" fill="#ee8b2d" fill-opacity="0.12000000000000001" stroke="#fffefa" stroke-width="1"></rect><text x="127" y="335" font-size="14" fill="#66727e" font-weight="700" text-anchor="middle" >E2</text><rect x="194" y="175" width="350" height="260" rx="2" fill="#ee8b2d" fill-opacity="0.19" stroke="#fffefa" stroke-width="1"></rect><text x="149" y="320" font-size="14" fill="#66727e" font-weight="700" text-anchor="middle" >E3</text><rect x="216" y="160" width="350" height="260" rx="2" fill="#ee8b2d" fill-opacity="0.26" stroke="#fffefa" stroke-width="1"></rect><text x="171" y="305" font-size="14" fill="#66727e" font-weight="700" text-anchor="middle" >E4</text><rect x="238" y="145" width="350" height="260" rx="2" fill="#ee8b2d" fill-opacity="0.33" stroke="#fffefa" stroke-width="1"></rect><text x="193" y="290" font-size="14" fill="#66727e" font-weight="700" text-anchor="middle" >E5</text><path d="M620 330 C720 330 730 330 800 330" fill="none" stroke="#ee8b2d" stroke-width="5" stroke-linecap="round" stroke-linejoin="round" opacity="1"  marker-end="url(#arrowWeight)"></path><text x="710" y="305" font-size="19" fill="#ee8b2d" font-weight="760" text-anchor="middle" >Σ over Eavail</text><rect x="880" y="190" width="390" height="360" rx="2" fill="#f1efe9" fill-opacity="1" stroke="#15212b" stroke-width="1.5"></rect><rect x="880" y="190" width="48.75" height="60" rx="0" fill="#ee8b2d" fill-opacity="0.08" stroke="#fffefa" stroke-width="0.5"></rect><rect x="880" y="250" width="48.75" height="60" rx="0" fill="#ee8b2d" fill-opacity="0.4676923076923077" stroke="#fffefa" stroke-width="0.5"></rect><rect x="880" y="310" width="48.75" height="60" rx="0" fill="#ee8b2d" fill-opacity="0.13538461538461538" stroke="#fffefa" stroke-width="0.5"></rect><rect x="880" y="370" width="48.75" height="60" rx="0" fill="#ee8b2d" fill-opacity="0.5230769230769231" stroke="#fffefa" stroke-width="0.5"></rect><rect x="880" y="430" width="48.75" height="60" rx="0" fill="#ee8b2d" fill-opacity="0.19076923076923077" stroke="#fffefa" stroke-width="0.5"></rect><rect x="880" y="490" width="48.75" height="60" rx="0" fill="#ee8b2d" fill-opacity="0.5784615384615385" stroke="#fffefa" stroke-width="0.5"></rect><rect x="928.75" y="190" width="48.75" height="60" rx="0" fill="#ee8b2d" fill-opacity="0.35692307692307695" stroke="#fffefa" stroke-width="0.5"></rect><rect x="928.75" y="250" width="48.75" height="60" rx="0" fill="#ee8b2d" fill-opacity="0.7446153846153846" stroke="#fffefa" stroke-width="0.5"></rect><rect x="928.75" y="310" width="48.75" height="60" rx="0" fill="#ee8b2d" fill-opacity="0.4123076923076923" stroke="#fffefa" stroke-width="0.5"></rect><rect x="928.75" y="370" width="48.75" height="60" rx="0" fill="#ee8b2d" fill-opacity="0.08" stroke="#fffefa" stroke-width="0.5"></rect><rect x="928.75" y="430" width="48.75" height="60" rx="0" fill="#ee8b2d" fill-opacity="0.4676923076923077" stroke="#fffefa" stroke-width="0.5"></rect><rect x="928.75" y="490" width="48.75" height="60" rx="0" fill="#ee8b2d" fill-opacity="0.13538461538461538" stroke="#fffefa" stroke-width="0.5"></rect><rect x="977.5" y="190" width="48.75" height="60" rx="0" fill="#ee8b2d" fill-opacity="0.6338461538461538" stroke="#fffefa" stroke-width="0.5"></rect><rect x="977.5" y="250" width="48.75" height="60" rx="0" fill="#ee8b2d" fill-opacity="0.30153846153846153" stroke="#fffefa" stroke-width="0.5"></rect><rect x="977.5" y="310" width="48.75" height="60" rx="0" fill="#ee8b2d" fill-opacity="0.6892307692307692" stroke="#fffefa" stroke-width="0.5"></rect><rect x="977.5" y="370" width="48.75" height="60" rx="0" fill="#ee8b2d" fill-opacity="0.35692307692307695" stroke="#fffefa" stroke-width="0.5"></rect><rect x="977.5" y="430" width="48.75" height="60" rx="0" fill="#ee8b2d" fill-opacity="0.7446153846153846" stroke="#fffefa" stroke-width="0.5"></rect><rect x="977.5" y="490" width="48.75" height="60" rx="0" fill="#ee8b2d" fill-opacity="0.4123076923076923" stroke="#fffefa" stroke-width="0.5"></rect><rect x="1026.25" y="190" width="48.75" height="60" rx="0" fill="#ee8b2d" fill-opacity="0.19076923076923077" stroke="#fffefa" stroke-width="0.5"></rect><rect x="1026.25" y="250" width="48.75" height="60" rx="0" fill="#ee8b2d" fill-opacity="0.5784615384615385" stroke="#fffefa" stroke-width="0.5"></rect><rect x="1026.25" y="310" width="48.75" height="60" rx="0" fill="#ee8b2d" fill-opacity="0.24615384615384617" stroke="#fffefa" stroke-width="0.5"></rect><rect x="1026.25" y="370" width="48.75" height="60" rx="0" fill="#ee8b2d" fill-opacity="0.6338461538461538" stroke="#fffefa" stroke-width="0.5"></rect><rect x="1026.25" y="430" width="48.75" height="60" rx="0" fill="#ee8b2d" fill-opacity="0.30153846153846153" stroke="#fffefa" stroke-width="0.5"></rect><rect x="1026.25" y="490" width="48.75" height="60" rx="0" fill="#ee8b2d" fill-opacity="0.6892307692307692" stroke="#fffefa" stroke-width="0.5"></rect><rect x="1075" y="190" width="48.75" height="60" rx="0" fill="#ee8b2d" fill-opacity="0.4676923076923077" stroke="#fffefa" stroke-width="0.5"></rect><rect x="1075" y="250" width="48.75" height="60" rx="0" fill="#ee8b2d" fill-opacity="0.13538461538461538" stroke="#fffefa" stroke-width="0.5"></rect><rect x="1075" y="310" width="48.75" height="60" rx="0" fill="#ee8b2d" fill-opacity="0.5230769230769231" stroke="#fffefa" stroke-width="0.5"></rect><rect x="1075" y="370" width="48.75" height="60" rx="0" fill="#ee8b2d" fill-opacity="0.19076923076923077" stroke="#fffefa" stroke-width="0.5"></rect><rect x="1075" y="430" width="48.75" height="60" rx="0" fill="#ee8b2d" fill-opacity="0.5784615384615385" stroke="#fffefa" stroke-width="0.5"></rect><rect x="1075" y="490" width="48.75" height="60" rx="0" fill="#ee8b2d" fill-opacity="0.24615384615384617" stroke="#fffefa" stroke-width="0.5"></rect><rect x="1123.75" y="190" width="48.75" height="60" rx="0" fill="#ee8b2d" fill-opacity="0.7446153846153846" stroke="#fffefa" stroke-width="0.5"></rect><rect x="1123.75" y="250" width="48.75" height="60" rx="0" fill="#ee8b2d" fill-opacity="0.4123076923076923" stroke="#fffefa" stroke-width="0.5"></rect><rect x="1123.75" y="310" width="48.75" height="60" rx="0" fill="#ee8b2d" fill-opacity="0.08" stroke="#fffefa" stroke-width="0.5"></rect><rect x="1123.75" y="370" width="48.75" height="60" rx="0" fill="#ee8b2d" fill-opacity="0.4676923076923077" stroke="#fffefa" stroke-width="0.5"></rect><rect x="1123.75" y="430" width="48.75" height="60" rx="0" fill="#ee8b2d" fill-opacity="0.13538461538461538" stroke="#fffefa" stroke-width="0.5"></rect><rect x="1123.75" y="490" width="48.75" height="60" rx="0" fill="#ee8b2d" fill-opacity="0.5230769230769231" stroke="#fffefa" stroke-width="0.5"></rect><rect x="1172.5" y="190" width="48.75" height="60" rx="0" fill="#ee8b2d" fill-opacity="0.30153846153846153" stroke="#fffefa" stroke-width="0.5"></rect><rect x="1172.5" y="250" width="48.75" height="60" rx="0" fill="#ee8b2d" fill-opacity="0.6892307692307692" stroke="#fffefa" stroke-width="0.5"></rect><rect x="1172.5" y="310" width="48.75" height="60" rx="0" fill="#ee8b2d" fill-opacity="0.35692307692307695" stroke="#fffefa" stroke-width="0.5"></rect><rect x="1172.5" y="370" width="48.75" height="60" rx="0" fill="#ee8b2d" fill-opacity="0.7446153846153846" stroke="#fffefa" stroke-width="0.5"></rect><rect x="1172.5" y="430" width="48.75" height="60" rx="0" fill="#ee8b2d" fill-opacity="0.4123076923076923" stroke="#fffefa" stroke-width="0.5"></rect><rect x="1172.5" y="490" width="48.75" height="60" rx="0" fill="#ee8b2d" fill-opacity="0.08" stroke="#fffefa" stroke-width="0.5"></rect><rect x="1221.25" y="190" width="48.75" height="60" rx="0" fill="#ee8b2d" fill-opacity="0.5784615384615385" stroke="#fffefa" stroke-width="0.5"></rect><rect x="1221.25" y="250" width="48.75" height="60" rx="0" fill="#ee8b2d" fill-opacity="0.24615384615384617" stroke="#fffefa" stroke-width="0.5"></rect><rect x="1221.25" y="310" width="48.75" height="60" rx="0" fill="#ee8b2d" fill-opacity="0.6338461538461538" stroke="#fffefa" stroke-width="0.5"></rect><rect x="1221.25" y="370" width="48.75" height="60" rx="0" fill="#ee8b2d" fill-opacity="0.30153846153846153" stroke="#fffefa" stroke-width="0.5"></rect><rect x="1221.25" y="430" width="48.75" height="60" rx="0" fill="#ee8b2d" fill-opacity="0.6892307692307692" stroke="#fffefa" stroke-width="0.5"></rect><rect x="1221.25" y="490" width="48.75" height="60" rx="0" fill="#ee8b2d" fill-opacity="0.35692307692307695" stroke="#fffefa" stroke-width="0.5"></rect><text x="1075" y="595" font-size="21" fill="#15212b" font-weight="720" text-anchor="middle" >2D marginal in (pT, p∥)</text>
</svg>
