<svg xmlns="http://www.w3.org/2000/svg" xmlns:xlink="http://www.w3.org/1999/xlink" width="1440" height="810" viewBox="0 0 1440 810">
<rect width="1440" height="810" fill="#fffefa"/>
<style>text{font-family:Arial,Helvetica,sans-serif}</style>
<defs>
  <marker id="arrowSim" markerWidth="9" markerHeight="9" refX="8" refY="4.5" orient="auto"><path d="M0 0L9 4.5 0 9Z" fill="#4477aa"/></marker>
  <marker id="arrowWeight" markerWidth="9" markerHeight="9" refX="8" refY="4.5" orient="auto"><path d="M0 0L9 4.5 0 9Z" fill="#ee8b2d"/></marker>
  <marker id="arrowTruth" markerWidth="9" markerHeight="9" refX="8" refY="4.5" orient="auto"><path d="M0 0L9 4.5 0 9Z" fill="#745fc2"/></marker>
  <marker id="arrowValid" markerWidth="9" markerHeight="9" refX="8" refY="4.5" orient="auto"><path d="M0 0L9 4.5 0 9Z" fill="#238f83"/></marker>
</defs><text x="70" y="58" font-size="13" fill="#745fc2" font-weight="800" text-anchor="start" >THE TWO-STEP ALGORITHM</text><text x="70" y="105" font-size="39" fill="#15212b" font-weight="730" text-anchor="start" >One complete OmniFold iteration</text><rect x="1234" y="43" width="136" height="34" rx="17" fill="#f1efe9" fill-opacity="1" stroke="none" stroke-width="0"></rect><text x="1302" y="66" font-size="14" fill="#66727e" font-weight="750" text-anchor="middle" >CONCEPTUAL TOY</text><rect x="62" y="728" width="1316" height="54" rx="12" fill="#f1efe9" fill-opacity="1" stroke="none" stroke-width="0"></rect><circle cx="91" cy="755" r="6" fill="#ee8b2d" fill-opacity="1" stroke="none" stroke-width="0"></circle><text x="112" y="763" font-size="22" fill="#15212b" font-weight="680" text-anchor="start" >After a controlled number of iterations, the weighted truth ensemble is the unfolded result.</text><text x="92" y="169" font-size="13" fill="#745fc2" font-weight="800" text-anchor="start" >TRUTH</text><text x="92" y="426" font-size="13" fill="#4477aa" font-weight="800" text-anchor="start" >RECONSTRUCTED</text><line x1="80" y1="380" x2="1360" y2="380" stroke="#d8d5cd" stroke-width="2"  ></line><text x="1335" y="368" font-size="13" fill="#66727e" font-weight="650" text-anchor="end" >detector</text><line x1="180" y1="225" x2="180" y2="537.2810240904785" stroke="#d8d5cd" stroke-width="1"  ></line><line x1="255" y1="256.58014958759804" x2="289.9353365374142" y2="549.5647061870271" stroke="#d8d5cd" stroke-width="1"  ></line><line x1="330" y1="263.76436515521823" x2="334.245263926072" y2="527.4217739085327" stroke="#d8d5cd" stroke-width="1"  ></line><line x1="405" y1="241.00277910369678" x2="370.5805384358441" y2="487.9578306776951" stroke="#d8d5cd" stroke-width="1"  ></line><line x1="480" y1="205.8789101545863" x2="471.57216012030443" y2="461.65910812420077" stroke="#d8d5cd" stroke-width="1"  ></line><line x1="555" y1="185.52624565987054" x2="588.3953293197831" y2="468.841592986653" stroke="#d8d5cd" stroke-width="1"  ></line><line x1="630" y1="195.66739196017375" x2="642.4859655745415" y2="503.95675465034293" stroke="#d8d5cd" stroke-width="1"  ></line><line x1="705" y1="228.46822732840005" x2="673.1219372787228" y2="539.877832215295" stroke="#d8d5cd" stroke-width="1"  ></line><line x1="780" y1="258.5898276019592" x2="763.640283572686" y2="548.8554878966995" stroke="#d8d5cd" stroke-width="1"  ></line><line x1="855" y1="262.7630005051288" x2="884.8900665868972" y2="523.9544063614197" stroke="#d8d5cd" stroke-width="1"  ></line><line x1="930" y1="237.7639344939741" x2="930" y2="352.7639344939741" stroke="#d8d5cd" stroke-width="1" stroke-dasharray="5 6" ></line><line x1="1005" y1="202.90462057973164" x2="977.5393032060617" y2="460.77262973469516" stroke="#d8d5cd" stroke-width="1"  ></line><circle cx="165" cy="522.5494345702123" r="4" fill="#15212b" fill-opacity="0.88" stroke="none" stroke-width="0"></circle><circle cx="244.19828007917823" cy="545.6872078153943" r="4" fill="#15212b" fill-opacity="0.88" stroke="none" stroke-width="0"></circle><circle cx="292.3410301800722" cy="552.7736416835269" r="4" fill="#15212b" fill-opacity="0.88" stroke="none" stroke-width="0"></circle><circle cx="323.86914449795256" cy="540.1020856486097" r="4" fill="#15212b" fill-opacity="0.88" stroke="none" stroke-width="0"></circle><circle cx="377.56399757415664" cy="514.300560336544" r="4" fill="#15212b" fill-opacity="0.88" stroke="none" stroke-width="0"></circle><circle cx="459.73263973793195" cy="488.864885951009" r="4" fill="#15212b" fill-opacity="0.88" stroke="none" stroke-width="0"></circle><circle cx="534.9679535982414" cy="477.0995196554725" r="4" fill="#15212b" fill-opacity="0.88" stroke="none" stroke-width="0"></circle><circle cx="578.0201639716857" cy="485.15848785862636" r="4" fill="#15212b" fill-opacity="0.88" stroke="none" stroke-width="0"></circle><circle cx="610.7878176801156" cy="508.82644342182414" r="4" fill="#15212b" fill-opacity="0.88" stroke="none" stroke-width="0"></circle><circle cx="670.2363611537813" cy="535.7235572843315" r="4" fill="#15212b" fill-opacity="0.88" stroke="none" stroke-width="0"></circle><circle cx="754.2436748101861" cy="551.7809475371965" r="4" fill="#15212b" fill-opacity="0.88" stroke="none" stroke-width="0"></circle><circle cx="824.7089832140415" cy="548.5995893486727" r="4" fill="#15212b" fill-opacity="0.88" stroke="none" stroke-width="0"></circle><circle cx="863.3705803505877" cy="527.8435331032442" r="4" fill="#15212b" fill-opacity="0.88" stroke="none" stroke-width="0"></circle><circle cx="898.5592717198439" cy="500.36950141082434" r="4" fill="#15212b" fill-opacity="0.88" stroke="none" stroke-width="0"></circle><circle cx="963.6936779070618" cy="480.5481404834681" r="4" fill="#15212b" fill-opacity="0.88" stroke="none" stroke-width="0"></circle><circle cx="180" cy="225" r="6.95" fill="#ee8b2d" fill-opacity="0.88" stroke="none" stroke-width="0"></circle><circle cx="180" cy="537.2810240904785" r="5.3" fill="#ee8b2d" fill-opacity="0.28" stroke="none" stroke-width="0"></circle><circle cx="255" cy="256.58014958759804" r="7.640000000000001" fill="#ee8b2d" fill-opacity="0.88" stroke="none" stroke-width="0"></circle><circle cx="289.9353365374142" cy="549.5647061870271" r="5.76" fill="#ee8b2d" fill-opacity="0.28" stroke="none" stroke-width="0"></circle><circle cx="330" cy="263.76436515521823" r="8.33" fill="#ee8b2d" fill-opacity="0.88" stroke="none" stroke-width="0"></circle><circle cx="334.245263926072" cy="527.4217739085327" r="6.220000000000001" fill="#ee8b2d" fill-opacity="0.28" stroke="none" stroke-width="0"></circle><circle cx="405" cy="241.00277910369678" r="9.02" fill="#ee8b2d" fill-opacity="0.88" stroke="none" stroke-width="0"></circle><circle cx="370.5805384358441" cy="487.9578306776951" r="6.68" fill="#ee8b2d" fill-opacity="0.28" stroke="none" stroke-width="0"></circle><circle cx="480" cy="205.8789101545863" r="9.71" fill="#ee8b2d" fill-opacity="0.88" stroke="none" stroke-width="0"></circle><circle cx="471.57216012030443" cy="461.65910812420077" r="7.140000000000001" fill="#ee8b2d" fill-opacity="0.28" stroke="none" stroke-width="0"></circle><circle cx="555" cy="185.52624565987054" r="6.95" fill="#ee8b2d" fill-opacity="0.88" stroke="none" stroke-width="0"></circle><circle cx="588.3953293197831" cy="468.841592986653" r="5.3" fill="#ee8b2d" fill-opacity="0.28" stroke="none" stroke-width="0"></circle><circle cx="630" cy="195.66739196017375" r="7.640000000000001" fill="#ee8b2d" fill-opacity="0.88" stroke="none" stroke-width="0"></circle><circle cx="642.4859655745415" cy="503.95675465034293" r="5.76" fill="#ee8b2d" fill-opacity="0.28" stroke="none" stroke-width="0"></circle><circle cx="705" cy="228.46822732840005" r="8.33" fill="#ee8b2d" fill-opacity="0.88" stroke="none" stroke-width="0"></circle><circle cx="673.1219372787228" cy="539.877832215295" r="6.220000000000001" fill="#ee8b2d" fill-opacity="0.28" stroke="none" stroke-width="0"></circle><circle cx="780" cy="258.5898276019592" r="9.02" fill="#ee8b2d" fill-opacity="0.88" stroke="none" stroke-width="0"></circle><circle cx="763.640283572686" cy="548.8554878966995" r="6.68" fill="#ee8b2d" fill-opacity="0.28" stroke="none" stroke-width="0"></circle><circle cx="855" cy="262.7630005051288" r="9.71" fill="#ee8b2d" fill-opacity="0.88" stroke="none" stroke-width="0"></circle><circle cx="884.8900665868972" cy="523.9544063614197" r="7.140000000000001" fill="#ee8b2d" fill-opacity="0.28" stroke="none" stroke-width="0"></circle><circle cx="930" cy="237.7639344939741" r="6.95" fill="#ee8b2d" fill-opacity="0.88" stroke="none" stroke-width="0"></circle><circle cx="1005" cy="202.90462057973164" r="7.640000000000001" fill="#ee8b2d" fill-opacity="0.88" stroke="none" stroke-width="0"></circle><circle cx="977.5393032060617" cy="460.77262973469516" r="5.76" fill="#ee8b2d" fill-opacity="0.28" stroke="none" stroke-width="0"></circle><path d="M1030 250 C1270 250 1270 525 1030 525" fill="none" stroke="#745fc2" stroke-width="4" stroke-linecap="round" stroke-linejoin="round" opacity="1" stroke-dasharray="8 9" ></path><text x="1230" y="388" font-size="22" fill="#745fc2" font-weight="800" text-anchor="middle" >repeat</text><rect x="945" y="185" width="390" height="150" rx="14" fill="#f1efe9" fill-opacity="1" stroke="none" stroke-width="0"></rect><text x="1140" y="226" font-size="13" fill="#66727e" font-weight="800" text-anchor="middle" >REGULARIZATION</text><text x="1140" y="267" font-size="19" fill="#15212b" font-weight="720" text-anchor="middle" >iterations + learner capacity</text><text x="1140" y="302" font-size="15" fill="#238f83" font-weight="680" text-anchor="middle" >validated by closure and stability</text><rect x="975" y="560" width="330" height="34" rx="17" fill="#ee8b2d" fill-opacity="1" stroke="none" stroke-width="0"></rect><text x="1140" y="583" font-size="14" fill="#fffefa" font-weight="750" text-anchor="middle" >WEIGHTED TRUTH ENSEMBLE</text>
</svg>
